%TF.GenerationSoftware,KiCad,Pcbnew,(6.0.2-0)*%
%TF.CreationDate,2022-04-11T13:22:42+02:00*%
%TF.ProjectId,main,6d61696e-2e6b-4696-9361-645f70636258,rev?*%
%TF.SameCoordinates,Original*%
%TF.FileFunction,Legend,Top*%
%TF.FilePolarity,Positive*%
%FSLAX46Y46*%
G04 Gerber Fmt 4.6, Leading zero omitted, Abs format (unit mm)*
G04 Created by KiCad (PCBNEW (6.0.2-0)) date 2022-04-11 13:22:42*
%MOMM*%
%LPD*%
G01*
G04 APERTURE LIST*
%ADD10C,0.100000*%
%ADD11C,0.300000*%
%ADD12C,0.150000*%
%ADD13C,0.120000*%
%ADD14C,0.250000*%
%ADD15R,1.700000X1.700000*%
%ADD16O,1.700000X1.700000*%
%ADD17C,1.524000*%
%ADD18C,1.300000*%
%ADD19O,2.200000X1.300000*%
%ADD20R,0.900000X1.600000*%
%ADD21O,0.900000X1.600000*%
G04 APERTURE END LIST*
D10*
X178120000Y-93400000D02*
X188280000Y-93400000D01*
X188280000Y-93400000D02*
X188280000Y-103560000D01*
X188280000Y-103560000D02*
X178120000Y-103560000D01*
X178120000Y-103560000D02*
X178120000Y-93400000D01*
D11*
X181746190Y-97384761D02*
X181746190Y-99003809D01*
X181841428Y-99194285D01*
X181936666Y-99289523D01*
X182127142Y-99384761D01*
X182508095Y-99384761D01*
X182698571Y-99289523D01*
X182793809Y-99194285D01*
X182889047Y-99003809D01*
X182889047Y-97384761D01*
X183746190Y-99289523D02*
X184031904Y-99384761D01*
X184508095Y-99384761D01*
X184698571Y-99289523D01*
X184793809Y-99194285D01*
X184889047Y-99003809D01*
X184889047Y-98813333D01*
X184793809Y-98622857D01*
X184698571Y-98527619D01*
X184508095Y-98432380D01*
X184127142Y-98337142D01*
X183936666Y-98241904D01*
X183841428Y-98146666D01*
X183746190Y-97956190D01*
X183746190Y-97765714D01*
X183841428Y-97575238D01*
X183936666Y-97480000D01*
X184127142Y-97384761D01*
X184603333Y-97384761D01*
X184889047Y-97480000D01*
X186412857Y-98337142D02*
X186698571Y-98432380D01*
X186793809Y-98527619D01*
X186889047Y-98718095D01*
X186889047Y-99003809D01*
X186793809Y-99194285D01*
X186698571Y-99289523D01*
X186508095Y-99384761D01*
X185746190Y-99384761D01*
X185746190Y-97384761D01*
X186412857Y-97384761D01*
X186603333Y-97480000D01*
X186698571Y-97575238D01*
X186793809Y-97765714D01*
X186793809Y-97956190D01*
X186698571Y-98146666D01*
X186603333Y-98241904D01*
X186412857Y-98337142D01*
X185746190Y-98337142D01*
D12*
%TO.C,J2*%
X181530666Y-80224380D02*
X181530666Y-80938666D01*
X181483047Y-81081523D01*
X181387809Y-81176761D01*
X181244952Y-81224380D01*
X181149714Y-81224380D01*
X181959238Y-80319619D02*
X182006857Y-80272000D01*
X182102095Y-80224380D01*
X182340190Y-80224380D01*
X182435428Y-80272000D01*
X182483047Y-80319619D01*
X182530666Y-80414857D01*
X182530666Y-80510095D01*
X182483047Y-80652952D01*
X181911619Y-81224380D01*
X182530666Y-81224380D01*
%TO.C,J1*%
X181530666Y-64984380D02*
X181530666Y-65698666D01*
X181483047Y-65841523D01*
X181387809Y-65936761D01*
X181244952Y-65984380D01*
X181149714Y-65984380D01*
X182530666Y-65984380D02*
X181959238Y-65984380D01*
X182244952Y-65984380D02*
X182244952Y-64984380D01*
X182149714Y-65127238D01*
X182054476Y-65222476D01*
X181959238Y-65270095D01*
%TO.C,J4*%
X181657666Y-126071380D02*
X181657666Y-126785666D01*
X181610047Y-126928523D01*
X181514809Y-127023761D01*
X181371952Y-127071380D01*
X181276714Y-127071380D01*
X182562428Y-126404714D02*
X182562428Y-127071380D01*
X182324333Y-126023761D02*
X182086238Y-126738047D01*
X182705285Y-126738047D01*
%TO.C,BT1*%
X140474285Y-52478571D02*
X140617142Y-52526190D01*
X140664761Y-52573809D01*
X140712380Y-52669047D01*
X140712380Y-52811904D01*
X140664761Y-52907142D01*
X140617142Y-52954761D01*
X140521904Y-53002380D01*
X140140952Y-53002380D01*
X140140952Y-52002380D01*
X140474285Y-52002380D01*
X140569523Y-52050000D01*
X140617142Y-52097619D01*
X140664761Y-52192857D01*
X140664761Y-52288095D01*
X140617142Y-52383333D01*
X140569523Y-52430952D01*
X140474285Y-52478571D01*
X140140952Y-52478571D01*
X140998095Y-52002380D02*
X141569523Y-52002380D01*
X141283809Y-53002380D02*
X141283809Y-52002380D01*
X142426666Y-53002380D02*
X141855238Y-53002380D01*
X142140952Y-53002380D02*
X142140952Y-52002380D01*
X142045714Y-52145238D01*
X141950476Y-52240476D01*
X141855238Y-52288095D01*
%TO.C,J3*%
X181530666Y-115911380D02*
X181530666Y-116625666D01*
X181483047Y-116768523D01*
X181387809Y-116863761D01*
X181244952Y-116911380D01*
X181149714Y-116911380D01*
X181911619Y-115911380D02*
X182530666Y-115911380D01*
X182197333Y-116292333D01*
X182340190Y-116292333D01*
X182435428Y-116339952D01*
X182483047Y-116387571D01*
X182530666Y-116482809D01*
X182530666Y-116720904D01*
X182483047Y-116816142D01*
X182435428Y-116863761D01*
X182340190Y-116911380D01*
X182054476Y-116911380D01*
X181959238Y-116863761D01*
X181911619Y-116816142D01*
D13*
%TO.C,J2*%
X186870000Y-79490000D02*
X185540000Y-79490000D01*
X184270000Y-76830000D02*
X102930000Y-76830000D01*
X184270000Y-76830000D02*
X184270000Y-79490000D01*
X102930000Y-76830000D02*
X102930000Y-79490000D01*
X186870000Y-78160000D02*
X186870000Y-79490000D01*
X184270000Y-79490000D02*
X102930000Y-79490000D01*
%TO.C,J1*%
X185540000Y-66670000D02*
X186870000Y-66670000D01*
X184270000Y-69330000D02*
X102930000Y-69330000D01*
X184270000Y-66670000D02*
X184270000Y-69330000D01*
X186870000Y-66670000D02*
X186870000Y-68000000D01*
X102930000Y-66670000D02*
X102930000Y-69330000D01*
X184270000Y-66670000D02*
X102930000Y-66670000D01*
%TO.C,J4*%
X185540000Y-127630000D02*
X186870000Y-127630000D01*
X184270000Y-127630000D02*
X184270000Y-130290000D01*
X102930000Y-127630000D02*
X102930000Y-130290000D01*
X186870000Y-127630000D02*
X186870000Y-128960000D01*
X184270000Y-130290000D02*
X102930000Y-130290000D01*
X184270000Y-127630000D02*
X102930000Y-127630000D01*
%TO.C,BT1*%
X102730000Y-60880000D02*
X102730000Y-40220000D01*
X179790000Y-60880000D02*
X102730000Y-60880000D01*
D14*
X169260000Y-47550000D02*
X169260000Y-53550000D01*
D13*
X102730000Y-40220000D02*
X179790000Y-40220000D01*
X179790000Y-40220000D02*
X179790000Y-60880000D01*
D14*
X166260000Y-50550000D02*
X172260000Y-50550000D01*
D13*
%TO.C,J3*%
X184270000Y-117470000D02*
X184270000Y-120130000D01*
X186870000Y-120130000D02*
X185540000Y-120130000D01*
X102930000Y-117470000D02*
X102930000Y-120130000D01*
X184270000Y-117470000D02*
X102930000Y-117470000D01*
X186870000Y-118800000D02*
X186870000Y-120130000D01*
X184270000Y-120130000D02*
X102930000Y-120130000D01*
%TD*%
%LPC*%
D15*
%TO.C,J2*%
X185540000Y-78160000D03*
D16*
X183000000Y-78160000D03*
X180460000Y-78160000D03*
X177920000Y-78160000D03*
X175380000Y-78160000D03*
X172840000Y-78160000D03*
X170300000Y-78160000D03*
X167760000Y-78160000D03*
X165220000Y-78160000D03*
X162680000Y-78160000D03*
X160140000Y-78160000D03*
X157600000Y-78160000D03*
X155060000Y-78160000D03*
X152520000Y-78160000D03*
X149980000Y-78160000D03*
X147440000Y-78160000D03*
X144900000Y-78160000D03*
X142360000Y-78160000D03*
X139820000Y-78160000D03*
X137280000Y-78160000D03*
X134740000Y-78160000D03*
X132200000Y-78160000D03*
X129660000Y-78160000D03*
X127120000Y-78160000D03*
X124580000Y-78160000D03*
X122040000Y-78160000D03*
X119500000Y-78160000D03*
X116960000Y-78160000D03*
X114420000Y-78160000D03*
X111880000Y-78160000D03*
X109340000Y-78160000D03*
X106800000Y-78160000D03*
X104260000Y-78160000D03*
%TD*%
D15*
%TO.C,J1*%
X185540000Y-68000000D03*
D16*
X183000000Y-68000000D03*
X180460000Y-68000000D03*
X177920000Y-68000000D03*
X175380000Y-68000000D03*
X172840000Y-68000000D03*
X170300000Y-68000000D03*
X167760000Y-68000000D03*
X165220000Y-68000000D03*
X162680000Y-68000000D03*
X160140000Y-68000000D03*
X157600000Y-68000000D03*
X155060000Y-68000000D03*
X152520000Y-68000000D03*
X149980000Y-68000000D03*
X147440000Y-68000000D03*
X144900000Y-68000000D03*
X142360000Y-68000000D03*
X139820000Y-68000000D03*
X137280000Y-68000000D03*
X134740000Y-68000000D03*
X132200000Y-68000000D03*
X129660000Y-68000000D03*
X127120000Y-68000000D03*
X124580000Y-68000000D03*
X122040000Y-68000000D03*
X119500000Y-68000000D03*
X116960000Y-68000000D03*
X114420000Y-68000000D03*
X111880000Y-68000000D03*
X109340000Y-68000000D03*
X106800000Y-68000000D03*
X104260000Y-68000000D03*
%TD*%
D15*
%TO.C,J4*%
X185540000Y-128960000D03*
D16*
X183000000Y-128960000D03*
X180460000Y-128960000D03*
X177920000Y-128960000D03*
X175380000Y-128960000D03*
X172840000Y-128960000D03*
X170300000Y-128960000D03*
X167760000Y-128960000D03*
X165220000Y-128960000D03*
X162680000Y-128960000D03*
X160140000Y-128960000D03*
X157600000Y-128960000D03*
X155060000Y-128960000D03*
X152520000Y-128960000D03*
X149980000Y-128960000D03*
X147440000Y-128960000D03*
X144900000Y-128960000D03*
X142360000Y-128960000D03*
X139820000Y-128960000D03*
X137280000Y-128960000D03*
X134740000Y-128960000D03*
X132200000Y-128960000D03*
X129660000Y-128960000D03*
X127120000Y-128960000D03*
X124580000Y-128960000D03*
X122040000Y-128960000D03*
X119500000Y-128960000D03*
X116960000Y-128960000D03*
X114420000Y-128960000D03*
X111880000Y-128960000D03*
X109340000Y-128960000D03*
X106800000Y-128960000D03*
X104260000Y-128960000D03*
%TD*%
D17*
%TO.C,BT1*%
X177370000Y-50550000D03*
X105150000Y-50550000D03*
%TD*%
D15*
%TO.C,J3*%
X185540000Y-118800000D03*
D16*
X183000000Y-118800000D03*
X180460000Y-118800000D03*
X177920000Y-118800000D03*
X175380000Y-118800000D03*
X172840000Y-118800000D03*
X170300000Y-118800000D03*
X167760000Y-118800000D03*
X165220000Y-118800000D03*
X162680000Y-118800000D03*
X160140000Y-118800000D03*
X157600000Y-118800000D03*
X155060000Y-118800000D03*
X152520000Y-118800000D03*
X149980000Y-118800000D03*
X147440000Y-118800000D03*
X144900000Y-118800000D03*
X142360000Y-118800000D03*
X139820000Y-118800000D03*
X137280000Y-118800000D03*
X134740000Y-118800000D03*
X132200000Y-118800000D03*
X129660000Y-118800000D03*
X127120000Y-118800000D03*
X124580000Y-118800000D03*
X122040000Y-118800000D03*
X119500000Y-118800000D03*
X116960000Y-118800000D03*
X114420000Y-118800000D03*
X111880000Y-118800000D03*
X109340000Y-118800000D03*
X106800000Y-118800000D03*
X104260000Y-118800000D03*
%TD*%
D18*
%TO.C,U4*%
X96965000Y-97483200D03*
D19*
X94295000Y-96308200D03*
X94295000Y-103508200D03*
D18*
X96965000Y-102333200D03*
%TD*%
D20*
%TO.C,U1*%
X120396000Y-85852000D03*
D21*
X121666000Y-85852000D03*
X122936000Y-85852000D03*
%TD*%
M02*
