%TF.GenerationSoftware,KiCad,Pcbnew,(6.0.2-0)*%
%TF.CreationDate,2022-04-08T21:13:52+02:00*%
%TF.ProjectId,main,6d61696e-2e6b-4696-9361-645f70636258,rev?*%
%TF.SameCoordinates,Original*%
%TF.FileFunction,Paste,Bot*%
%TF.FilePolarity,Positive*%
%FSLAX46Y46*%
G04 Gerber Fmt 4.6, Leading zero omitted, Abs format (unit mm)*
G04 Created by KiCad (PCBNEW (6.0.2-0)) date 2022-04-08 21:13:52*
%MOMM*%
%LPD*%
G01*
G04 APERTURE LIST*
%ADD10C,0.650000*%
%ADD11R,0.600000X0.620000*%
%ADD12R,0.950000X0.900000*%
%ADD13R,0.900000X0.950000*%
%ADD14R,1.750000X0.950000*%
%ADD15R,1.750000X3.200000*%
%ADD16R,1.701000X1.208000*%
%ADD17R,1.050000X1.820000*%
%ADD18R,1.100000X1.700000*%
%ADD19R,1.525000X0.700000*%
%ADD20R,2.513000X3.402000*%
%ADD21R,1.400000X0.400000*%
%ADD22C,1.300000*%
%ADD23O,2.200000X1.300000*%
%ADD24R,0.806000X0.864000*%
%ADD25R,0.620000X0.600000*%
%ADD26R,1.820000X1.050000*%
%ADD27R,1.250000X0.600000*%
%ADD28R,1.750000X1.050000*%
%ADD29R,0.300000X0.800000*%
%ADD30R,0.800000X0.300000*%
%ADD31R,1.000000X0.300000*%
%ADD32R,0.300000X1.000000*%
%ADD33R,3.350000X3.350000*%
%ADD34R,1.900000X2.200000*%
%ADD35R,0.700000X1.525000*%
%ADD36R,3.402000X2.513000*%
%ADD37R,0.940000X0.730000*%
%ADD38R,0.864000X0.806000*%
%ADD39R,1.525000X0.650000*%
%ADD40R,0.900000X1.600000*%
%ADD41O,0.900000X1.600000*%
%ADD42R,1.200000X0.950000*%
%ADD43R,1.000000X1.250000*%
%ADD44R,0.730000X0.940000*%
G04 APERTURE END LIST*
%TO.C,R3*%
G36*
X100571000Y-68796000D02*
G01*
X100571000Y-69007000D01*
X100671000Y-69107000D01*
X101049000Y-69107000D01*
X101149000Y-69007000D01*
X101149000Y-68796000D01*
X101249000Y-68696000D01*
X101610000Y-68696000D01*
X101710000Y-68796000D01*
X101710000Y-69804000D01*
X101610000Y-69904000D01*
X100110000Y-69904000D01*
X100010000Y-69804000D01*
X100010000Y-68796000D01*
X100110000Y-68696000D01*
X100471000Y-68696000D01*
X100571000Y-68796000D01*
G37*
G36*
X101710000Y-65838000D02*
G01*
X101710000Y-66846000D01*
X101610000Y-66946000D01*
X101249000Y-66946000D01*
X101149000Y-66846000D01*
X101149000Y-66635000D01*
X101049000Y-66535000D01*
X100671000Y-66535000D01*
X100571000Y-66635000D01*
X100571000Y-66846000D01*
X100471000Y-66946000D01*
X100110000Y-66946000D01*
X100010000Y-66846000D01*
X100010000Y-65838000D01*
X100110000Y-65738000D01*
X101610000Y-65738000D01*
X101710000Y-65838000D01*
G37*
D10*
%TO.C,U4*%
X97290000Y-97483200D02*
G75*
G03*
X97290000Y-97483200I-325000J0D01*
G01*
X97290000Y-102333200D02*
G75*
G03*
X97290000Y-102333200I-325000J0D01*
G01*
G36*
X98037000Y-100108200D02*
G01*
X96637000Y-100108200D01*
X96637000Y-99708200D01*
X98037000Y-99708200D01*
X98037000Y-100108200D01*
G37*
G36*
X98037000Y-100758200D02*
G01*
X96637000Y-100758200D01*
X96637000Y-100358200D01*
X98037000Y-100358200D01*
X98037000Y-100758200D01*
G37*
G36*
X98037000Y-98808200D02*
G01*
X96637000Y-98808200D01*
X96637000Y-98408200D01*
X98037000Y-98408200D01*
X98037000Y-98808200D01*
G37*
G36*
X98037000Y-101408200D02*
G01*
X96637000Y-101408200D01*
X96637000Y-101008200D01*
X98037000Y-101008200D01*
X98037000Y-101408200D01*
G37*
G36*
X98037000Y-99458200D02*
G01*
X96637000Y-99458200D01*
X96637000Y-99058200D01*
X98037000Y-99058200D01*
X98037000Y-99458200D01*
G37*
%TO.C,R14*%
G36*
X134011000Y-103486000D02*
G01*
X134011000Y-103728000D01*
X133631000Y-103728000D01*
X133631000Y-104058000D01*
X134011000Y-104058000D01*
X134011000Y-104286000D01*
X133961000Y-104336000D01*
X133171000Y-104336000D01*
X133121000Y-104286000D01*
X133121000Y-103486000D01*
X133171000Y-103436000D01*
X133961000Y-103436000D01*
X134011000Y-103486000D01*
G37*
G36*
X135611000Y-103486000D02*
G01*
X135611000Y-104286000D01*
X135561000Y-104336000D01*
X134761000Y-104336000D01*
X134711000Y-104286000D01*
X134711000Y-104058000D01*
X135081000Y-104058000D01*
X135081000Y-103728000D01*
X134711000Y-103728000D01*
X134711000Y-103486000D01*
X134761000Y-103436000D01*
X135561000Y-103436000D01*
X135611000Y-103486000D01*
G37*
%TO.C,R4*%
G36*
X101710000Y-71396000D02*
G01*
X101710000Y-72404000D01*
X101610000Y-72504000D01*
X101249000Y-72504000D01*
X101149000Y-72404000D01*
X101149000Y-72193000D01*
X101049000Y-72093000D01*
X100671000Y-72093000D01*
X100571000Y-72193000D01*
X100571000Y-72404000D01*
X100471000Y-72504000D01*
X100110000Y-72504000D01*
X100010000Y-72404000D01*
X100010000Y-71396000D01*
X100110000Y-71296000D01*
X101610000Y-71296000D01*
X101710000Y-71396000D01*
G37*
G36*
X100571000Y-74354000D02*
G01*
X100571000Y-74565000D01*
X100671000Y-74665000D01*
X101049000Y-74665000D01*
X101149000Y-74565000D01*
X101149000Y-74354000D01*
X101249000Y-74254000D01*
X101610000Y-74254000D01*
X101710000Y-74354000D01*
X101710000Y-75362000D01*
X101610000Y-75462000D01*
X100110000Y-75462000D01*
X100010000Y-75362000D01*
X100010000Y-74354000D01*
X100110000Y-74254000D01*
X100471000Y-74254000D01*
X100571000Y-74354000D01*
G37*
%TO.C,R6*%
G36*
X92588000Y-65765000D02*
G01*
X92918000Y-65765000D01*
X92918000Y-65395000D01*
X93160000Y-65395000D01*
X93210000Y-65445000D01*
X93210000Y-66245000D01*
X93160000Y-66295000D01*
X92360000Y-66295000D01*
X92310000Y-66245000D01*
X92310000Y-65445000D01*
X92360000Y-65395000D01*
X92588000Y-65395000D01*
X92588000Y-65765000D01*
G37*
G36*
X93210000Y-63855000D02*
G01*
X93210000Y-64645000D01*
X93160000Y-64695000D01*
X92918000Y-64695000D01*
X92918000Y-64315000D01*
X92588000Y-64315000D01*
X92588000Y-64695000D01*
X92360000Y-64695000D01*
X92310000Y-64645000D01*
X92310000Y-63855000D01*
X92360000Y-63805000D01*
X93160000Y-63805000D01*
X93210000Y-63855000D01*
G37*
%TO.C,R15*%
G36*
X135611000Y-105899000D02*
G01*
X135611000Y-106699000D01*
X135561000Y-106749000D01*
X134761000Y-106749000D01*
X134711000Y-106699000D01*
X134711000Y-106471000D01*
X135081000Y-106471000D01*
X135081000Y-106141000D01*
X134711000Y-106141000D01*
X134711000Y-105899000D01*
X134761000Y-105849000D01*
X135561000Y-105849000D01*
X135611000Y-105899000D01*
G37*
G36*
X134011000Y-105899000D02*
G01*
X134011000Y-106141000D01*
X133631000Y-106141000D01*
X133631000Y-106471000D01*
X134011000Y-106471000D01*
X134011000Y-106699000D01*
X133961000Y-106749000D01*
X133171000Y-106749000D01*
X133121000Y-106699000D01*
X133121000Y-105899000D01*
X133171000Y-105849000D01*
X133961000Y-105849000D01*
X134011000Y-105899000D01*
G37*
%TD*%
D11*
%TO.C,C10*%
X139017000Y-93218000D03*
X138097000Y-93218000D03*
%TD*%
D12*
%TO.C,R13*%
X123260000Y-96300000D03*
X123260000Y-94700000D03*
%TD*%
D13*
%TO.C,R11*%
X107060000Y-99050000D03*
X105460000Y-99050000D03*
%TD*%
D14*
%TO.C,IC4*%
X94442400Y-55929400D03*
X94442400Y-53629400D03*
X94442400Y-51329400D03*
D15*
X100742400Y-53629400D03*
%TD*%
D16*
%TO.C,R3*%
X100860000Y-66342000D03*
X100860000Y-69300000D03*
%TD*%
D17*
%TO.C,C4*%
X100474400Y-40040400D03*
X97694400Y-40040400D03*
%TD*%
%TO.C,C8*%
X101650000Y-59496800D03*
X98870000Y-59496800D03*
%TD*%
D18*
%TO.C,D6*%
X105910000Y-106350000D03*
X109310000Y-106350000D03*
%TD*%
D19*
%TO.C,IC3*%
X108198000Y-47305000D03*
X108198000Y-46035000D03*
X108198000Y-44765000D03*
X108198000Y-43495000D03*
X113622000Y-43495000D03*
X113622000Y-44765000D03*
X113622000Y-46035000D03*
X113622000Y-47305000D03*
D20*
X110910000Y-45400000D03*
%TD*%
D21*
%TO.C,U4*%
X97337000Y-101208200D03*
X97337000Y-100558200D03*
X97337000Y-99908200D03*
X97337000Y-99258200D03*
X97337000Y-98608200D03*
D22*
X96965000Y-97483200D03*
D23*
X94295000Y-96308200D03*
X94295000Y-103508200D03*
D22*
X96965000Y-102333200D03*
%TD*%
D13*
%TO.C,D1*%
X117158000Y-62798800D03*
X118658000Y-62798800D03*
%TD*%
D24*
%TO.C,R14*%
X133613000Y-103886000D03*
X135119000Y-103886000D03*
%TD*%
D18*
%TO.C,D4*%
X107010000Y-92100000D03*
X103610000Y-92100000D03*
%TD*%
D25*
%TO.C,C12*%
X116410000Y-101350000D03*
X116410000Y-102270000D03*
%TD*%
D26*
%TO.C,C3*%
X93260000Y-58660000D03*
X93260000Y-61440000D03*
%TD*%
D12*
%TO.C,D8*%
X120660000Y-96100000D03*
X120660000Y-94600000D03*
%TD*%
D27*
%TO.C,Q1*%
X94776000Y-37653000D03*
X94776000Y-39563000D03*
X92676000Y-38608000D03*
%TD*%
D18*
%TO.C,D5*%
X110760000Y-102800000D03*
X107360000Y-102800000D03*
%TD*%
D28*
%TO.C,R5*%
X95810000Y-58550000D03*
X95810000Y-61450000D03*
%TD*%
D29*
%TO.C,U2*%
X108716000Y-81550000D03*
X109216000Y-81550000D03*
D30*
X109916000Y-82050000D03*
X109916000Y-82550000D03*
X109916000Y-83050000D03*
D29*
X109216000Y-83550000D03*
X108716000Y-83550000D03*
D30*
X108016000Y-83050000D03*
X108016000Y-82550000D03*
X108016000Y-82050000D03*
%TD*%
D31*
%TO.C,IC5*%
X120618200Y-103618000D03*
X120618200Y-103118000D03*
X120618200Y-102618000D03*
X120618200Y-102118000D03*
X120618200Y-101618000D03*
X120618200Y-101118000D03*
X120618200Y-100618000D03*
D32*
X121518200Y-99718000D03*
X122018200Y-99718000D03*
X122518200Y-99718000D03*
X123018200Y-99718000D03*
X123518200Y-99718000D03*
X124018200Y-99718000D03*
X124518200Y-99718000D03*
D31*
X125418200Y-100618000D03*
X125418200Y-101118000D03*
X125418200Y-101618000D03*
X125418200Y-102118000D03*
X125418200Y-102618000D03*
X125418200Y-103118000D03*
X125418200Y-103618000D03*
D32*
X124518200Y-104518000D03*
X124018200Y-104518000D03*
X123518200Y-104518000D03*
X123018200Y-104518000D03*
X122518200Y-104518000D03*
X122018200Y-104518000D03*
X121518200Y-104518000D03*
D33*
X123018200Y-102118000D03*
%TD*%
D11*
%TO.C,C5*%
X96710000Y-65250000D03*
X95790000Y-65250000D03*
%TD*%
D34*
%TO.C,L1*%
X92610000Y-83050000D03*
X96510000Y-83050000D03*
%TD*%
D16*
%TO.C,R4*%
X100860000Y-71900000D03*
X100860000Y-74858000D03*
%TD*%
D35*
%TO.C,IC2*%
X96415000Y-74512000D03*
X95145000Y-74512000D03*
X93875000Y-74512000D03*
X92605000Y-74512000D03*
X92605000Y-69088000D03*
X93875000Y-69088000D03*
X95145000Y-69088000D03*
X96415000Y-69088000D03*
D36*
X94510000Y-71800000D03*
%TD*%
D37*
%TO.C,C6*%
X141859000Y-93166000D03*
X141859000Y-91746000D03*
%TD*%
D38*
%TO.C,R6*%
X92760000Y-64297000D03*
X92760000Y-65803000D03*
%TD*%
D39*
%TO.C,IC1*%
X100502000Y-44069000D03*
X100502000Y-45339000D03*
X100502000Y-46609000D03*
X100502000Y-47879000D03*
X95078000Y-47879000D03*
X95078000Y-46609000D03*
X95078000Y-45339000D03*
X95078000Y-44069000D03*
%TD*%
D40*
%TO.C,U1*%
X120396000Y-85852000D03*
D41*
X121666000Y-85852000D03*
X122936000Y-85852000D03*
%TD*%
D39*
%TO.C,U3*%
X144444000Y-95631000D03*
X144444000Y-96901000D03*
X144444000Y-98171000D03*
X144444000Y-99441000D03*
X139020000Y-99441000D03*
X139020000Y-98171000D03*
X139020000Y-96901000D03*
X139020000Y-95631000D03*
%TD*%
D42*
%TO.C,D3*%
X95800000Y-35500000D03*
X99200000Y-35500000D03*
%TD*%
D12*
%TO.C,R7*%
X104660000Y-46100000D03*
X104660000Y-44500000D03*
%TD*%
D13*
%TO.C,D7*%
X100260000Y-98800000D03*
X101760000Y-98800000D03*
%TD*%
D17*
%TO.C,C7*%
X101650000Y-63611600D03*
X98870000Y-63611600D03*
%TD*%
%TO.C,C1*%
X92480000Y-78300000D03*
X95260000Y-78300000D03*
%TD*%
D13*
%TO.C,C9*%
X122053000Y-82331400D03*
X120453000Y-82331400D03*
%TD*%
%TO.C,R1*%
X122339400Y-62798800D03*
X120739400Y-62798800D03*
%TD*%
D43*
%TO.C,D2*%
X113805200Y-62773400D03*
X111605200Y-62773400D03*
%TD*%
D17*
%TO.C,C2*%
X108410000Y-40700000D03*
X105630000Y-40700000D03*
%TD*%
D13*
%TO.C,R12*%
X122960000Y-91800000D03*
X121360000Y-91800000D03*
%TD*%
D24*
%TO.C,R15*%
X133613000Y-106299000D03*
X135119000Y-106299000D03*
%TD*%
D13*
%TO.C,R2*%
X106960000Y-62824200D03*
X108560000Y-62824200D03*
%TD*%
D44*
%TO.C,C11*%
X105468000Y-96606200D03*
X106888000Y-96606200D03*
%TD*%
D11*
%TO.C,C13*%
X105947800Y-94726600D03*
X106867800Y-94726600D03*
%TD*%
M02*
