%TF.GenerationSoftware,KiCad,Pcbnew,(6.0.2-0)*%
%TF.CreationDate,2022-03-20T10:30:07+02:00*%
%TF.ProjectId,main,6d61696e-2e6b-4696-9361-645f70636258,rev?*%
%TF.SameCoordinates,Original*%
%TF.FileFunction,Paste,Bot*%
%TF.FilePolarity,Positive*%
%FSLAX46Y46*%
G04 Gerber Fmt 4.6, Leading zero omitted, Abs format (unit mm)*
G04 Created by KiCad (PCBNEW (6.0.2-0)) date 2022-03-20 10:30:07*
%MOMM*%
%LPD*%
G01*
G04 APERTURE LIST*
%ADD10C,0.650000*%
%ADD11R,0.650000X1.525000*%
%ADD12R,0.950000X0.900000*%
%ADD13R,0.900000X0.950000*%
%ADD14R,1.750000X0.950000*%
%ADD15R,1.750000X3.200000*%
%ADD16R,0.864000X0.806000*%
%ADD17R,1.701000X1.208000*%
%ADD18R,1.050000X1.820000*%
%ADD19R,1.100000X1.700000*%
%ADD20R,1.525000X0.700000*%
%ADD21R,2.513000X3.402000*%
%ADD22R,1.400000X0.400000*%
%ADD23C,1.300000*%
%ADD24O,2.200000X1.300000*%
%ADD25R,0.620000X0.600000*%
%ADD26R,1.820000X1.050000*%
%ADD27R,1.750000X1.050000*%
%ADD28R,1.000000X0.300000*%
%ADD29R,0.300000X1.000000*%
%ADD30R,3.350000X3.350000*%
%ADD31R,0.600000X0.620000*%
%ADD32R,0.900000X1.600000*%
%ADD33O,0.900000X1.600000*%
%ADD34R,1.900000X2.200000*%
%ADD35R,0.700000X1.525000*%
%ADD36R,3.402000X2.513000*%
%ADD37R,1.450000X1.000000*%
%ADD38R,1.525000X0.650000*%
%ADD39R,0.300000X0.800000*%
%ADD40R,0.800000X0.300000*%
%ADD41R,0.940000X0.730000*%
%ADD42R,1.000000X1.250000*%
%ADD43R,1.000000X1.450000*%
%ADD44R,1.200000X0.600000*%
%ADD45R,0.730000X0.940000*%
G04 APERTURE END LIST*
%TO.C,R10*%
G36*
X162046400Y-106738200D02*
G01*
X162376400Y-106738200D01*
X162376400Y-106358200D01*
X162604400Y-106358200D01*
X162654400Y-106408200D01*
X162654400Y-107198200D01*
X162604400Y-107248200D01*
X161804400Y-107248200D01*
X161754400Y-107198200D01*
X161754400Y-106408200D01*
X161804400Y-106358200D01*
X162046400Y-106358200D01*
X162046400Y-106738200D01*
G37*
G36*
X162654400Y-104808200D02*
G01*
X162654400Y-105608200D01*
X162604400Y-105658200D01*
X162376400Y-105658200D01*
X162376400Y-105288200D01*
X162046400Y-105288200D01*
X162046400Y-105658200D01*
X161804400Y-105658200D01*
X161754400Y-105608200D01*
X161754400Y-104808200D01*
X161804400Y-104758200D01*
X162604400Y-104758200D01*
X162654400Y-104808200D01*
G37*
%TO.C,R3*%
G36*
X100311000Y-66246000D02*
G01*
X100311000Y-66457000D01*
X100411000Y-66557000D01*
X100789000Y-66557000D01*
X100889000Y-66457000D01*
X100889000Y-66246000D01*
X100989000Y-66146000D01*
X101350000Y-66146000D01*
X101450000Y-66246000D01*
X101450000Y-67254000D01*
X101350000Y-67354000D01*
X99850000Y-67354000D01*
X99750000Y-67254000D01*
X99750000Y-66246000D01*
X99850000Y-66146000D01*
X100211000Y-66146000D01*
X100311000Y-66246000D01*
G37*
G36*
X101450000Y-63288000D02*
G01*
X101450000Y-64296000D01*
X101350000Y-64396000D01*
X100989000Y-64396000D01*
X100889000Y-64296000D01*
X100889000Y-64085000D01*
X100789000Y-63985000D01*
X100411000Y-63985000D01*
X100311000Y-64085000D01*
X100311000Y-64296000D01*
X100211000Y-64396000D01*
X99850000Y-64396000D01*
X99750000Y-64296000D01*
X99750000Y-63288000D01*
X99850000Y-63188000D01*
X101350000Y-63188000D01*
X101450000Y-63288000D01*
G37*
D10*
%TO.C,U4*%
X97030000Y-99783200D02*
G75*
G03*
X97030000Y-99783200I-325000J0D01*
G01*
X97030000Y-94933200D02*
G75*
G03*
X97030000Y-94933200I-325000J0D01*
G01*
G36*
X97777000Y-98858200D02*
G01*
X96377000Y-98858200D01*
X96377000Y-98458200D01*
X97777000Y-98458200D01*
X97777000Y-98858200D01*
G37*
G36*
X97777000Y-96258200D02*
G01*
X96377000Y-96258200D01*
X96377000Y-95858200D01*
X97777000Y-95858200D01*
X97777000Y-96258200D01*
G37*
G36*
X97777000Y-97558200D02*
G01*
X96377000Y-97558200D01*
X96377000Y-97158200D01*
X97777000Y-97158200D01*
X97777000Y-97558200D01*
G37*
G36*
X97777000Y-98208200D02*
G01*
X96377000Y-98208200D01*
X96377000Y-97808200D01*
X97777000Y-97808200D01*
X97777000Y-98208200D01*
G37*
G36*
X97777000Y-96908200D02*
G01*
X96377000Y-96908200D01*
X96377000Y-96508200D01*
X97777000Y-96508200D01*
X97777000Y-96908200D01*
G37*
%TO.C,R4*%
G36*
X101450000Y-68846000D02*
G01*
X101450000Y-69854000D01*
X101350000Y-69954000D01*
X100989000Y-69954000D01*
X100889000Y-69854000D01*
X100889000Y-69643000D01*
X100789000Y-69543000D01*
X100411000Y-69543000D01*
X100311000Y-69643000D01*
X100311000Y-69854000D01*
X100211000Y-69954000D01*
X99850000Y-69954000D01*
X99750000Y-69854000D01*
X99750000Y-68846000D01*
X99850000Y-68746000D01*
X101350000Y-68746000D01*
X101450000Y-68846000D01*
G37*
G36*
X100311000Y-71804000D02*
G01*
X100311000Y-72015000D01*
X100411000Y-72115000D01*
X100789000Y-72115000D01*
X100889000Y-72015000D01*
X100889000Y-71804000D01*
X100989000Y-71704000D01*
X101350000Y-71704000D01*
X101450000Y-71804000D01*
X101450000Y-72812000D01*
X101350000Y-72912000D01*
X99850000Y-72912000D01*
X99750000Y-72812000D01*
X99750000Y-71804000D01*
X99850000Y-71704000D01*
X100211000Y-71704000D01*
X100311000Y-71804000D01*
G37*
%TD*%
D11*
%TO.C,U3*%
X165735000Y-105517400D03*
X167005000Y-105517400D03*
X168275000Y-105517400D03*
X169545000Y-105517400D03*
X169545000Y-110941400D03*
X168275000Y-110941400D03*
X167005000Y-110941400D03*
X165735000Y-110941400D03*
%TD*%
D12*
%TO.C,R13*%
X123000000Y-93750000D03*
X123000000Y-92150000D03*
%TD*%
D13*
%TO.C,R11*%
X106800000Y-96500000D03*
X105200000Y-96500000D03*
%TD*%
D14*
%TO.C,IC4*%
X94182400Y-53379400D03*
X94182400Y-51079400D03*
X94182400Y-48779400D03*
D15*
X100482400Y-51079400D03*
%TD*%
D16*
%TO.C,R10*%
X162204400Y-106756200D03*
X162204400Y-105250200D03*
%TD*%
D17*
%TO.C,R3*%
X100600000Y-63792000D03*
X100600000Y-66750000D03*
%TD*%
D18*
%TO.C,C4*%
X100214400Y-37490400D03*
X97434400Y-37490400D03*
%TD*%
%TO.C,C8*%
X101390000Y-56946800D03*
X98610000Y-56946800D03*
%TD*%
D19*
%TO.C,D6*%
X105650000Y-103800000D03*
X109050000Y-103800000D03*
%TD*%
D20*
%TO.C,IC3*%
X107938000Y-44755000D03*
X107938000Y-43485000D03*
X107938000Y-42215000D03*
X107938000Y-40945000D03*
X113362000Y-40945000D03*
X113362000Y-42215000D03*
X113362000Y-43485000D03*
X113362000Y-44755000D03*
D21*
X110650000Y-42850000D03*
%TD*%
D22*
%TO.C,U4*%
X97077000Y-98658200D03*
X97077000Y-98008200D03*
X97077000Y-97358200D03*
X97077000Y-96708200D03*
X97077000Y-96058200D03*
D23*
X96705000Y-94933200D03*
D24*
X94035000Y-93758200D03*
X94035000Y-100958200D03*
D23*
X96705000Y-99783200D03*
%TD*%
D12*
%TO.C,R8*%
X159054800Y-109258200D03*
X159054800Y-110858200D03*
%TD*%
D13*
%TO.C,D1*%
X116898000Y-60248800D03*
X118398000Y-60248800D03*
%TD*%
D19*
%TO.C,D4*%
X106750000Y-89550000D03*
X103350000Y-89550000D03*
%TD*%
D25*
%TO.C,C12*%
X116150000Y-98800000D03*
X116150000Y-99720000D03*
%TD*%
D26*
%TO.C,C3*%
X93000000Y-56110000D03*
X93000000Y-58890000D03*
%TD*%
D12*
%TO.C,D8*%
X120400000Y-93550000D03*
X120400000Y-92050000D03*
%TD*%
D19*
%TO.C,D5*%
X110500000Y-100250000D03*
X107100000Y-100250000D03*
%TD*%
D27*
%TO.C,R5*%
X95550000Y-56000000D03*
X95550000Y-58900000D03*
%TD*%
D28*
%TO.C,IC5*%
X120358200Y-101068000D03*
X120358200Y-100568000D03*
X120358200Y-100068000D03*
X120358200Y-99568000D03*
X120358200Y-99068000D03*
X120358200Y-98568000D03*
X120358200Y-98068000D03*
D29*
X121258200Y-97168000D03*
X121758200Y-97168000D03*
X122258200Y-97168000D03*
X122758200Y-97168000D03*
X123258200Y-97168000D03*
X123758200Y-97168000D03*
X124258200Y-97168000D03*
D28*
X125158200Y-98068000D03*
X125158200Y-98568000D03*
X125158200Y-99068000D03*
X125158200Y-99568000D03*
X125158200Y-100068000D03*
X125158200Y-100568000D03*
X125158200Y-101068000D03*
D29*
X124258200Y-101968000D03*
X123758200Y-101968000D03*
X123258200Y-101968000D03*
X122758200Y-101968000D03*
X122258200Y-101968000D03*
X121758200Y-101968000D03*
X121258200Y-101968000D03*
D30*
X122758200Y-99568000D03*
%TD*%
D31*
%TO.C,C5*%
X96450000Y-62700000D03*
X95530000Y-62700000D03*
%TD*%
D12*
%TO.C,R9*%
X162179000Y-110769400D03*
X162179000Y-109169400D03*
%TD*%
D32*
%TO.C,U1*%
X120142000Y-83341690D03*
D33*
X121412000Y-83341690D03*
X122682000Y-83341690D03*
%TD*%
D34*
%TO.C,L1*%
X92350000Y-80500000D03*
X96250000Y-80500000D03*
%TD*%
D17*
%TO.C,R4*%
X100600000Y-69350000D03*
X100600000Y-72308000D03*
%TD*%
D35*
%TO.C,IC2*%
X96155000Y-71962000D03*
X94885000Y-71962000D03*
X93615000Y-71962000D03*
X92345000Y-71962000D03*
X92345000Y-66538000D03*
X93615000Y-66538000D03*
X94885000Y-66538000D03*
X96155000Y-66538000D03*
D36*
X94250000Y-69250000D03*
%TD*%
D37*
%TO.C,R6*%
X92500000Y-61550000D03*
X92500000Y-63450000D03*
%TD*%
D38*
%TO.C,IC1*%
X100121000Y-41529000D03*
X100121000Y-42799000D03*
X100121000Y-44069000D03*
X100121000Y-45339000D03*
X94697000Y-45339000D03*
X94697000Y-44069000D03*
X94697000Y-42799000D03*
X94697000Y-41529000D03*
%TD*%
D39*
%TO.C,U2*%
X107776200Y-79187800D03*
X108276200Y-79187800D03*
D40*
X108976200Y-79687800D03*
X108976200Y-80187800D03*
X108976200Y-80687800D03*
D39*
X108276200Y-81187800D03*
X107776200Y-81187800D03*
D40*
X107076200Y-80687800D03*
X107076200Y-80187800D03*
X107076200Y-79687800D03*
%TD*%
D41*
%TO.C,C6*%
X152857200Y-109499400D03*
X152857200Y-110919400D03*
%TD*%
D25*
%TO.C,C10*%
X156210000Y-109372400D03*
X156210000Y-110292400D03*
%TD*%
D12*
%TO.C,R7*%
X104400000Y-43550000D03*
X104400000Y-41950000D03*
%TD*%
D13*
%TO.C,D7*%
X100000000Y-96250000D03*
X101500000Y-96250000D03*
%TD*%
D18*
%TO.C,C7*%
X101390000Y-61061600D03*
X98610000Y-61061600D03*
%TD*%
%TO.C,C1*%
X92220000Y-75750000D03*
X95000000Y-75750000D03*
%TD*%
D13*
%TO.C,C9*%
X121793000Y-79781400D03*
X120193000Y-79781400D03*
%TD*%
%TO.C,R1*%
X122079400Y-60248800D03*
X120479400Y-60248800D03*
%TD*%
D42*
%TO.C,D2*%
X113545200Y-60223400D03*
X111345200Y-60223400D03*
%TD*%
D18*
%TO.C,C2*%
X108150000Y-38150000D03*
X105370000Y-38150000D03*
%TD*%
D43*
%TO.C,R12*%
X122850000Y-89250000D03*
X120950000Y-89250000D03*
%TD*%
D44*
%TO.C,Q1*%
X94750000Y-36550000D03*
X94750000Y-38450000D03*
X92250000Y-37500000D03*
%TD*%
D13*
%TO.C,R2*%
X106700000Y-60274200D03*
X108300000Y-60274200D03*
%TD*%
D45*
%TO.C,C11*%
X105208000Y-94056200D03*
X106628000Y-94056200D03*
%TD*%
D31*
%TO.C,C13*%
X105687800Y-92176600D03*
X106607800Y-92176600D03*
%TD*%
M02*
