M48
; DRILL file {KiCad (6.0.2-0)} date Friday, 08 April 2022 at 21:13:55
; FORMAT={-:-/ absolute / metric / decimal}
; #@! TF.CreationDate,2022-04-08T21:13:55+02:00
; #@! TF.GenerationSoftware,Kicad,Pcbnew,(6.0.2-0)
; #@! TF.FileFunction,Plated,1,2,PTH
FMAT,2
METRIC
; #@! TA.AperFunction,Plated,PTH,ViaDrill
T1C0.400
; #@! TA.AperFunction,Plated,PTH,ComponentDrill
T2C0.700
; #@! TA.AperFunction,Plated,PTH,ComponentDrill
T3C0.762
; #@! TA.AperFunction,Plated,PTH,ComponentDrill
T4C0.800
; #@! TA.AperFunction,Plated,PTH,ComponentDrill
T5C1.000
%
G90
G05
T1
X92.61Y-67.25
X92.81Y-49.2
X93.21Y-42.65
X93.21Y-62.75
X93.3Y-35.7
X95.76Y-63.4
X98.41Y-65.9
X99.56Y-42.3
X99.96Y-103.5
X101.81Y-49.3
X102.81Y-81.95
X102.91Y-104.75
X103.31Y-63.6
X103.96Y-80.75
X104.46Y-83.4
X109.21Y-97.15
X111.252Y-82.55
X112.16Y-39.65
X115.16Y-39.65
X116.06Y-104.75
X117.36Y-100.35
X118.16Y-102.65
X118.872Y-83.82
X119.11Y-104.3
X121.86Y-107.2
X122.11Y-97.5
X124.841Y-83.82
X126.21Y-113.5
X137.033Y-98.171
X137.795Y-106.045
T2
X96.965Y-97.483
X96.965Y-102.333
T3
X105.15Y-50.55
X177.37Y-50.55
T4
X120.396Y-85.852
X121.666Y-85.852
X122.936Y-85.852
T5
X104.26Y-68.0
X104.26Y-78.16
X104.26Y-118.8
X104.26Y-128.96
X106.8Y-68.0
X106.8Y-78.16
X106.8Y-118.8
X106.8Y-128.96
X109.34Y-68.0
X109.34Y-78.16
X109.34Y-118.8
X109.34Y-128.96
X111.88Y-68.0
X111.88Y-78.16
X111.88Y-118.8
X111.88Y-128.96
X114.42Y-68.0
X114.42Y-78.16
X114.42Y-118.8
X114.42Y-128.96
X116.96Y-68.0
X116.96Y-78.16
X116.96Y-118.8
X116.96Y-128.96
X119.5Y-68.0
X119.5Y-78.16
X119.5Y-118.8
X119.5Y-128.96
X122.04Y-68.0
X122.04Y-78.16
X122.04Y-118.8
X122.04Y-128.96
X124.58Y-68.0
X124.58Y-78.16
X124.58Y-118.8
X124.58Y-128.96
X127.12Y-68.0
X127.12Y-78.16
X127.12Y-118.8
X127.12Y-128.96
X129.66Y-68.0
X129.66Y-78.16
X129.66Y-118.8
X129.66Y-128.96
X132.2Y-68.0
X132.2Y-78.16
X132.2Y-118.8
X132.2Y-128.96
X134.74Y-68.0
X134.74Y-78.16
X134.74Y-118.8
X134.74Y-128.96
X137.28Y-68.0
X137.28Y-78.16
X137.28Y-118.8
X137.28Y-128.96
X139.82Y-68.0
X139.82Y-78.16
X139.82Y-118.8
X139.82Y-128.96
X142.36Y-68.0
X142.36Y-78.16
X142.36Y-118.8
X142.36Y-128.96
X144.9Y-68.0
X144.9Y-78.16
X144.9Y-118.8
X144.9Y-128.96
X147.44Y-68.0
X147.44Y-78.16
X147.44Y-118.8
X147.44Y-128.96
X149.98Y-68.0
X149.98Y-78.16
X149.98Y-118.8
X149.98Y-128.96
X152.52Y-68.0
X152.52Y-78.16
X152.52Y-118.8
X152.52Y-128.96
X155.06Y-68.0
X155.06Y-78.16
X155.06Y-118.8
X155.06Y-128.96
X157.6Y-68.0
X157.6Y-78.16
X157.6Y-118.8
X157.6Y-128.96
X160.14Y-68.0
X160.14Y-78.16
X160.14Y-118.8
X160.14Y-128.96
X162.68Y-68.0
X162.68Y-78.16
X162.68Y-118.8
X162.68Y-128.96
X165.22Y-68.0
X165.22Y-78.16
X165.22Y-118.8
X165.22Y-128.96
X167.76Y-68.0
X167.76Y-78.16
X167.76Y-118.8
X167.76Y-128.96
X170.3Y-68.0
X170.3Y-78.16
X170.3Y-118.8
X170.3Y-128.96
X172.84Y-68.0
X172.84Y-78.16
X172.84Y-118.8
X172.84Y-128.96
X175.38Y-68.0
X175.38Y-78.16
X175.38Y-118.8
X175.38Y-128.96
X177.92Y-68.0
X177.92Y-78.16
X177.92Y-118.8
X177.92Y-128.96
X180.46Y-68.0
X180.46Y-78.16
X180.46Y-118.8
X180.46Y-128.96
X183.0Y-68.0
X183.0Y-78.16
X183.0Y-118.8
X183.0Y-128.96
X185.54Y-68.0
X185.54Y-78.16
X185.54Y-118.8
X185.54Y-128.96
T2
X93.895Y-96.308G85X94.695Y-96.308
G05
X93.895Y-103.508G85X94.695Y-103.508
G05
T0
M30
