%TF.GenerationSoftware,KiCad,Pcbnew,(6.0.2-0)*%
%TF.CreationDate,2022-04-11T13:22:43+02:00*%
%TF.ProjectId,main,6d61696e-2e6b-4696-9361-645f70636258,rev?*%
%TF.SameCoordinates,Original*%
%TF.FileFunction,Soldermask,Bot*%
%TF.FilePolarity,Negative*%
%FSLAX46Y46*%
G04 Gerber Fmt 4.6, Leading zero omitted, Abs format (unit mm)*
G04 Created by KiCad (PCBNEW (6.0.2-0)) date 2022-04-11 13:22:43*
%MOMM*%
%LPD*%
G01*
G04 APERTURE LIST*
%ADD10R,1.700000X1.700000*%
%ADD11O,1.700000X1.700000*%
%ADD12C,1.524000*%
%ADD13R,2.500000X2.500000*%
%ADD14R,0.600000X0.620000*%
%ADD15R,0.950000X0.900000*%
%ADD16R,0.900000X0.950000*%
%ADD17R,1.750000X0.950000*%
%ADD18R,1.750000X3.200000*%
%ADD19R,1.701000X1.208000*%
%ADD20R,1.050000X1.820000*%
%ADD21R,1.100000X1.700000*%
%ADD22R,1.525000X0.700000*%
%ADD23R,2.513000X3.402000*%
%ADD24R,1.400000X0.400000*%
%ADD25C,1.300000*%
%ADD26O,2.200000X1.300000*%
%ADD27R,0.806000X0.864000*%
%ADD28R,0.620000X0.600000*%
%ADD29R,1.820000X1.050000*%
%ADD30R,1.250000X0.600000*%
%ADD31R,1.750000X1.050000*%
%ADD32R,0.300000X0.800000*%
%ADD33R,0.800000X0.300000*%
%ADD34R,1.000000X0.300000*%
%ADD35R,0.300000X1.000000*%
%ADD36R,3.350000X3.350000*%
%ADD37R,1.900000X2.200000*%
%ADD38R,0.700000X1.525000*%
%ADD39R,3.402000X2.513000*%
%ADD40R,0.940000X0.730000*%
%ADD41R,0.864000X0.806000*%
%ADD42R,1.525000X0.650000*%
%ADD43R,0.900000X1.600000*%
%ADD44O,0.900000X1.600000*%
%ADD45R,1.200000X0.950000*%
%ADD46R,1.000000X1.250000*%
%ADD47R,0.730000X0.940000*%
G04 APERTURE END LIST*
D10*
%TO.C,J2*%
X185540000Y-78160000D03*
D11*
X183000000Y-78160000D03*
X180460000Y-78160000D03*
X177920000Y-78160000D03*
X175380000Y-78160000D03*
X172840000Y-78160000D03*
X170300000Y-78160000D03*
X167760000Y-78160000D03*
X165220000Y-78160000D03*
X162680000Y-78160000D03*
X160140000Y-78160000D03*
X157600000Y-78160000D03*
X155060000Y-78160000D03*
X152520000Y-78160000D03*
X149980000Y-78160000D03*
X147440000Y-78160000D03*
X144900000Y-78160000D03*
X142360000Y-78160000D03*
X139820000Y-78160000D03*
X137280000Y-78160000D03*
X134740000Y-78160000D03*
X132200000Y-78160000D03*
X129660000Y-78160000D03*
X127120000Y-78160000D03*
X124580000Y-78160000D03*
X122040000Y-78160000D03*
X119500000Y-78160000D03*
X116960000Y-78160000D03*
X114420000Y-78160000D03*
X111880000Y-78160000D03*
X109340000Y-78160000D03*
X106800000Y-78160000D03*
X104260000Y-78160000D03*
%TD*%
D10*
%TO.C,J1*%
X185540000Y-68000000D03*
D11*
X183000000Y-68000000D03*
X180460000Y-68000000D03*
X177920000Y-68000000D03*
X175380000Y-68000000D03*
X172840000Y-68000000D03*
X170300000Y-68000000D03*
X167760000Y-68000000D03*
X165220000Y-68000000D03*
X162680000Y-68000000D03*
X160140000Y-68000000D03*
X157600000Y-68000000D03*
X155060000Y-68000000D03*
X152520000Y-68000000D03*
X149980000Y-68000000D03*
X147440000Y-68000000D03*
X144900000Y-68000000D03*
X142360000Y-68000000D03*
X139820000Y-68000000D03*
X137280000Y-68000000D03*
X134740000Y-68000000D03*
X132200000Y-68000000D03*
X129660000Y-68000000D03*
X127120000Y-68000000D03*
X124580000Y-68000000D03*
X122040000Y-68000000D03*
X119500000Y-68000000D03*
X116960000Y-68000000D03*
X114420000Y-68000000D03*
X111880000Y-68000000D03*
X109340000Y-68000000D03*
X106800000Y-68000000D03*
X104260000Y-68000000D03*
%TD*%
D10*
%TO.C,J4*%
X185540000Y-128960000D03*
D11*
X183000000Y-128960000D03*
X180460000Y-128960000D03*
X177920000Y-128960000D03*
X175380000Y-128960000D03*
X172840000Y-128960000D03*
X170300000Y-128960000D03*
X167760000Y-128960000D03*
X165220000Y-128960000D03*
X162680000Y-128960000D03*
X160140000Y-128960000D03*
X157600000Y-128960000D03*
X155060000Y-128960000D03*
X152520000Y-128960000D03*
X149980000Y-128960000D03*
X147440000Y-128960000D03*
X144900000Y-128960000D03*
X142360000Y-128960000D03*
X139820000Y-128960000D03*
X137280000Y-128960000D03*
X134740000Y-128960000D03*
X132200000Y-128960000D03*
X129660000Y-128960000D03*
X127120000Y-128960000D03*
X124580000Y-128960000D03*
X122040000Y-128960000D03*
X119500000Y-128960000D03*
X116960000Y-128960000D03*
X114420000Y-128960000D03*
X111880000Y-128960000D03*
X109340000Y-128960000D03*
X106800000Y-128960000D03*
X104260000Y-128960000D03*
%TD*%
D12*
%TO.C,BT1*%
X177370000Y-50550000D03*
X105150000Y-50550000D03*
%TD*%
D10*
%TO.C,J3*%
X185540000Y-118800000D03*
D11*
X183000000Y-118800000D03*
X180460000Y-118800000D03*
X177920000Y-118800000D03*
X175380000Y-118800000D03*
X172840000Y-118800000D03*
X170300000Y-118800000D03*
X167760000Y-118800000D03*
X165220000Y-118800000D03*
X162680000Y-118800000D03*
X160140000Y-118800000D03*
X157600000Y-118800000D03*
X155060000Y-118800000D03*
X152520000Y-118800000D03*
X149980000Y-118800000D03*
X147440000Y-118800000D03*
X144900000Y-118800000D03*
X142360000Y-118800000D03*
X139820000Y-118800000D03*
X137280000Y-118800000D03*
X134740000Y-118800000D03*
X132200000Y-118800000D03*
X129660000Y-118800000D03*
X127120000Y-118800000D03*
X124580000Y-118800000D03*
X122040000Y-118800000D03*
X119500000Y-118800000D03*
X116960000Y-118800000D03*
X114420000Y-118800000D03*
X111880000Y-118800000D03*
X109340000Y-118800000D03*
X106800000Y-118800000D03*
X104260000Y-118800000D03*
%TD*%
D13*
%TO.C,TP12*%
X112776000Y-107823000D03*
%TD*%
D14*
%TO.C,C10*%
X139017000Y-93218000D03*
X138097000Y-93218000D03*
%TD*%
D15*
%TO.C,R13*%
X123260000Y-96300000D03*
X123260000Y-94700000D03*
%TD*%
D16*
%TO.C,R11*%
X107060000Y-99050000D03*
X105460000Y-99050000D03*
%TD*%
D17*
%TO.C,IC4*%
X94442400Y-55929400D03*
X94442400Y-53629400D03*
X94442400Y-51329400D03*
D18*
X100742400Y-53629400D03*
%TD*%
D19*
%TO.C,R3*%
X100860000Y-66342000D03*
X100860000Y-69300000D03*
%TD*%
D20*
%TO.C,C4*%
X100474400Y-40040400D03*
X97694400Y-40040400D03*
%TD*%
%TO.C,C8*%
X101650000Y-59496800D03*
X98870000Y-59496800D03*
%TD*%
D21*
%TO.C,D6*%
X105910000Y-106350000D03*
X109310000Y-106350000D03*
%TD*%
D13*
%TO.C,TP3*%
X171958000Y-114173000D03*
%TD*%
D22*
%TO.C,IC3*%
X108198000Y-47305000D03*
X108198000Y-46035000D03*
X108198000Y-44765000D03*
X108198000Y-43495000D03*
X113622000Y-43495000D03*
X113622000Y-44765000D03*
X113622000Y-46035000D03*
X113622000Y-47305000D03*
D23*
X110910000Y-45400000D03*
%TD*%
D24*
%TO.C,U4*%
X97337000Y-101208200D03*
X97337000Y-100558200D03*
X97337000Y-99908200D03*
X97337000Y-99258200D03*
X97337000Y-98608200D03*
D25*
X96965000Y-97483200D03*
D26*
X94295000Y-96308200D03*
X94295000Y-103508200D03*
D25*
X96965000Y-102333200D03*
%TD*%
D16*
%TO.C,D1*%
X117158000Y-62798800D03*
X118658000Y-62798800D03*
%TD*%
D13*
%TO.C,TP4*%
X159766000Y-115062000D03*
%TD*%
D27*
%TO.C,R14*%
X133613000Y-103886000D03*
X135119000Y-103886000D03*
%TD*%
D13*
%TO.C,TP13*%
X139065000Y-87503000D03*
%TD*%
D21*
%TO.C,D4*%
X107010000Y-92100000D03*
X103610000Y-92100000D03*
%TD*%
D28*
%TO.C,C12*%
X116410000Y-101350000D03*
X116410000Y-102270000D03*
%TD*%
D29*
%TO.C,C3*%
X93260000Y-58660000D03*
X93260000Y-61440000D03*
%TD*%
D15*
%TO.C,D8*%
X120660000Y-96100000D03*
X120660000Y-94600000D03*
%TD*%
D30*
%TO.C,Q1*%
X94776000Y-37653000D03*
X94776000Y-39563000D03*
X92676000Y-38608000D03*
%TD*%
D13*
%TO.C,TP9*%
X120142000Y-114427000D03*
%TD*%
D21*
%TO.C,D5*%
X110760000Y-102800000D03*
X107360000Y-102800000D03*
%TD*%
D13*
%TO.C,TP8*%
X132588000Y-114427000D03*
%TD*%
%TO.C,TP11*%
X117983000Y-107696000D03*
%TD*%
D31*
%TO.C,R5*%
X95810000Y-58550000D03*
X95810000Y-61450000D03*
%TD*%
D32*
%TO.C,U2*%
X108716000Y-81550000D03*
X109216000Y-81550000D03*
D33*
X109916000Y-82050000D03*
X109916000Y-82550000D03*
X109916000Y-83050000D03*
D32*
X109216000Y-83550000D03*
X108716000Y-83550000D03*
D33*
X108016000Y-83050000D03*
X108016000Y-82550000D03*
X108016000Y-82050000D03*
%TD*%
D34*
%TO.C,IC5*%
X120618200Y-103618000D03*
X120618200Y-103118000D03*
X120618200Y-102618000D03*
X120618200Y-102118000D03*
X120618200Y-101618000D03*
X120618200Y-101118000D03*
X120618200Y-100618000D03*
D35*
X121518200Y-99718000D03*
X122018200Y-99718000D03*
X122518200Y-99718000D03*
X123018200Y-99718000D03*
X123518200Y-99718000D03*
X124018200Y-99718000D03*
X124518200Y-99718000D03*
D34*
X125418200Y-100618000D03*
X125418200Y-101118000D03*
X125418200Y-101618000D03*
X125418200Y-102118000D03*
X125418200Y-102618000D03*
X125418200Y-103118000D03*
X125418200Y-103618000D03*
D35*
X124518200Y-104518000D03*
X124018200Y-104518000D03*
X123518200Y-104518000D03*
X123018200Y-104518000D03*
X122518200Y-104518000D03*
X122018200Y-104518000D03*
X121518200Y-104518000D03*
D36*
X123018200Y-102118000D03*
%TD*%
D14*
%TO.C,C5*%
X96710000Y-65250000D03*
X95790000Y-65250000D03*
%TD*%
D13*
%TO.C,TP10*%
X184150000Y-61976000D03*
%TD*%
%TO.C,TP5*%
X127508000Y-64008000D03*
%TD*%
D37*
%TO.C,L1*%
X92610000Y-83050000D03*
X96510000Y-83050000D03*
%TD*%
D19*
%TO.C,R4*%
X100860000Y-71900000D03*
X100860000Y-74858000D03*
%TD*%
D38*
%TO.C,IC2*%
X96415000Y-74512000D03*
X95145000Y-74512000D03*
X93875000Y-74512000D03*
X92605000Y-74512000D03*
X92605000Y-69088000D03*
X93875000Y-69088000D03*
X95145000Y-69088000D03*
X96415000Y-69088000D03*
D39*
X94510000Y-71800000D03*
%TD*%
D40*
%TO.C,C6*%
X141859000Y-93166000D03*
X141859000Y-91746000D03*
%TD*%
D41*
%TO.C,R6*%
X92760000Y-64297000D03*
X92760000Y-65803000D03*
%TD*%
D42*
%TO.C,IC1*%
X100502000Y-44069000D03*
X100502000Y-45339000D03*
X100502000Y-46609000D03*
X100502000Y-47879000D03*
X95078000Y-47879000D03*
X95078000Y-46609000D03*
X95078000Y-45339000D03*
X95078000Y-44069000D03*
%TD*%
D13*
%TO.C,TP6*%
X115316000Y-85217000D03*
%TD*%
D43*
%TO.C,U1*%
X120396000Y-85852000D03*
D44*
X121666000Y-85852000D03*
X122936000Y-85852000D03*
%TD*%
D42*
%TO.C,U3*%
X144444000Y-95631000D03*
X144444000Y-96901000D03*
X144444000Y-98171000D03*
X144444000Y-99441000D03*
X139020000Y-99441000D03*
X139020000Y-98171000D03*
X139020000Y-96901000D03*
X139020000Y-95631000D03*
%TD*%
D45*
%TO.C,D3*%
X95800000Y-35500000D03*
X99200000Y-35500000D03*
%TD*%
D15*
%TO.C,R7*%
X104660000Y-46100000D03*
X104660000Y-44500000D03*
%TD*%
D16*
%TO.C,D7*%
X100260000Y-98800000D03*
X101760000Y-98800000D03*
%TD*%
D20*
%TO.C,C7*%
X101650000Y-63611600D03*
X98870000Y-63611600D03*
%TD*%
D13*
%TO.C,TP2*%
X132334000Y-82423000D03*
%TD*%
D20*
%TO.C,C1*%
X92480000Y-78300000D03*
X95260000Y-78300000D03*
%TD*%
D16*
%TO.C,C9*%
X122053000Y-82331400D03*
X120453000Y-82331400D03*
%TD*%
%TO.C,R1*%
X122339400Y-62798800D03*
X120739400Y-62798800D03*
%TD*%
D46*
%TO.C,D2*%
X113805200Y-62773400D03*
X111605200Y-62773400D03*
%TD*%
D20*
%TO.C,C2*%
X108410000Y-40700000D03*
X105630000Y-40700000D03*
%TD*%
D13*
%TO.C,TP1*%
X98044000Y-92456000D03*
%TD*%
D16*
%TO.C,R12*%
X122960000Y-91800000D03*
X121360000Y-91800000D03*
%TD*%
D13*
%TO.C,TP7*%
X98044000Y-88646000D03*
%TD*%
D27*
%TO.C,R15*%
X133613000Y-106299000D03*
X135119000Y-106299000D03*
%TD*%
D16*
%TO.C,R2*%
X106960000Y-62824200D03*
X108560000Y-62824200D03*
%TD*%
D47*
%TO.C,C11*%
X105468000Y-96606200D03*
X106888000Y-96606200D03*
%TD*%
D14*
%TO.C,C13*%
X105947800Y-94726600D03*
X106867800Y-94726600D03*
%TD*%
M02*
