M48
; DRILL file {KiCad (6.0.2-0)} date Sunday, 20 March 2022 at 10:29:57
; FORMAT={-:-/ absolute / inch / decimal}
; #@! TF.CreationDate,2022-03-20T10:29:57+02:00
; #@! TF.GenerationSoftware,Kicad,Pcbnew,(6.0.2-0)
; #@! TF.FileFunction,Plated,1,2,PTH
FMAT,2
INCH
; #@! TA.AperFunction,Plated,PTH,ViaDrill
T1C0.0157
; #@! TA.AperFunction,Plated,PTH,ComponentDrill
T2C0.0276
; #@! TA.AperFunction,Plated,PTH,ComponentDrill
T3C0.0300
; #@! TA.AperFunction,Plated,PTH,ComponentDrill
T4C0.0315
; #@! TA.AperFunction,Plated,PTH,ComponentDrill
T5C0.0394
%
G90
G05
T1
X3.6358Y-2.5472
X3.6437Y-1.8366
X3.6594Y-1.5787
X3.6594Y-2.3701
X3.7598Y-2.3957
X3.8642Y-2.4941
X3.9094Y-1.565
X3.9252Y-3.9744
X3.9469Y-1.3878
X3.998Y-1.8406
X4.0374Y-3.126
X4.0413Y-4.0236
X4.0571Y-2.4035
X4.0827Y-3.0787
X4.1024Y-3.1831
X4.1476Y-3.0768
X4.2697Y-3.25
X4.2894Y-3.7244
X4.3661Y-3.1063
X4.3661Y-3.1575
X4.6102Y-3.8504
X4.628Y-3.1437
X4.6417Y-3.9409
X4.6791Y-4.0059
X4.7874Y-4.1201
X4.7972Y-3.7382
X4.9429Y-3.25
X4.9587Y-4.3681
T2
X3.8073Y-3.7375
X3.8073Y-3.9285
T3
X4.1295Y-1.8898
X6.9728Y-1.8898
T4
X4.73Y-3.2812
X4.78Y-3.2812
X4.83Y-3.2812
T5
X4.0945Y-2.5768
X4.0945Y-2.9768
X4.0945Y-4.5768
X4.0945Y-4.9768
X4.1945Y-2.5768
X4.1945Y-2.9768
X4.1945Y-4.5768
X4.1945Y-4.9768
X4.2945Y-2.5768
X4.2945Y-2.9768
X4.2945Y-4.5768
X4.2945Y-4.9768
X4.3945Y-2.5768
X4.3945Y-2.9768
X4.3945Y-4.5768
X4.3945Y-4.9768
X4.4945Y-2.5768
X4.4945Y-2.9768
X4.4945Y-4.5768
X4.4945Y-4.9768
X4.5945Y-2.5768
X4.5945Y-2.9768
X4.5945Y-4.5768
X4.5945Y-4.9768
X4.6945Y-2.5768
X4.6945Y-2.9768
X4.6945Y-4.5768
X4.6945Y-4.9768
X4.7945Y-2.5768
X4.7945Y-2.9768
X4.7945Y-4.5768
X4.7945Y-4.9768
X4.8945Y-2.5768
X4.8945Y-2.9768
X4.8945Y-4.5768
X4.8945Y-4.9768
X4.9945Y-2.5768
X4.9945Y-2.9768
X4.9945Y-4.5768
X4.9945Y-4.9768
X5.0945Y-2.5768
X5.0945Y-2.9768
X5.0945Y-4.5768
X5.0945Y-4.9768
X5.1945Y-2.5768
X5.1945Y-2.9768
X5.1945Y-4.5768
X5.1945Y-4.9768
X5.2945Y-2.5768
X5.2945Y-2.9768
X5.2945Y-4.5768
X5.2945Y-4.9768
X5.3945Y-2.5768
X5.3945Y-2.9768
X5.3945Y-4.5768
X5.3945Y-4.9768
X5.4945Y-2.5768
X5.4945Y-2.9768
X5.4945Y-4.5768
X5.4945Y-4.9768
X5.5945Y-2.5768
X5.5945Y-2.9768
X5.5945Y-4.5768
X5.5945Y-4.9768
X5.6945Y-2.5768
X5.6945Y-2.9768
X5.6945Y-4.5768
X5.6945Y-4.9768
X5.7945Y-2.5768
X5.7945Y-2.9768
X5.7945Y-4.5768
X5.7945Y-4.9768
X5.8945Y-2.5768
X5.8945Y-2.9768
X5.8945Y-4.5768
X5.8945Y-4.9768
X5.9945Y-2.5768
X5.9945Y-2.9768
X5.9945Y-4.5768
X5.9945Y-4.9768
X6.0945Y-2.5768
X6.0945Y-2.9768
X6.0945Y-4.5768
X6.0945Y-4.9768
X6.1945Y-2.5768
X6.1945Y-2.9768
X6.1945Y-4.5768
X6.1945Y-4.9768
X6.2945Y-2.5768
X6.2945Y-2.9768
X6.2945Y-4.5768
X6.2945Y-4.9768
X6.3945Y-2.5768
X6.3945Y-2.9768
X6.3945Y-4.5768
X6.3945Y-4.9768
X6.4945Y-2.5768
X6.4945Y-2.9768
X6.4945Y-4.5768
X6.4945Y-4.9768
X6.5945Y-2.5768
X6.5945Y-2.9768
X6.5945Y-4.5768
X6.5945Y-4.9768
X6.6945Y-2.5768
X6.6945Y-2.9768
X6.6945Y-4.5768
X6.6945Y-4.9768
X6.7945Y-2.5768
X6.7945Y-2.9768
X6.7945Y-4.5768
X6.7945Y-4.9768
X6.8945Y-2.5768
X6.8945Y-2.9768
X6.8945Y-4.5768
X6.8945Y-4.9768
X6.9945Y-2.5768
X6.9945Y-2.9768
X6.9945Y-4.5768
X6.9945Y-4.9768
X7.0945Y-2.5768
X7.0945Y-2.9768
X7.0945Y-4.5768
X7.0945Y-4.9768
X7.1945Y-2.5768
X7.1945Y-2.9768
X7.1945Y-4.5768
X7.1945Y-4.9768
X7.2945Y-2.5768
X7.2945Y-2.9768
X7.2945Y-4.5768
X7.2945Y-4.9768
T2
G00X3.6864Y-3.6913
M15
G01X3.7179Y-3.6913
M16
G05
G00X3.6864Y-3.9747
M15
G01X3.7179Y-3.9747
M16
G05
T0
M30
