%FSLAX45Y45*%
G04 Gerber Fmt 4.5, Leading zero omitted, Abs format (unit mm)*
G04 Created by KiCad (PCBNEW (6.0.2-0)) date 2022-04-11 13:23:13*
%MOMM*%
%LPD*%
G01*
G04 APERTURE LIST*
%TA.AperFunction,Profile*%
%ADD10C,0.100000*%
%TD*%
%ADD11C,0.200000*%
%ADD12C,0.040000*%
%ADD13C,0.070000*%
%ADD14C,0.076200*%
%ADD15C,0.080000*%
%ADD16C,0.100000*%
G04 APERTURE END LIST*
D10*
X18880000Y-3460000D02*
G75*
G03*
X18780000Y-3360000I-100000J0D01*
G01*
X18780000Y-13230000D02*
X9110000Y-13230000D01*
X9010000Y-13130000D02*
G75*
G03*
X9110000Y-13230000I100000J0D01*
G01*
X18780000Y-13230000D02*
G75*
G03*
X18880000Y-13130000I0J100000D01*
G01*
X9120000Y-3360000D02*
G75*
G03*
X9010000Y-3470000I0J-110000D01*
G01*
X9010000Y-13130000D02*
X9010000Y-3470000D01*
X9120000Y-3360000D02*
X18780000Y-3360000D01*
X18880000Y-3460000D02*
X18880000Y-13130000D01*
D11*
D12*
X9241000Y-6705000D02*
X9281000Y-6745000D01*
X9281000Y-6705000D02*
X9241000Y-6745000D01*
X9261000Y-4900000D02*
X9301000Y-4940000D01*
X9301000Y-4900000D02*
X9261000Y-4940000D01*
X9301000Y-4245000D02*
X9341000Y-4285000D01*
X9341000Y-4245000D02*
X9301000Y-4285000D01*
X9301000Y-6255000D02*
X9341000Y-6295000D01*
X9341000Y-6255000D02*
X9301000Y-6295000D01*
X9310000Y-3550000D02*
X9350000Y-3590000D01*
X9350000Y-3550000D02*
X9310000Y-3590000D01*
X9556000Y-6320000D02*
X9596000Y-6360000D01*
X9596000Y-6320000D02*
X9556000Y-6360000D01*
X9821000Y-6570000D02*
X9861000Y-6610000D01*
X9861000Y-6570000D02*
X9821000Y-6610000D01*
X9936000Y-4210000D02*
X9976000Y-4250000D01*
X9976000Y-4210000D02*
X9936000Y-4250000D01*
X9976000Y-10330000D02*
X10016000Y-10370000D01*
X10016000Y-10330000D02*
X9976000Y-10370000D01*
X10161000Y-4910000D02*
X10201000Y-4950000D01*
X10201000Y-4910000D02*
X10161000Y-4950000D01*
X10261000Y-8175000D02*
X10301000Y-8215000D01*
X10301000Y-8175000D02*
X10261000Y-8215000D01*
X10271000Y-10455000D02*
X10311000Y-10495000D01*
X10311000Y-10455000D02*
X10271000Y-10495000D01*
X10311000Y-6340000D02*
X10351000Y-6380000D01*
X10351000Y-6340000D02*
X10311000Y-6380000D01*
X10376000Y-8055000D02*
X10416000Y-8095000D01*
X10416000Y-8055000D02*
X10376000Y-8095000D01*
X10495600Y-8311200D02*
X10535600Y-8351200D01*
X10535600Y-8311200D02*
X10495600Y-8351200D01*
X10901000Y-9695000D02*
X10941000Y-9735000D01*
X10941000Y-9695000D02*
X10901000Y-9735000D01*
X11105200Y-8235000D02*
X11145200Y-8275000D01*
X11145200Y-8235000D02*
X11105200Y-8275000D01*
X11196000Y-3945000D02*
X11236000Y-3985000D01*
X11236000Y-3945000D02*
X11196000Y-3985000D01*
X11496000Y-3945000D02*
X11536000Y-3985000D01*
X11536000Y-3945000D02*
X11496000Y-3985000D01*
X11587800Y-10457500D02*
X11627800Y-10497500D01*
X11627800Y-10457500D02*
X11587800Y-10497500D01*
X11716000Y-10015000D02*
X11756000Y-10055000D01*
X11756000Y-10015000D02*
X11716000Y-10055000D01*
X11796000Y-10245000D02*
X11836000Y-10285000D01*
X11836000Y-10245000D02*
X11796000Y-10285000D01*
X11867200Y-8362000D02*
X11907200Y-8402000D01*
X11907200Y-8362000D02*
X11867200Y-8402000D01*
X11891000Y-10410000D02*
X11931000Y-10450000D01*
X11931000Y-10410000D02*
X11891000Y-10450000D01*
X12166000Y-10700000D02*
X12206000Y-10740000D01*
X12206000Y-10700000D02*
X12166000Y-10740000D01*
X12191000Y-9730000D02*
X12231000Y-9770000D01*
X12231000Y-9730000D02*
X12191000Y-9770000D01*
X12464100Y-8362000D02*
X12504100Y-8402000D01*
X12504100Y-8362000D02*
X12464100Y-8402000D01*
X12601000Y-11330000D02*
X12641000Y-11370000D01*
X12641000Y-11330000D02*
X12601000Y-11370000D01*
X13683300Y-9797100D02*
X13723300Y-9837100D01*
X13723300Y-9797100D02*
X13683300Y-9837100D01*
X13759500Y-10584500D02*
X13799500Y-10624500D01*
X13799500Y-10584500D02*
X13759500Y-10624500D01*
D13*
X9464500Y-9630820D02*
G75*
G03*
X9464500Y-9630820I-35000J0D01*
G01*
D11*
X9389500Y-9655820D02*
X9469500Y-9655820D01*
X9389500Y-9605820D02*
X9469500Y-9605820D01*
X9469500Y-9655820D02*
G75*
G03*
X9469500Y-9605820I0J25000D01*
G01*
X9389500Y-9605820D02*
G75*
G03*
X9389500Y-9655820I0J-25000D01*
G01*
D13*
X9464500Y-10350820D02*
G75*
G03*
X9464500Y-10350820I-35000J0D01*
G01*
D11*
X9389500Y-10375820D02*
X9469500Y-10375820D01*
X9389500Y-10325820D02*
X9469500Y-10325820D01*
X9469500Y-10375820D02*
G75*
G03*
X9469500Y-10325820I0J25000D01*
G01*
X9389500Y-10325820D02*
G75*
G03*
X9389500Y-10375820I0J-25000D01*
G01*
D13*
X9731500Y-9748320D02*
G75*
G03*
X9731500Y-9748320I-35000J0D01*
G01*
X9731500Y-10233320D02*
G75*
G03*
X9731500Y-10233320I-35000J0D01*
G01*
D14*
X10515000Y-5016900D02*
X10515000Y-5093100D01*
X10476900Y-5055000D02*
X10553100Y-5055000D01*
X17737000Y-5016900D02*
X17737000Y-5093100D01*
X17698900Y-5055000D02*
X17775100Y-5055000D01*
D15*
X12067884Y-8613485D02*
X12067884Y-8556916D01*
X12011315Y-8556916D01*
X12011315Y-8613485D01*
X12067884Y-8613485D01*
X12194884Y-8613485D02*
X12194884Y-8556916D01*
X12138315Y-8556916D01*
X12138315Y-8613485D01*
X12194884Y-8613485D01*
X12321884Y-8613485D02*
X12321884Y-8556916D01*
X12265315Y-8556916D01*
X12265315Y-8613485D01*
X12321884Y-8613485D01*
D16*
X10426000Y-6850000D02*
X10476000Y-6800000D01*
X10426000Y-6750000D01*
X10376000Y-6800000D01*
X10426000Y-6850000D01*
X10426000Y-7866000D02*
X10476000Y-7816000D01*
X10426000Y-7766000D01*
X10376000Y-7816000D01*
X10426000Y-7866000D01*
X10426000Y-11930000D02*
X10476000Y-11880000D01*
X10426000Y-11830000D01*
X10376000Y-11880000D01*
X10426000Y-11930000D01*
X10426000Y-12946000D02*
X10476000Y-12896000D01*
X10426000Y-12846000D01*
X10376000Y-12896000D01*
X10426000Y-12946000D01*
X10680000Y-6850000D02*
X10730000Y-6800000D01*
X10680000Y-6750000D01*
X10630000Y-6800000D01*
X10680000Y-6850000D01*
X10680000Y-7866000D02*
X10730000Y-7816000D01*
X10680000Y-7766000D01*
X10630000Y-7816000D01*
X10680000Y-7866000D01*
X10680000Y-11930000D02*
X10730000Y-11880000D01*
X10680000Y-11830000D01*
X10630000Y-11880000D01*
X10680000Y-11930000D01*
X10680000Y-12946000D02*
X10730000Y-12896000D01*
X10680000Y-12846000D01*
X10630000Y-12896000D01*
X10680000Y-12946000D01*
X10934000Y-6850000D02*
X10984000Y-6800000D01*
X10934000Y-6750000D01*
X10884000Y-6800000D01*
X10934000Y-6850000D01*
X10934000Y-7866000D02*
X10984000Y-7816000D01*
X10934000Y-7766000D01*
X10884000Y-7816000D01*
X10934000Y-7866000D01*
X10934000Y-11930000D02*
X10984000Y-11880000D01*
X10934000Y-11830000D01*
X10884000Y-11880000D01*
X10934000Y-11930000D01*
X10934000Y-12946000D02*
X10984000Y-12896000D01*
X10934000Y-12846000D01*
X10884000Y-12896000D01*
X10934000Y-12946000D01*
X11188000Y-6850000D02*
X11238000Y-6800000D01*
X11188000Y-6750000D01*
X11138000Y-6800000D01*
X11188000Y-6850000D01*
X11188000Y-7866000D02*
X11238000Y-7816000D01*
X11188000Y-7766000D01*
X11138000Y-7816000D01*
X11188000Y-7866000D01*
X11188000Y-11930000D02*
X11238000Y-11880000D01*
X11188000Y-11830000D01*
X11138000Y-11880000D01*
X11188000Y-11930000D01*
X11188000Y-12946000D02*
X11238000Y-12896000D01*
X11188000Y-12846000D01*
X11138000Y-12896000D01*
X11188000Y-12946000D01*
X11442000Y-6850000D02*
X11492000Y-6800000D01*
X11442000Y-6750000D01*
X11392000Y-6800000D01*
X11442000Y-6850000D01*
X11442000Y-7866000D02*
X11492000Y-7816000D01*
X11442000Y-7766000D01*
X11392000Y-7816000D01*
X11442000Y-7866000D01*
X11442000Y-11930000D02*
X11492000Y-11880000D01*
X11442000Y-11830000D01*
X11392000Y-11880000D01*
X11442000Y-11930000D01*
X11442000Y-12946000D02*
X11492000Y-12896000D01*
X11442000Y-12846000D01*
X11392000Y-12896000D01*
X11442000Y-12946000D01*
X11696000Y-6850000D02*
X11746000Y-6800000D01*
X11696000Y-6750000D01*
X11646000Y-6800000D01*
X11696000Y-6850000D01*
X11696000Y-7866000D02*
X11746000Y-7816000D01*
X11696000Y-7766000D01*
X11646000Y-7816000D01*
X11696000Y-7866000D01*
X11696000Y-11930000D02*
X11746000Y-11880000D01*
X11696000Y-11830000D01*
X11646000Y-11880000D01*
X11696000Y-11930000D01*
X11696000Y-12946000D02*
X11746000Y-12896000D01*
X11696000Y-12846000D01*
X11646000Y-12896000D01*
X11696000Y-12946000D01*
X11950000Y-6850000D02*
X12000000Y-6800000D01*
X11950000Y-6750000D01*
X11900000Y-6800000D01*
X11950000Y-6850000D01*
X11950000Y-7866000D02*
X12000000Y-7816000D01*
X11950000Y-7766000D01*
X11900000Y-7816000D01*
X11950000Y-7866000D01*
X11950000Y-11930000D02*
X12000000Y-11880000D01*
X11950000Y-11830000D01*
X11900000Y-11880000D01*
X11950000Y-11930000D01*
X11950000Y-12946000D02*
X12000000Y-12896000D01*
X11950000Y-12846000D01*
X11900000Y-12896000D01*
X11950000Y-12946000D01*
X12204000Y-6850000D02*
X12254000Y-6800000D01*
X12204000Y-6750000D01*
X12154000Y-6800000D01*
X12204000Y-6850000D01*
X12204000Y-7866000D02*
X12254000Y-7816000D01*
X12204000Y-7766000D01*
X12154000Y-7816000D01*
X12204000Y-7866000D01*
X12204000Y-11930000D02*
X12254000Y-11880000D01*
X12204000Y-11830000D01*
X12154000Y-11880000D01*
X12204000Y-11930000D01*
X12204000Y-12946000D02*
X12254000Y-12896000D01*
X12204000Y-12846000D01*
X12154000Y-12896000D01*
X12204000Y-12946000D01*
X12458000Y-6850000D02*
X12508000Y-6800000D01*
X12458000Y-6750000D01*
X12408000Y-6800000D01*
X12458000Y-6850000D01*
X12458000Y-7866000D02*
X12508000Y-7816000D01*
X12458000Y-7766000D01*
X12408000Y-7816000D01*
X12458000Y-7866000D01*
X12458000Y-11930000D02*
X12508000Y-11880000D01*
X12458000Y-11830000D01*
X12408000Y-11880000D01*
X12458000Y-11930000D01*
X12458000Y-12946000D02*
X12508000Y-12896000D01*
X12458000Y-12846000D01*
X12408000Y-12896000D01*
X12458000Y-12946000D01*
X12712000Y-6850000D02*
X12762000Y-6800000D01*
X12712000Y-6750000D01*
X12662000Y-6800000D01*
X12712000Y-6850000D01*
X12712000Y-7866000D02*
X12762000Y-7816000D01*
X12712000Y-7766000D01*
X12662000Y-7816000D01*
X12712000Y-7866000D01*
X12712000Y-11930000D02*
X12762000Y-11880000D01*
X12712000Y-11830000D01*
X12662000Y-11880000D01*
X12712000Y-11930000D01*
X12712000Y-12946000D02*
X12762000Y-12896000D01*
X12712000Y-12846000D01*
X12662000Y-12896000D01*
X12712000Y-12946000D01*
X12966000Y-6850000D02*
X13016000Y-6800000D01*
X12966000Y-6750000D01*
X12916000Y-6800000D01*
X12966000Y-6850000D01*
X12966000Y-7866000D02*
X13016000Y-7816000D01*
X12966000Y-7766000D01*
X12916000Y-7816000D01*
X12966000Y-7866000D01*
X12966000Y-11930000D02*
X13016000Y-11880000D01*
X12966000Y-11830000D01*
X12916000Y-11880000D01*
X12966000Y-11930000D01*
X12966000Y-12946000D02*
X13016000Y-12896000D01*
X12966000Y-12846000D01*
X12916000Y-12896000D01*
X12966000Y-12946000D01*
X13220000Y-6850000D02*
X13270000Y-6800000D01*
X13220000Y-6750000D01*
X13170000Y-6800000D01*
X13220000Y-6850000D01*
X13220000Y-7866000D02*
X13270000Y-7816000D01*
X13220000Y-7766000D01*
X13170000Y-7816000D01*
X13220000Y-7866000D01*
X13220000Y-11930000D02*
X13270000Y-11880000D01*
X13220000Y-11830000D01*
X13170000Y-11880000D01*
X13220000Y-11930000D01*
X13220000Y-12946000D02*
X13270000Y-12896000D01*
X13220000Y-12846000D01*
X13170000Y-12896000D01*
X13220000Y-12946000D01*
X13474000Y-6850000D02*
X13524000Y-6800000D01*
X13474000Y-6750000D01*
X13424000Y-6800000D01*
X13474000Y-6850000D01*
X13474000Y-7866000D02*
X13524000Y-7816000D01*
X13474000Y-7766000D01*
X13424000Y-7816000D01*
X13474000Y-7866000D01*
X13474000Y-11930000D02*
X13524000Y-11880000D01*
X13474000Y-11830000D01*
X13424000Y-11880000D01*
X13474000Y-11930000D01*
X13474000Y-12946000D02*
X13524000Y-12896000D01*
X13474000Y-12846000D01*
X13424000Y-12896000D01*
X13474000Y-12946000D01*
X13728000Y-6850000D02*
X13778000Y-6800000D01*
X13728000Y-6750000D01*
X13678000Y-6800000D01*
X13728000Y-6850000D01*
X13728000Y-7866000D02*
X13778000Y-7816000D01*
X13728000Y-7766000D01*
X13678000Y-7816000D01*
X13728000Y-7866000D01*
X13728000Y-11930000D02*
X13778000Y-11880000D01*
X13728000Y-11830000D01*
X13678000Y-11880000D01*
X13728000Y-11930000D01*
X13728000Y-12946000D02*
X13778000Y-12896000D01*
X13728000Y-12846000D01*
X13678000Y-12896000D01*
X13728000Y-12946000D01*
X13982000Y-6850000D02*
X14032000Y-6800000D01*
X13982000Y-6750000D01*
X13932000Y-6800000D01*
X13982000Y-6850000D01*
X13982000Y-7866000D02*
X14032000Y-7816000D01*
X13982000Y-7766000D01*
X13932000Y-7816000D01*
X13982000Y-7866000D01*
X13982000Y-11930000D02*
X14032000Y-11880000D01*
X13982000Y-11830000D01*
X13932000Y-11880000D01*
X13982000Y-11930000D01*
X13982000Y-12946000D02*
X14032000Y-12896000D01*
X13982000Y-12846000D01*
X13932000Y-12896000D01*
X13982000Y-12946000D01*
X14236000Y-6850000D02*
X14286000Y-6800000D01*
X14236000Y-6750000D01*
X14186000Y-6800000D01*
X14236000Y-6850000D01*
X14236000Y-7866000D02*
X14286000Y-7816000D01*
X14236000Y-7766000D01*
X14186000Y-7816000D01*
X14236000Y-7866000D01*
X14236000Y-11930000D02*
X14286000Y-11880000D01*
X14236000Y-11830000D01*
X14186000Y-11880000D01*
X14236000Y-11930000D01*
X14236000Y-12946000D02*
X14286000Y-12896000D01*
X14236000Y-12846000D01*
X14186000Y-12896000D01*
X14236000Y-12946000D01*
X14490000Y-6850000D02*
X14540000Y-6800000D01*
X14490000Y-6750000D01*
X14440000Y-6800000D01*
X14490000Y-6850000D01*
X14490000Y-7866000D02*
X14540000Y-7816000D01*
X14490000Y-7766000D01*
X14440000Y-7816000D01*
X14490000Y-7866000D01*
X14490000Y-11930000D02*
X14540000Y-11880000D01*
X14490000Y-11830000D01*
X14440000Y-11880000D01*
X14490000Y-11930000D01*
X14490000Y-12946000D02*
X14540000Y-12896000D01*
X14490000Y-12846000D01*
X14440000Y-12896000D01*
X14490000Y-12946000D01*
X14744000Y-6850000D02*
X14794000Y-6800000D01*
X14744000Y-6750000D01*
X14694000Y-6800000D01*
X14744000Y-6850000D01*
X14744000Y-7866000D02*
X14794000Y-7816000D01*
X14744000Y-7766000D01*
X14694000Y-7816000D01*
X14744000Y-7866000D01*
X14744000Y-11930000D02*
X14794000Y-11880000D01*
X14744000Y-11830000D01*
X14694000Y-11880000D01*
X14744000Y-11930000D01*
X14744000Y-12946000D02*
X14794000Y-12896000D01*
X14744000Y-12846000D01*
X14694000Y-12896000D01*
X14744000Y-12946000D01*
X14998000Y-6850000D02*
X15048000Y-6800000D01*
X14998000Y-6750000D01*
X14948000Y-6800000D01*
X14998000Y-6850000D01*
X14998000Y-7866000D02*
X15048000Y-7816000D01*
X14998000Y-7766000D01*
X14948000Y-7816000D01*
X14998000Y-7866000D01*
X14998000Y-11930000D02*
X15048000Y-11880000D01*
X14998000Y-11830000D01*
X14948000Y-11880000D01*
X14998000Y-11930000D01*
X14998000Y-12946000D02*
X15048000Y-12896000D01*
X14998000Y-12846000D01*
X14948000Y-12896000D01*
X14998000Y-12946000D01*
X15252000Y-6850000D02*
X15302000Y-6800000D01*
X15252000Y-6750000D01*
X15202000Y-6800000D01*
X15252000Y-6850000D01*
X15252000Y-7866000D02*
X15302000Y-7816000D01*
X15252000Y-7766000D01*
X15202000Y-7816000D01*
X15252000Y-7866000D01*
X15252000Y-11930000D02*
X15302000Y-11880000D01*
X15252000Y-11830000D01*
X15202000Y-11880000D01*
X15252000Y-11930000D01*
X15252000Y-12946000D02*
X15302000Y-12896000D01*
X15252000Y-12846000D01*
X15202000Y-12896000D01*
X15252000Y-12946000D01*
X15506000Y-6850000D02*
X15556000Y-6800000D01*
X15506000Y-6750000D01*
X15456000Y-6800000D01*
X15506000Y-6850000D01*
X15506000Y-7866000D02*
X15556000Y-7816000D01*
X15506000Y-7766000D01*
X15456000Y-7816000D01*
X15506000Y-7866000D01*
X15506000Y-11930000D02*
X15556000Y-11880000D01*
X15506000Y-11830000D01*
X15456000Y-11880000D01*
X15506000Y-11930000D01*
X15506000Y-12946000D02*
X15556000Y-12896000D01*
X15506000Y-12846000D01*
X15456000Y-12896000D01*
X15506000Y-12946000D01*
X15760000Y-6850000D02*
X15810000Y-6800000D01*
X15760000Y-6750000D01*
X15710000Y-6800000D01*
X15760000Y-6850000D01*
X15760000Y-7866000D02*
X15810000Y-7816000D01*
X15760000Y-7766000D01*
X15710000Y-7816000D01*
X15760000Y-7866000D01*
X15760000Y-11930000D02*
X15810000Y-11880000D01*
X15760000Y-11830000D01*
X15710000Y-11880000D01*
X15760000Y-11930000D01*
X15760000Y-12946000D02*
X15810000Y-12896000D01*
X15760000Y-12846000D01*
X15710000Y-12896000D01*
X15760000Y-12946000D01*
X16014000Y-6850000D02*
X16064000Y-6800000D01*
X16014000Y-6750000D01*
X15964000Y-6800000D01*
X16014000Y-6850000D01*
X16014000Y-7866000D02*
X16064000Y-7816000D01*
X16014000Y-7766000D01*
X15964000Y-7816000D01*
X16014000Y-7866000D01*
X16014000Y-11930000D02*
X16064000Y-11880000D01*
X16014000Y-11830000D01*
X15964000Y-11880000D01*
X16014000Y-11930000D01*
X16014000Y-12946000D02*
X16064000Y-12896000D01*
X16014000Y-12846000D01*
X15964000Y-12896000D01*
X16014000Y-12946000D01*
X16268000Y-6850000D02*
X16318000Y-6800000D01*
X16268000Y-6750000D01*
X16218000Y-6800000D01*
X16268000Y-6850000D01*
X16268000Y-7866000D02*
X16318000Y-7816000D01*
X16268000Y-7766000D01*
X16218000Y-7816000D01*
X16268000Y-7866000D01*
X16268000Y-11930000D02*
X16318000Y-11880000D01*
X16268000Y-11830000D01*
X16218000Y-11880000D01*
X16268000Y-11930000D01*
X16268000Y-12946000D02*
X16318000Y-12896000D01*
X16268000Y-12846000D01*
X16218000Y-12896000D01*
X16268000Y-12946000D01*
X16522000Y-6850000D02*
X16572000Y-6800000D01*
X16522000Y-6750000D01*
X16472000Y-6800000D01*
X16522000Y-6850000D01*
X16522000Y-7866000D02*
X16572000Y-7816000D01*
X16522000Y-7766000D01*
X16472000Y-7816000D01*
X16522000Y-7866000D01*
X16522000Y-11930000D02*
X16572000Y-11880000D01*
X16522000Y-11830000D01*
X16472000Y-11880000D01*
X16522000Y-11930000D01*
X16522000Y-12946000D02*
X16572000Y-12896000D01*
X16522000Y-12846000D01*
X16472000Y-12896000D01*
X16522000Y-12946000D01*
X16776000Y-6850000D02*
X16826000Y-6800000D01*
X16776000Y-6750000D01*
X16726000Y-6800000D01*
X16776000Y-6850000D01*
X16776000Y-7866000D02*
X16826000Y-7816000D01*
X16776000Y-7766000D01*
X16726000Y-7816000D01*
X16776000Y-7866000D01*
X16776000Y-11930000D02*
X16826000Y-11880000D01*
X16776000Y-11830000D01*
X16726000Y-11880000D01*
X16776000Y-11930000D01*
X16776000Y-12946000D02*
X16826000Y-12896000D01*
X16776000Y-12846000D01*
X16726000Y-12896000D01*
X16776000Y-12946000D01*
X17030000Y-6850000D02*
X17080000Y-6800000D01*
X17030000Y-6750000D01*
X16980000Y-6800000D01*
X17030000Y-6850000D01*
X17030000Y-7866000D02*
X17080000Y-7816000D01*
X17030000Y-7766000D01*
X16980000Y-7816000D01*
X17030000Y-7866000D01*
X17030000Y-11930000D02*
X17080000Y-11880000D01*
X17030000Y-11830000D01*
X16980000Y-11880000D01*
X17030000Y-11930000D01*
X17030000Y-12946000D02*
X17080000Y-12896000D01*
X17030000Y-12846000D01*
X16980000Y-12896000D01*
X17030000Y-12946000D01*
X17284000Y-6850000D02*
X17334000Y-6800000D01*
X17284000Y-6750000D01*
X17234000Y-6800000D01*
X17284000Y-6850000D01*
X17284000Y-7866000D02*
X17334000Y-7816000D01*
X17284000Y-7766000D01*
X17234000Y-7816000D01*
X17284000Y-7866000D01*
X17284000Y-11930000D02*
X17334000Y-11880000D01*
X17284000Y-11830000D01*
X17234000Y-11880000D01*
X17284000Y-11930000D01*
X17284000Y-12946000D02*
X17334000Y-12896000D01*
X17284000Y-12846000D01*
X17234000Y-12896000D01*
X17284000Y-12946000D01*
X17538000Y-6850000D02*
X17588000Y-6800000D01*
X17538000Y-6750000D01*
X17488000Y-6800000D01*
X17538000Y-6850000D01*
X17538000Y-7866000D02*
X17588000Y-7816000D01*
X17538000Y-7766000D01*
X17488000Y-7816000D01*
X17538000Y-7866000D01*
X17538000Y-11930000D02*
X17588000Y-11880000D01*
X17538000Y-11830000D01*
X17488000Y-11880000D01*
X17538000Y-11930000D01*
X17538000Y-12946000D02*
X17588000Y-12896000D01*
X17538000Y-12846000D01*
X17488000Y-12896000D01*
X17538000Y-12946000D01*
X17792000Y-6850000D02*
X17842000Y-6800000D01*
X17792000Y-6750000D01*
X17742000Y-6800000D01*
X17792000Y-6850000D01*
X17792000Y-7866000D02*
X17842000Y-7816000D01*
X17792000Y-7766000D01*
X17742000Y-7816000D01*
X17792000Y-7866000D01*
X17792000Y-11930000D02*
X17842000Y-11880000D01*
X17792000Y-11830000D01*
X17742000Y-11880000D01*
X17792000Y-11930000D01*
X17792000Y-12946000D02*
X17842000Y-12896000D01*
X17792000Y-12846000D01*
X17742000Y-12896000D01*
X17792000Y-12946000D01*
X18046000Y-6850000D02*
X18096000Y-6800000D01*
X18046000Y-6750000D01*
X17996000Y-6800000D01*
X18046000Y-6850000D01*
X18046000Y-7866000D02*
X18096000Y-7816000D01*
X18046000Y-7766000D01*
X17996000Y-7816000D01*
X18046000Y-7866000D01*
X18046000Y-11930000D02*
X18096000Y-11880000D01*
X18046000Y-11830000D01*
X17996000Y-11880000D01*
X18046000Y-11930000D01*
X18046000Y-12946000D02*
X18096000Y-12896000D01*
X18046000Y-12846000D01*
X17996000Y-12896000D01*
X18046000Y-12946000D01*
X18300000Y-6850000D02*
X18350000Y-6800000D01*
X18300000Y-6750000D01*
X18250000Y-6800000D01*
X18300000Y-6850000D01*
X18300000Y-7866000D02*
X18350000Y-7816000D01*
X18300000Y-7766000D01*
X18250000Y-7816000D01*
X18300000Y-7866000D01*
X18300000Y-11930000D02*
X18350000Y-11880000D01*
X18300000Y-11830000D01*
X18250000Y-11880000D01*
X18300000Y-11930000D01*
X18300000Y-12946000D02*
X18350000Y-12896000D01*
X18300000Y-12846000D01*
X18250000Y-12896000D01*
X18300000Y-12946000D01*
X18554000Y-6850000D02*
X18604000Y-6800000D01*
X18554000Y-6750000D01*
X18504000Y-6800000D01*
X18554000Y-6850000D01*
X18554000Y-7866000D02*
X18604000Y-7816000D01*
X18554000Y-7766000D01*
X18504000Y-7816000D01*
X18554000Y-7866000D01*
X18554000Y-11930000D02*
X18604000Y-11880000D01*
X18554000Y-11830000D01*
X18504000Y-11880000D01*
X18554000Y-11930000D01*
X18554000Y-12946000D02*
X18604000Y-12896000D01*
X18554000Y-12846000D01*
X18504000Y-12896000D01*
X18554000Y-12946000D01*
D11*
X9262619Y-13545476D02*
X9262619Y-13345476D01*
X9310238Y-13345476D01*
X9338810Y-13355000D01*
X9357857Y-13374048D01*
X9367381Y-13393095D01*
X9376905Y-13431190D01*
X9376905Y-13459762D01*
X9367381Y-13497857D01*
X9357857Y-13516905D01*
X9338810Y-13535952D01*
X9310238Y-13545476D01*
X9262619Y-13545476D01*
X9462619Y-13545476D02*
X9462619Y-13412143D01*
X9462619Y-13450238D02*
X9472143Y-13431190D01*
X9481667Y-13421667D01*
X9500714Y-13412143D01*
X9519762Y-13412143D01*
X9586429Y-13545476D02*
X9586429Y-13412143D01*
X9586429Y-13345476D02*
X9576905Y-13355000D01*
X9586429Y-13364524D01*
X9595952Y-13355000D01*
X9586429Y-13345476D01*
X9586429Y-13364524D01*
X9710238Y-13545476D02*
X9691190Y-13535952D01*
X9681667Y-13516905D01*
X9681667Y-13345476D01*
X9815000Y-13545476D02*
X9795952Y-13535952D01*
X9786429Y-13516905D01*
X9786429Y-13345476D01*
X10043571Y-13545476D02*
X10043571Y-13345476D01*
X10110238Y-13488333D01*
X10176905Y-13345476D01*
X10176905Y-13545476D01*
X10357857Y-13545476D02*
X10357857Y-13440714D01*
X10348333Y-13421667D01*
X10329286Y-13412143D01*
X10291190Y-13412143D01*
X10272143Y-13421667D01*
X10357857Y-13535952D02*
X10338810Y-13545476D01*
X10291190Y-13545476D01*
X10272143Y-13535952D01*
X10262619Y-13516905D01*
X10262619Y-13497857D01*
X10272143Y-13478809D01*
X10291190Y-13469286D01*
X10338810Y-13469286D01*
X10357857Y-13459762D01*
X10453095Y-13412143D02*
X10453095Y-13612143D01*
X10453095Y-13421667D02*
X10472143Y-13412143D01*
X10510238Y-13412143D01*
X10529286Y-13421667D01*
X10538810Y-13431190D01*
X10548333Y-13450238D01*
X10548333Y-13507381D01*
X10538810Y-13526428D01*
X10529286Y-13535952D01*
X10510238Y-13545476D01*
X10472143Y-13545476D01*
X10453095Y-13535952D01*
X10634048Y-13526428D02*
X10643571Y-13535952D01*
X10634048Y-13545476D01*
X10624524Y-13535952D01*
X10634048Y-13526428D01*
X10634048Y-13545476D01*
X10634048Y-13421667D02*
X10643571Y-13431190D01*
X10634048Y-13440714D01*
X10624524Y-13431190D01*
X10634048Y-13421667D01*
X10634048Y-13440714D01*
D12*
X8965000Y-13855000D02*
X9005000Y-13895000D01*
X9005000Y-13855000D02*
X8965000Y-13895000D01*
D11*
X9300714Y-13765476D02*
X9319762Y-13765476D01*
X9338810Y-13775000D01*
X9348333Y-13784524D01*
X9357857Y-13803571D01*
X9367381Y-13841667D01*
X9367381Y-13889286D01*
X9357857Y-13927381D01*
X9348333Y-13946428D01*
X9338810Y-13955952D01*
X9319762Y-13965476D01*
X9300714Y-13965476D01*
X9281667Y-13955952D01*
X9272143Y-13946428D01*
X9262619Y-13927381D01*
X9253095Y-13889286D01*
X9253095Y-13841667D01*
X9262619Y-13803571D01*
X9272143Y-13784524D01*
X9281667Y-13775000D01*
X9300714Y-13765476D01*
X9453095Y-13946428D02*
X9462619Y-13955952D01*
X9453095Y-13965476D01*
X9443571Y-13955952D01*
X9453095Y-13946428D01*
X9453095Y-13965476D01*
X9634048Y-13832143D02*
X9634048Y-13965476D01*
X9586429Y-13755952D02*
X9538810Y-13898809D01*
X9662619Y-13898809D01*
X9776905Y-13765476D02*
X9795952Y-13765476D01*
X9815000Y-13775000D01*
X9824524Y-13784524D01*
X9834048Y-13803571D01*
X9843571Y-13841667D01*
X9843571Y-13889286D01*
X9834048Y-13927381D01*
X9824524Y-13946428D01*
X9815000Y-13955952D01*
X9795952Y-13965476D01*
X9776905Y-13965476D01*
X9757857Y-13955952D01*
X9748333Y-13946428D01*
X9738810Y-13927381D01*
X9729286Y-13889286D01*
X9729286Y-13841667D01*
X9738810Y-13803571D01*
X9748333Y-13784524D01*
X9757857Y-13775000D01*
X9776905Y-13765476D01*
X9967381Y-13765476D02*
X9986429Y-13765476D01*
X10005476Y-13775000D01*
X10015000Y-13784524D01*
X10024524Y-13803571D01*
X10034048Y-13841667D01*
X10034048Y-13889286D01*
X10024524Y-13927381D01*
X10015000Y-13946428D01*
X10005476Y-13955952D01*
X9986429Y-13965476D01*
X9967381Y-13965476D01*
X9948333Y-13955952D01*
X9938810Y-13946428D01*
X9929286Y-13927381D01*
X9919762Y-13889286D01*
X9919762Y-13841667D01*
X9929286Y-13803571D01*
X9938810Y-13784524D01*
X9948333Y-13775000D01*
X9967381Y-13765476D01*
X10119762Y-13965476D02*
X10119762Y-13832143D01*
X10119762Y-13851190D02*
X10129286Y-13841667D01*
X10148333Y-13832143D01*
X10176905Y-13832143D01*
X10195952Y-13841667D01*
X10205476Y-13860714D01*
X10205476Y-13965476D01*
X10205476Y-13860714D02*
X10215000Y-13841667D01*
X10234048Y-13832143D01*
X10262619Y-13832143D01*
X10281667Y-13841667D01*
X10291190Y-13860714D01*
X10291190Y-13965476D01*
X10386429Y-13965476D02*
X10386429Y-13832143D01*
X10386429Y-13851190D02*
X10395952Y-13841667D01*
X10415000Y-13832143D01*
X10443571Y-13832143D01*
X10462619Y-13841667D01*
X10472143Y-13860714D01*
X10472143Y-13965476D01*
X10472143Y-13860714D02*
X10481667Y-13841667D01*
X10500714Y-13832143D01*
X10529286Y-13832143D01*
X10548333Y-13841667D01*
X10557857Y-13860714D01*
X10557857Y-13965476D01*
X10948333Y-13755952D02*
X10776905Y-14013095D01*
X11205476Y-13765476D02*
X11224524Y-13765476D01*
X11243571Y-13775000D01*
X11253095Y-13784524D01*
X11262619Y-13803571D01*
X11272143Y-13841667D01*
X11272143Y-13889286D01*
X11262619Y-13927381D01*
X11253095Y-13946428D01*
X11243571Y-13955952D01*
X11224524Y-13965476D01*
X11205476Y-13965476D01*
X11186428Y-13955952D01*
X11176905Y-13946428D01*
X11167381Y-13927381D01*
X11157857Y-13889286D01*
X11157857Y-13841667D01*
X11167381Y-13803571D01*
X11176905Y-13784524D01*
X11186428Y-13775000D01*
X11205476Y-13765476D01*
X11357857Y-13946428D02*
X11367381Y-13955952D01*
X11357857Y-13965476D01*
X11348333Y-13955952D01*
X11357857Y-13946428D01*
X11357857Y-13965476D01*
X11491190Y-13765476D02*
X11510238Y-13765476D01*
X11529286Y-13775000D01*
X11538809Y-13784524D01*
X11548333Y-13803571D01*
X11557857Y-13841667D01*
X11557857Y-13889286D01*
X11548333Y-13927381D01*
X11538809Y-13946428D01*
X11529286Y-13955952D01*
X11510238Y-13965476D01*
X11491190Y-13965476D01*
X11472143Y-13955952D01*
X11462619Y-13946428D01*
X11453095Y-13927381D01*
X11443571Y-13889286D01*
X11443571Y-13841667D01*
X11453095Y-13803571D01*
X11462619Y-13784524D01*
X11472143Y-13775000D01*
X11491190Y-13765476D01*
X11748333Y-13965476D02*
X11634048Y-13965476D01*
X11691190Y-13965476D02*
X11691190Y-13765476D01*
X11672143Y-13794048D01*
X11653095Y-13813095D01*
X11634048Y-13822619D01*
X11929286Y-13765476D02*
X11834048Y-13765476D01*
X11824524Y-13860714D01*
X11834048Y-13851190D01*
X11853095Y-13841667D01*
X11900714Y-13841667D01*
X11919762Y-13851190D01*
X11929286Y-13860714D01*
X11938809Y-13879762D01*
X11938809Y-13927381D01*
X11929286Y-13946428D01*
X11919762Y-13955952D01*
X11900714Y-13965476D01*
X11853095Y-13965476D01*
X11834048Y-13955952D01*
X11824524Y-13946428D01*
X12005476Y-13765476D02*
X12138809Y-13765476D01*
X12053095Y-13965476D01*
X12205476Y-13765476D02*
X12205476Y-13803571D01*
X12281667Y-13765476D02*
X12281667Y-13803571D01*
X12576905Y-14041667D02*
X12567381Y-14032143D01*
X12548333Y-14003571D01*
X12538809Y-13984524D01*
X12529286Y-13955952D01*
X12519762Y-13908333D01*
X12519762Y-13870238D01*
X12529286Y-13822619D01*
X12538809Y-13794048D01*
X12548333Y-13775000D01*
X12567381Y-13746428D01*
X12576905Y-13736905D01*
X12634048Y-13765476D02*
X12757857Y-13765476D01*
X12691190Y-13841667D01*
X12719762Y-13841667D01*
X12738809Y-13851190D01*
X12748333Y-13860714D01*
X12757857Y-13879762D01*
X12757857Y-13927381D01*
X12748333Y-13946428D01*
X12738809Y-13955952D01*
X12719762Y-13965476D01*
X12662619Y-13965476D01*
X12643571Y-13955952D01*
X12634048Y-13946428D01*
X12881667Y-13765476D02*
X12900714Y-13765476D01*
X12919762Y-13775000D01*
X12929286Y-13784524D01*
X12938809Y-13803571D01*
X12948333Y-13841667D01*
X12948333Y-13889286D01*
X12938809Y-13927381D01*
X12929286Y-13946428D01*
X12919762Y-13955952D01*
X12900714Y-13965476D01*
X12881667Y-13965476D01*
X12862619Y-13955952D01*
X12853095Y-13946428D01*
X12843571Y-13927381D01*
X12834048Y-13889286D01*
X12834048Y-13841667D01*
X12843571Y-13803571D01*
X12853095Y-13784524D01*
X12862619Y-13775000D01*
X12881667Y-13765476D01*
X13186428Y-13965476D02*
X13186428Y-13765476D01*
X13272143Y-13965476D02*
X13272143Y-13860714D01*
X13262619Y-13841667D01*
X13243571Y-13832143D01*
X13215000Y-13832143D01*
X13195952Y-13841667D01*
X13186428Y-13851190D01*
X13395952Y-13965476D02*
X13376905Y-13955952D01*
X13367381Y-13946428D01*
X13357857Y-13927381D01*
X13357857Y-13870238D01*
X13367381Y-13851190D01*
X13376905Y-13841667D01*
X13395952Y-13832143D01*
X13424524Y-13832143D01*
X13443571Y-13841667D01*
X13453095Y-13851190D01*
X13462619Y-13870238D01*
X13462619Y-13927381D01*
X13453095Y-13946428D01*
X13443571Y-13955952D01*
X13424524Y-13965476D01*
X13395952Y-13965476D01*
X13576905Y-13965476D02*
X13557857Y-13955952D01*
X13548333Y-13936905D01*
X13548333Y-13765476D01*
X13729286Y-13955952D02*
X13710238Y-13965476D01*
X13672143Y-13965476D01*
X13653095Y-13955952D01*
X13643571Y-13936905D01*
X13643571Y-13860714D01*
X13653095Y-13841667D01*
X13672143Y-13832143D01*
X13710238Y-13832143D01*
X13729286Y-13841667D01*
X13738809Y-13860714D01*
X13738809Y-13879762D01*
X13643571Y-13898809D01*
X13815000Y-13955952D02*
X13834048Y-13965476D01*
X13872143Y-13965476D01*
X13891190Y-13955952D01*
X13900714Y-13936905D01*
X13900714Y-13927381D01*
X13891190Y-13908333D01*
X13872143Y-13898809D01*
X13843571Y-13898809D01*
X13824524Y-13889286D01*
X13815000Y-13870238D01*
X13815000Y-13860714D01*
X13824524Y-13841667D01*
X13843571Y-13832143D01*
X13872143Y-13832143D01*
X13891190Y-13841667D01*
X13967381Y-14041667D02*
X13976905Y-14032143D01*
X13995952Y-14003571D01*
X14005476Y-13984524D01*
X14015000Y-13955952D01*
X14024524Y-13908333D01*
X14024524Y-13870238D01*
X14015000Y-13822619D01*
X14005476Y-13794048D01*
X13995952Y-13775000D01*
X13976905Y-13746428D01*
X13967381Y-13736905D01*
D13*
X9005000Y-14139000D02*
G75*
G03*
X9005000Y-14139000I-35000J0D01*
G01*
D11*
X9300714Y-14029476D02*
X9319762Y-14029476D01*
X9338810Y-14039000D01*
X9348333Y-14048524D01*
X9357857Y-14067571D01*
X9367381Y-14105667D01*
X9367381Y-14153286D01*
X9357857Y-14191381D01*
X9348333Y-14210428D01*
X9338810Y-14219952D01*
X9319762Y-14229476D01*
X9300714Y-14229476D01*
X9281667Y-14219952D01*
X9272143Y-14210428D01*
X9262619Y-14191381D01*
X9253095Y-14153286D01*
X9253095Y-14105667D01*
X9262619Y-14067571D01*
X9272143Y-14048524D01*
X9281667Y-14039000D01*
X9300714Y-14029476D01*
X9453095Y-14210428D02*
X9462619Y-14219952D01*
X9453095Y-14229476D01*
X9443571Y-14219952D01*
X9453095Y-14210428D01*
X9453095Y-14229476D01*
X9529286Y-14029476D02*
X9662619Y-14029476D01*
X9576905Y-14229476D01*
X9776905Y-14029476D02*
X9795952Y-14029476D01*
X9815000Y-14039000D01*
X9824524Y-14048524D01*
X9834048Y-14067571D01*
X9843571Y-14105667D01*
X9843571Y-14153286D01*
X9834048Y-14191381D01*
X9824524Y-14210428D01*
X9815000Y-14219952D01*
X9795952Y-14229476D01*
X9776905Y-14229476D01*
X9757857Y-14219952D01*
X9748333Y-14210428D01*
X9738810Y-14191381D01*
X9729286Y-14153286D01*
X9729286Y-14105667D01*
X9738810Y-14067571D01*
X9748333Y-14048524D01*
X9757857Y-14039000D01*
X9776905Y-14029476D01*
X9967381Y-14029476D02*
X9986429Y-14029476D01*
X10005476Y-14039000D01*
X10015000Y-14048524D01*
X10024524Y-14067571D01*
X10034048Y-14105667D01*
X10034048Y-14153286D01*
X10024524Y-14191381D01*
X10015000Y-14210428D01*
X10005476Y-14219952D01*
X9986429Y-14229476D01*
X9967381Y-14229476D01*
X9948333Y-14219952D01*
X9938810Y-14210428D01*
X9929286Y-14191381D01*
X9919762Y-14153286D01*
X9919762Y-14105667D01*
X9929286Y-14067571D01*
X9938810Y-14048524D01*
X9948333Y-14039000D01*
X9967381Y-14029476D01*
X10119762Y-14229476D02*
X10119762Y-14096143D01*
X10119762Y-14115190D02*
X10129286Y-14105667D01*
X10148333Y-14096143D01*
X10176905Y-14096143D01*
X10195952Y-14105667D01*
X10205476Y-14124714D01*
X10205476Y-14229476D01*
X10205476Y-14124714D02*
X10215000Y-14105667D01*
X10234048Y-14096143D01*
X10262619Y-14096143D01*
X10281667Y-14105667D01*
X10291190Y-14124714D01*
X10291190Y-14229476D01*
X10386429Y-14229476D02*
X10386429Y-14096143D01*
X10386429Y-14115190D02*
X10395952Y-14105667D01*
X10415000Y-14096143D01*
X10443571Y-14096143D01*
X10462619Y-14105667D01*
X10472143Y-14124714D01*
X10472143Y-14229476D01*
X10472143Y-14124714D02*
X10481667Y-14105667D01*
X10500714Y-14096143D01*
X10529286Y-14096143D01*
X10548333Y-14105667D01*
X10557857Y-14124714D01*
X10557857Y-14229476D01*
X10948333Y-14019952D02*
X10776905Y-14277095D01*
X11205476Y-14029476D02*
X11224524Y-14029476D01*
X11243571Y-14039000D01*
X11253095Y-14048524D01*
X11262619Y-14067571D01*
X11272143Y-14105667D01*
X11272143Y-14153286D01*
X11262619Y-14191381D01*
X11253095Y-14210428D01*
X11243571Y-14219952D01*
X11224524Y-14229476D01*
X11205476Y-14229476D01*
X11186428Y-14219952D01*
X11176905Y-14210428D01*
X11167381Y-14191381D01*
X11157857Y-14153286D01*
X11157857Y-14105667D01*
X11167381Y-14067571D01*
X11176905Y-14048524D01*
X11186428Y-14039000D01*
X11205476Y-14029476D01*
X11357857Y-14210428D02*
X11367381Y-14219952D01*
X11357857Y-14229476D01*
X11348333Y-14219952D01*
X11357857Y-14210428D01*
X11357857Y-14229476D01*
X11491190Y-14029476D02*
X11510238Y-14029476D01*
X11529286Y-14039000D01*
X11538809Y-14048524D01*
X11548333Y-14067571D01*
X11557857Y-14105667D01*
X11557857Y-14153286D01*
X11548333Y-14191381D01*
X11538809Y-14210428D01*
X11529286Y-14219952D01*
X11510238Y-14229476D01*
X11491190Y-14229476D01*
X11472143Y-14219952D01*
X11462619Y-14210428D01*
X11453095Y-14191381D01*
X11443571Y-14153286D01*
X11443571Y-14105667D01*
X11453095Y-14067571D01*
X11462619Y-14048524D01*
X11472143Y-14039000D01*
X11491190Y-14029476D01*
X11634048Y-14048524D02*
X11643571Y-14039000D01*
X11662619Y-14029476D01*
X11710238Y-14029476D01*
X11729286Y-14039000D01*
X11738809Y-14048524D01*
X11748333Y-14067571D01*
X11748333Y-14086619D01*
X11738809Y-14115190D01*
X11624524Y-14229476D01*
X11748333Y-14229476D01*
X11815000Y-14029476D02*
X11948333Y-14029476D01*
X11862619Y-14229476D01*
X12110238Y-14029476D02*
X12072143Y-14029476D01*
X12053095Y-14039000D01*
X12043571Y-14048524D01*
X12024524Y-14077095D01*
X12015000Y-14115190D01*
X12015000Y-14191381D01*
X12024524Y-14210428D01*
X12034048Y-14219952D01*
X12053095Y-14229476D01*
X12091190Y-14229476D01*
X12110238Y-14219952D01*
X12119762Y-14210428D01*
X12129286Y-14191381D01*
X12129286Y-14143762D01*
X12119762Y-14124714D01*
X12110238Y-14115190D01*
X12091190Y-14105667D01*
X12053095Y-14105667D01*
X12034048Y-14115190D01*
X12024524Y-14124714D01*
X12015000Y-14143762D01*
X12205476Y-14029476D02*
X12205476Y-14067571D01*
X12281667Y-14029476D02*
X12281667Y-14067571D01*
X12576905Y-14305667D02*
X12567381Y-14296143D01*
X12548333Y-14267571D01*
X12538809Y-14248524D01*
X12529286Y-14219952D01*
X12519762Y-14172333D01*
X12519762Y-14134238D01*
X12529286Y-14086619D01*
X12538809Y-14058048D01*
X12548333Y-14039000D01*
X12567381Y-14010428D01*
X12576905Y-14000905D01*
X12643571Y-14048524D02*
X12653095Y-14039000D01*
X12672143Y-14029476D01*
X12719762Y-14029476D01*
X12738809Y-14039000D01*
X12748333Y-14048524D01*
X12757857Y-14067571D01*
X12757857Y-14086619D01*
X12748333Y-14115190D01*
X12634048Y-14229476D01*
X12757857Y-14229476D01*
X12995952Y-14229476D02*
X12995952Y-14029476D01*
X13081667Y-14229476D02*
X13081667Y-14124714D01*
X13072143Y-14105667D01*
X13053095Y-14096143D01*
X13024524Y-14096143D01*
X13005476Y-14105667D01*
X12995952Y-14115190D01*
X13205476Y-14229476D02*
X13186428Y-14219952D01*
X13176905Y-14210428D01*
X13167381Y-14191381D01*
X13167381Y-14134238D01*
X13176905Y-14115190D01*
X13186428Y-14105667D01*
X13205476Y-14096143D01*
X13234048Y-14096143D01*
X13253095Y-14105667D01*
X13262619Y-14115190D01*
X13272143Y-14134238D01*
X13272143Y-14191381D01*
X13262619Y-14210428D01*
X13253095Y-14219952D01*
X13234048Y-14229476D01*
X13205476Y-14229476D01*
X13386428Y-14229476D02*
X13367381Y-14219952D01*
X13357857Y-14200905D01*
X13357857Y-14029476D01*
X13538809Y-14219952D02*
X13519762Y-14229476D01*
X13481667Y-14229476D01*
X13462619Y-14219952D01*
X13453095Y-14200905D01*
X13453095Y-14124714D01*
X13462619Y-14105667D01*
X13481667Y-14096143D01*
X13519762Y-14096143D01*
X13538809Y-14105667D01*
X13548333Y-14124714D01*
X13548333Y-14143762D01*
X13453095Y-14162809D01*
X13624524Y-14219952D02*
X13643571Y-14229476D01*
X13681667Y-14229476D01*
X13700714Y-14219952D01*
X13710238Y-14200905D01*
X13710238Y-14191381D01*
X13700714Y-14172333D01*
X13681667Y-14162809D01*
X13653095Y-14162809D01*
X13634048Y-14153286D01*
X13624524Y-14134238D01*
X13624524Y-14124714D01*
X13634048Y-14105667D01*
X13653095Y-14096143D01*
X13681667Y-14096143D01*
X13700714Y-14105667D01*
X13948333Y-14153286D02*
X14100714Y-14153286D01*
X14024524Y-14229476D02*
X14024524Y-14077095D01*
X14338809Y-14048524D02*
X14348333Y-14039000D01*
X14367381Y-14029476D01*
X14415000Y-14029476D01*
X14434048Y-14039000D01*
X14443571Y-14048524D01*
X14453095Y-14067571D01*
X14453095Y-14086619D01*
X14443571Y-14115190D01*
X14329286Y-14229476D01*
X14453095Y-14229476D01*
X14681667Y-14219952D02*
X14700714Y-14229476D01*
X14738809Y-14229476D01*
X14757857Y-14219952D01*
X14767381Y-14200905D01*
X14767381Y-14191381D01*
X14757857Y-14172333D01*
X14738809Y-14162809D01*
X14710238Y-14162809D01*
X14691190Y-14153286D01*
X14681667Y-14134238D01*
X14681667Y-14124714D01*
X14691190Y-14105667D01*
X14710238Y-14096143D01*
X14738809Y-14096143D01*
X14757857Y-14105667D01*
X14881667Y-14229476D02*
X14862619Y-14219952D01*
X14853095Y-14200905D01*
X14853095Y-14029476D01*
X14986428Y-14229476D02*
X14967381Y-14219952D01*
X14957857Y-14210428D01*
X14948333Y-14191381D01*
X14948333Y-14134238D01*
X14957857Y-14115190D01*
X14967381Y-14105667D01*
X14986428Y-14096143D01*
X15015000Y-14096143D01*
X15034048Y-14105667D01*
X15043571Y-14115190D01*
X15053095Y-14134238D01*
X15053095Y-14191381D01*
X15043571Y-14210428D01*
X15034048Y-14219952D01*
X15015000Y-14229476D01*
X14986428Y-14229476D01*
X15110238Y-14096143D02*
X15186428Y-14096143D01*
X15138809Y-14029476D02*
X15138809Y-14200905D01*
X15148333Y-14219952D01*
X15167381Y-14229476D01*
X15186428Y-14229476D01*
X15243571Y-14219952D02*
X15262619Y-14229476D01*
X15300714Y-14229476D01*
X15319762Y-14219952D01*
X15329286Y-14200905D01*
X15329286Y-14191381D01*
X15319762Y-14172333D01*
X15300714Y-14162809D01*
X15272143Y-14162809D01*
X15253095Y-14153286D01*
X15243571Y-14134238D01*
X15243571Y-14124714D01*
X15253095Y-14105667D01*
X15272143Y-14096143D01*
X15300714Y-14096143D01*
X15319762Y-14105667D01*
X15395952Y-14305667D02*
X15405476Y-14296143D01*
X15424524Y-14267571D01*
X15434048Y-14248524D01*
X15443571Y-14219952D01*
X15453095Y-14172333D01*
X15453095Y-14134238D01*
X15443571Y-14086619D01*
X15434048Y-14058048D01*
X15424524Y-14039000D01*
X15405476Y-14010428D01*
X15395952Y-14000905D01*
D14*
X8966900Y-14364900D02*
X8966900Y-14441100D01*
X8928800Y-14403000D02*
X9005000Y-14403000D01*
D11*
X9300714Y-14293476D02*
X9319762Y-14293476D01*
X9338810Y-14303000D01*
X9348333Y-14312524D01*
X9357857Y-14331571D01*
X9367381Y-14369667D01*
X9367381Y-14417286D01*
X9357857Y-14455381D01*
X9348333Y-14474428D01*
X9338810Y-14483952D01*
X9319762Y-14493476D01*
X9300714Y-14493476D01*
X9281667Y-14483952D01*
X9272143Y-14474428D01*
X9262619Y-14455381D01*
X9253095Y-14417286D01*
X9253095Y-14369667D01*
X9262619Y-14331571D01*
X9272143Y-14312524D01*
X9281667Y-14303000D01*
X9300714Y-14293476D01*
X9453095Y-14474428D02*
X9462619Y-14483952D01*
X9453095Y-14493476D01*
X9443571Y-14483952D01*
X9453095Y-14474428D01*
X9453095Y-14493476D01*
X9529286Y-14293476D02*
X9662619Y-14293476D01*
X9576905Y-14493476D01*
X9824524Y-14293476D02*
X9786429Y-14293476D01*
X9767381Y-14303000D01*
X9757857Y-14312524D01*
X9738810Y-14341095D01*
X9729286Y-14379190D01*
X9729286Y-14455381D01*
X9738810Y-14474428D01*
X9748333Y-14483952D01*
X9767381Y-14493476D01*
X9805476Y-14493476D01*
X9824524Y-14483952D01*
X9834048Y-14474428D01*
X9843571Y-14455381D01*
X9843571Y-14407762D01*
X9834048Y-14388714D01*
X9824524Y-14379190D01*
X9805476Y-14369667D01*
X9767381Y-14369667D01*
X9748333Y-14379190D01*
X9738810Y-14388714D01*
X9729286Y-14407762D01*
X9919762Y-14312524D02*
X9929286Y-14303000D01*
X9948333Y-14293476D01*
X9995952Y-14293476D01*
X10015000Y-14303000D01*
X10024524Y-14312524D01*
X10034048Y-14331571D01*
X10034048Y-14350619D01*
X10024524Y-14379190D01*
X9910238Y-14493476D01*
X10034048Y-14493476D01*
X10119762Y-14493476D02*
X10119762Y-14360143D01*
X10119762Y-14379190D02*
X10129286Y-14369667D01*
X10148333Y-14360143D01*
X10176905Y-14360143D01*
X10195952Y-14369667D01*
X10205476Y-14388714D01*
X10205476Y-14493476D01*
X10205476Y-14388714D02*
X10215000Y-14369667D01*
X10234048Y-14360143D01*
X10262619Y-14360143D01*
X10281667Y-14369667D01*
X10291190Y-14388714D01*
X10291190Y-14493476D01*
X10386429Y-14493476D02*
X10386429Y-14360143D01*
X10386429Y-14379190D02*
X10395952Y-14369667D01*
X10415000Y-14360143D01*
X10443571Y-14360143D01*
X10462619Y-14369667D01*
X10472143Y-14388714D01*
X10472143Y-14493476D01*
X10472143Y-14388714D02*
X10481667Y-14369667D01*
X10500714Y-14360143D01*
X10529286Y-14360143D01*
X10548333Y-14369667D01*
X10557857Y-14388714D01*
X10557857Y-14493476D01*
X10948333Y-14283952D02*
X10776905Y-14541095D01*
X11205476Y-14293476D02*
X11224524Y-14293476D01*
X11243571Y-14303000D01*
X11253095Y-14312524D01*
X11262619Y-14331571D01*
X11272143Y-14369667D01*
X11272143Y-14417286D01*
X11262619Y-14455381D01*
X11253095Y-14474428D01*
X11243571Y-14483952D01*
X11224524Y-14493476D01*
X11205476Y-14493476D01*
X11186428Y-14483952D01*
X11176905Y-14474428D01*
X11167381Y-14455381D01*
X11157857Y-14417286D01*
X11157857Y-14369667D01*
X11167381Y-14331571D01*
X11176905Y-14312524D01*
X11186428Y-14303000D01*
X11205476Y-14293476D01*
X11357857Y-14474428D02*
X11367381Y-14483952D01*
X11357857Y-14493476D01*
X11348333Y-14483952D01*
X11357857Y-14474428D01*
X11357857Y-14493476D01*
X11491190Y-14293476D02*
X11510238Y-14293476D01*
X11529286Y-14303000D01*
X11538809Y-14312524D01*
X11548333Y-14331571D01*
X11557857Y-14369667D01*
X11557857Y-14417286D01*
X11548333Y-14455381D01*
X11538809Y-14474428D01*
X11529286Y-14483952D01*
X11510238Y-14493476D01*
X11491190Y-14493476D01*
X11472143Y-14483952D01*
X11462619Y-14474428D01*
X11453095Y-14455381D01*
X11443571Y-14417286D01*
X11443571Y-14369667D01*
X11453095Y-14331571D01*
X11462619Y-14312524D01*
X11472143Y-14303000D01*
X11491190Y-14293476D01*
X11624524Y-14293476D02*
X11748333Y-14293476D01*
X11681667Y-14369667D01*
X11710238Y-14369667D01*
X11729286Y-14379190D01*
X11738809Y-14388714D01*
X11748333Y-14407762D01*
X11748333Y-14455381D01*
X11738809Y-14474428D01*
X11729286Y-14483952D01*
X11710238Y-14493476D01*
X11653095Y-14493476D01*
X11634048Y-14483952D01*
X11624524Y-14474428D01*
X11872143Y-14293476D02*
X11891190Y-14293476D01*
X11910238Y-14303000D01*
X11919762Y-14312524D01*
X11929286Y-14331571D01*
X11938809Y-14369667D01*
X11938809Y-14417286D01*
X11929286Y-14455381D01*
X11919762Y-14474428D01*
X11910238Y-14483952D01*
X11891190Y-14493476D01*
X11872143Y-14493476D01*
X11853095Y-14483952D01*
X11843571Y-14474428D01*
X11834048Y-14455381D01*
X11824524Y-14417286D01*
X11824524Y-14369667D01*
X11834048Y-14331571D01*
X11843571Y-14312524D01*
X11853095Y-14303000D01*
X11872143Y-14293476D01*
X12062619Y-14293476D02*
X12081667Y-14293476D01*
X12100714Y-14303000D01*
X12110238Y-14312524D01*
X12119762Y-14331571D01*
X12129286Y-14369667D01*
X12129286Y-14417286D01*
X12119762Y-14455381D01*
X12110238Y-14474428D01*
X12100714Y-14483952D01*
X12081667Y-14493476D01*
X12062619Y-14493476D01*
X12043571Y-14483952D01*
X12034048Y-14474428D01*
X12024524Y-14455381D01*
X12015000Y-14417286D01*
X12015000Y-14369667D01*
X12024524Y-14331571D01*
X12034048Y-14312524D01*
X12043571Y-14303000D01*
X12062619Y-14293476D01*
X12205476Y-14293476D02*
X12205476Y-14331571D01*
X12281667Y-14293476D02*
X12281667Y-14331571D01*
X12576905Y-14569667D02*
X12567381Y-14560143D01*
X12548333Y-14531571D01*
X12538809Y-14512524D01*
X12529286Y-14483952D01*
X12519762Y-14436333D01*
X12519762Y-14398238D01*
X12529286Y-14350619D01*
X12538809Y-14322048D01*
X12548333Y-14303000D01*
X12567381Y-14274428D01*
X12576905Y-14264905D01*
X12643571Y-14312524D02*
X12653095Y-14303000D01*
X12672143Y-14293476D01*
X12719762Y-14293476D01*
X12738809Y-14303000D01*
X12748333Y-14312524D01*
X12757857Y-14331571D01*
X12757857Y-14350619D01*
X12748333Y-14379190D01*
X12634048Y-14493476D01*
X12757857Y-14493476D01*
X12995952Y-14493476D02*
X12995952Y-14293476D01*
X13081667Y-14493476D02*
X13081667Y-14388714D01*
X13072143Y-14369667D01*
X13053095Y-14360143D01*
X13024524Y-14360143D01*
X13005476Y-14369667D01*
X12995952Y-14379190D01*
X13205476Y-14493476D02*
X13186428Y-14483952D01*
X13176905Y-14474428D01*
X13167381Y-14455381D01*
X13167381Y-14398238D01*
X13176905Y-14379190D01*
X13186428Y-14369667D01*
X13205476Y-14360143D01*
X13234048Y-14360143D01*
X13253095Y-14369667D01*
X13262619Y-14379190D01*
X13272143Y-14398238D01*
X13272143Y-14455381D01*
X13262619Y-14474428D01*
X13253095Y-14483952D01*
X13234048Y-14493476D01*
X13205476Y-14493476D01*
X13386428Y-14493476D02*
X13367381Y-14483952D01*
X13357857Y-14464905D01*
X13357857Y-14293476D01*
X13538809Y-14483952D02*
X13519762Y-14493476D01*
X13481667Y-14493476D01*
X13462619Y-14483952D01*
X13453095Y-14464905D01*
X13453095Y-14388714D01*
X13462619Y-14369667D01*
X13481667Y-14360143D01*
X13519762Y-14360143D01*
X13538809Y-14369667D01*
X13548333Y-14388714D01*
X13548333Y-14407762D01*
X13453095Y-14426809D01*
X13624524Y-14483952D02*
X13643571Y-14493476D01*
X13681667Y-14493476D01*
X13700714Y-14483952D01*
X13710238Y-14464905D01*
X13710238Y-14455381D01*
X13700714Y-14436333D01*
X13681667Y-14426809D01*
X13653095Y-14426809D01*
X13634048Y-14417286D01*
X13624524Y-14398238D01*
X13624524Y-14388714D01*
X13634048Y-14369667D01*
X13653095Y-14360143D01*
X13681667Y-14360143D01*
X13700714Y-14369667D01*
X13776905Y-14569667D02*
X13786428Y-14560143D01*
X13805476Y-14531571D01*
X13815000Y-14512524D01*
X13824524Y-14483952D01*
X13834048Y-14436333D01*
X13834048Y-14398238D01*
X13824524Y-14350619D01*
X13815000Y-14322048D01*
X13805476Y-14303000D01*
X13786428Y-14274428D01*
X13776905Y-14264905D01*
D15*
X8993285Y-14695284D02*
X8993285Y-14638715D01*
X8936716Y-14638715D01*
X8936716Y-14695284D01*
X8993285Y-14695284D01*
D11*
X9300714Y-14557476D02*
X9319762Y-14557476D01*
X9338810Y-14567000D01*
X9348333Y-14576524D01*
X9357857Y-14595571D01*
X9367381Y-14633667D01*
X9367381Y-14681286D01*
X9357857Y-14719381D01*
X9348333Y-14738428D01*
X9338810Y-14747952D01*
X9319762Y-14757476D01*
X9300714Y-14757476D01*
X9281667Y-14747952D01*
X9272143Y-14738428D01*
X9262619Y-14719381D01*
X9253095Y-14681286D01*
X9253095Y-14633667D01*
X9262619Y-14595571D01*
X9272143Y-14576524D01*
X9281667Y-14567000D01*
X9300714Y-14557476D01*
X9453095Y-14738428D02*
X9462619Y-14747952D01*
X9453095Y-14757476D01*
X9443571Y-14747952D01*
X9453095Y-14738428D01*
X9453095Y-14757476D01*
X9576905Y-14643190D02*
X9557857Y-14633667D01*
X9548333Y-14624143D01*
X9538810Y-14605095D01*
X9538810Y-14595571D01*
X9548333Y-14576524D01*
X9557857Y-14567000D01*
X9576905Y-14557476D01*
X9615000Y-14557476D01*
X9634048Y-14567000D01*
X9643571Y-14576524D01*
X9653095Y-14595571D01*
X9653095Y-14605095D01*
X9643571Y-14624143D01*
X9634048Y-14633667D01*
X9615000Y-14643190D01*
X9576905Y-14643190D01*
X9557857Y-14652714D01*
X9548333Y-14662238D01*
X9538810Y-14681286D01*
X9538810Y-14719381D01*
X9548333Y-14738428D01*
X9557857Y-14747952D01*
X9576905Y-14757476D01*
X9615000Y-14757476D01*
X9634048Y-14747952D01*
X9643571Y-14738428D01*
X9653095Y-14719381D01*
X9653095Y-14681286D01*
X9643571Y-14662238D01*
X9634048Y-14652714D01*
X9615000Y-14643190D01*
X9776905Y-14557476D02*
X9795952Y-14557476D01*
X9815000Y-14567000D01*
X9824524Y-14576524D01*
X9834048Y-14595571D01*
X9843571Y-14633667D01*
X9843571Y-14681286D01*
X9834048Y-14719381D01*
X9824524Y-14738428D01*
X9815000Y-14747952D01*
X9795952Y-14757476D01*
X9776905Y-14757476D01*
X9757857Y-14747952D01*
X9748333Y-14738428D01*
X9738810Y-14719381D01*
X9729286Y-14681286D01*
X9729286Y-14633667D01*
X9738810Y-14595571D01*
X9748333Y-14576524D01*
X9757857Y-14567000D01*
X9776905Y-14557476D01*
X9967381Y-14557476D02*
X9986429Y-14557476D01*
X10005476Y-14567000D01*
X10015000Y-14576524D01*
X10024524Y-14595571D01*
X10034048Y-14633667D01*
X10034048Y-14681286D01*
X10024524Y-14719381D01*
X10015000Y-14738428D01*
X10005476Y-14747952D01*
X9986429Y-14757476D01*
X9967381Y-14757476D01*
X9948333Y-14747952D01*
X9938810Y-14738428D01*
X9929286Y-14719381D01*
X9919762Y-14681286D01*
X9919762Y-14633667D01*
X9929286Y-14595571D01*
X9938810Y-14576524D01*
X9948333Y-14567000D01*
X9967381Y-14557476D01*
X10119762Y-14757476D02*
X10119762Y-14624143D01*
X10119762Y-14643190D02*
X10129286Y-14633667D01*
X10148333Y-14624143D01*
X10176905Y-14624143D01*
X10195952Y-14633667D01*
X10205476Y-14652714D01*
X10205476Y-14757476D01*
X10205476Y-14652714D02*
X10215000Y-14633667D01*
X10234048Y-14624143D01*
X10262619Y-14624143D01*
X10281667Y-14633667D01*
X10291190Y-14652714D01*
X10291190Y-14757476D01*
X10386429Y-14757476D02*
X10386429Y-14624143D01*
X10386429Y-14643190D02*
X10395952Y-14633667D01*
X10415000Y-14624143D01*
X10443571Y-14624143D01*
X10462619Y-14633667D01*
X10472143Y-14652714D01*
X10472143Y-14757476D01*
X10472143Y-14652714D02*
X10481667Y-14633667D01*
X10500714Y-14624143D01*
X10529286Y-14624143D01*
X10548333Y-14633667D01*
X10557857Y-14652714D01*
X10557857Y-14757476D01*
X10948333Y-14547952D02*
X10776905Y-14805095D01*
X11205476Y-14557476D02*
X11224524Y-14557476D01*
X11243571Y-14567000D01*
X11253095Y-14576524D01*
X11262619Y-14595571D01*
X11272143Y-14633667D01*
X11272143Y-14681286D01*
X11262619Y-14719381D01*
X11253095Y-14738428D01*
X11243571Y-14747952D01*
X11224524Y-14757476D01*
X11205476Y-14757476D01*
X11186428Y-14747952D01*
X11176905Y-14738428D01*
X11167381Y-14719381D01*
X11157857Y-14681286D01*
X11157857Y-14633667D01*
X11167381Y-14595571D01*
X11176905Y-14576524D01*
X11186428Y-14567000D01*
X11205476Y-14557476D01*
X11357857Y-14738428D02*
X11367381Y-14747952D01*
X11357857Y-14757476D01*
X11348333Y-14747952D01*
X11357857Y-14738428D01*
X11357857Y-14757476D01*
X11491190Y-14557476D02*
X11510238Y-14557476D01*
X11529286Y-14567000D01*
X11538809Y-14576524D01*
X11548333Y-14595571D01*
X11557857Y-14633667D01*
X11557857Y-14681286D01*
X11548333Y-14719381D01*
X11538809Y-14738428D01*
X11529286Y-14747952D01*
X11510238Y-14757476D01*
X11491190Y-14757476D01*
X11472143Y-14747952D01*
X11462619Y-14738428D01*
X11453095Y-14719381D01*
X11443571Y-14681286D01*
X11443571Y-14633667D01*
X11453095Y-14595571D01*
X11462619Y-14576524D01*
X11472143Y-14567000D01*
X11491190Y-14557476D01*
X11624524Y-14557476D02*
X11748333Y-14557476D01*
X11681667Y-14633667D01*
X11710238Y-14633667D01*
X11729286Y-14643190D01*
X11738809Y-14652714D01*
X11748333Y-14671762D01*
X11748333Y-14719381D01*
X11738809Y-14738428D01*
X11729286Y-14747952D01*
X11710238Y-14757476D01*
X11653095Y-14757476D01*
X11634048Y-14747952D01*
X11624524Y-14738428D01*
X11938809Y-14757476D02*
X11824524Y-14757476D01*
X11881667Y-14757476D02*
X11881667Y-14557476D01*
X11862619Y-14586048D01*
X11843571Y-14605095D01*
X11824524Y-14614619D01*
X12119762Y-14557476D02*
X12024524Y-14557476D01*
X12015000Y-14652714D01*
X12024524Y-14643190D01*
X12043571Y-14633667D01*
X12091190Y-14633667D01*
X12110238Y-14643190D01*
X12119762Y-14652714D01*
X12129286Y-14671762D01*
X12129286Y-14719381D01*
X12119762Y-14738428D01*
X12110238Y-14747952D01*
X12091190Y-14757476D01*
X12043571Y-14757476D01*
X12024524Y-14747952D01*
X12015000Y-14738428D01*
X12205476Y-14557476D02*
X12205476Y-14595571D01*
X12281667Y-14557476D02*
X12281667Y-14595571D01*
X12576905Y-14833667D02*
X12567381Y-14824143D01*
X12548333Y-14795571D01*
X12538809Y-14776524D01*
X12529286Y-14747952D01*
X12519762Y-14700333D01*
X12519762Y-14662238D01*
X12529286Y-14614619D01*
X12538809Y-14586048D01*
X12548333Y-14567000D01*
X12567381Y-14538428D01*
X12576905Y-14528905D01*
X12634048Y-14557476D02*
X12757857Y-14557476D01*
X12691190Y-14633667D01*
X12719762Y-14633667D01*
X12738809Y-14643190D01*
X12748333Y-14652714D01*
X12757857Y-14671762D01*
X12757857Y-14719381D01*
X12748333Y-14738428D01*
X12738809Y-14747952D01*
X12719762Y-14757476D01*
X12662619Y-14757476D01*
X12643571Y-14747952D01*
X12634048Y-14738428D01*
X12995952Y-14757476D02*
X12995952Y-14557476D01*
X13081667Y-14757476D02*
X13081667Y-14652714D01*
X13072143Y-14633667D01*
X13053095Y-14624143D01*
X13024524Y-14624143D01*
X13005476Y-14633667D01*
X12995952Y-14643190D01*
X13205476Y-14757476D02*
X13186428Y-14747952D01*
X13176905Y-14738428D01*
X13167381Y-14719381D01*
X13167381Y-14662238D01*
X13176905Y-14643190D01*
X13186428Y-14633667D01*
X13205476Y-14624143D01*
X13234048Y-14624143D01*
X13253095Y-14633667D01*
X13262619Y-14643190D01*
X13272143Y-14662238D01*
X13272143Y-14719381D01*
X13262619Y-14738428D01*
X13253095Y-14747952D01*
X13234048Y-14757476D01*
X13205476Y-14757476D01*
X13386428Y-14757476D02*
X13367381Y-14747952D01*
X13357857Y-14728905D01*
X13357857Y-14557476D01*
X13538809Y-14747952D02*
X13519762Y-14757476D01*
X13481667Y-14757476D01*
X13462619Y-14747952D01*
X13453095Y-14728905D01*
X13453095Y-14652714D01*
X13462619Y-14633667D01*
X13481667Y-14624143D01*
X13519762Y-14624143D01*
X13538809Y-14633667D01*
X13548333Y-14652714D01*
X13548333Y-14671762D01*
X13453095Y-14690809D01*
X13624524Y-14747952D02*
X13643571Y-14757476D01*
X13681667Y-14757476D01*
X13700714Y-14747952D01*
X13710238Y-14728905D01*
X13710238Y-14719381D01*
X13700714Y-14700333D01*
X13681667Y-14690809D01*
X13653095Y-14690809D01*
X13634048Y-14681286D01*
X13624524Y-14662238D01*
X13624524Y-14652714D01*
X13634048Y-14633667D01*
X13653095Y-14624143D01*
X13681667Y-14624143D01*
X13700714Y-14633667D01*
X13776905Y-14833667D02*
X13786428Y-14824143D01*
X13805476Y-14795571D01*
X13815000Y-14776524D01*
X13824524Y-14747952D01*
X13834048Y-14700333D01*
X13834048Y-14662238D01*
X13824524Y-14614619D01*
X13815000Y-14586048D01*
X13805476Y-14567000D01*
X13786428Y-14538428D01*
X13776905Y-14528905D01*
D16*
X8955000Y-14981000D02*
X9005000Y-14931000D01*
X8955000Y-14881000D01*
X8905000Y-14931000D01*
X8955000Y-14981000D01*
D11*
X9367381Y-15021476D02*
X9253095Y-15021476D01*
X9310238Y-15021476D02*
X9310238Y-14821476D01*
X9291190Y-14850048D01*
X9272143Y-14869095D01*
X9253095Y-14878619D01*
X9453095Y-15002428D02*
X9462619Y-15011952D01*
X9453095Y-15021476D01*
X9443571Y-15011952D01*
X9453095Y-15002428D01*
X9453095Y-15021476D01*
X9586429Y-14821476D02*
X9605476Y-14821476D01*
X9624524Y-14831000D01*
X9634048Y-14840524D01*
X9643571Y-14859571D01*
X9653095Y-14897667D01*
X9653095Y-14945286D01*
X9643571Y-14983381D01*
X9634048Y-15002428D01*
X9624524Y-15011952D01*
X9605476Y-15021476D01*
X9586429Y-15021476D01*
X9567381Y-15011952D01*
X9557857Y-15002428D01*
X9548333Y-14983381D01*
X9538810Y-14945286D01*
X9538810Y-14897667D01*
X9548333Y-14859571D01*
X9557857Y-14840524D01*
X9567381Y-14831000D01*
X9586429Y-14821476D01*
X9776905Y-14821476D02*
X9795952Y-14821476D01*
X9815000Y-14831000D01*
X9824524Y-14840524D01*
X9834048Y-14859571D01*
X9843571Y-14897667D01*
X9843571Y-14945286D01*
X9834048Y-14983381D01*
X9824524Y-15002428D01*
X9815000Y-15011952D01*
X9795952Y-15021476D01*
X9776905Y-15021476D01*
X9757857Y-15011952D01*
X9748333Y-15002428D01*
X9738810Y-14983381D01*
X9729286Y-14945286D01*
X9729286Y-14897667D01*
X9738810Y-14859571D01*
X9748333Y-14840524D01*
X9757857Y-14831000D01*
X9776905Y-14821476D01*
X9967381Y-14821476D02*
X9986429Y-14821476D01*
X10005476Y-14831000D01*
X10015000Y-14840524D01*
X10024524Y-14859571D01*
X10034048Y-14897667D01*
X10034048Y-14945286D01*
X10024524Y-14983381D01*
X10015000Y-15002428D01*
X10005476Y-15011952D01*
X9986429Y-15021476D01*
X9967381Y-15021476D01*
X9948333Y-15011952D01*
X9938810Y-15002428D01*
X9929286Y-14983381D01*
X9919762Y-14945286D01*
X9919762Y-14897667D01*
X9929286Y-14859571D01*
X9938810Y-14840524D01*
X9948333Y-14831000D01*
X9967381Y-14821476D01*
X10119762Y-15021476D02*
X10119762Y-14888143D01*
X10119762Y-14907190D02*
X10129286Y-14897667D01*
X10148333Y-14888143D01*
X10176905Y-14888143D01*
X10195952Y-14897667D01*
X10205476Y-14916714D01*
X10205476Y-15021476D01*
X10205476Y-14916714D02*
X10215000Y-14897667D01*
X10234048Y-14888143D01*
X10262619Y-14888143D01*
X10281667Y-14897667D01*
X10291190Y-14916714D01*
X10291190Y-15021476D01*
X10386429Y-15021476D02*
X10386429Y-14888143D01*
X10386429Y-14907190D02*
X10395952Y-14897667D01*
X10415000Y-14888143D01*
X10443571Y-14888143D01*
X10462619Y-14897667D01*
X10472143Y-14916714D01*
X10472143Y-15021476D01*
X10472143Y-14916714D02*
X10481667Y-14897667D01*
X10500714Y-14888143D01*
X10529286Y-14888143D01*
X10548333Y-14897667D01*
X10557857Y-14916714D01*
X10557857Y-15021476D01*
X10948333Y-14811952D02*
X10776905Y-15069095D01*
X11205476Y-14821476D02*
X11224524Y-14821476D01*
X11243571Y-14831000D01*
X11253095Y-14840524D01*
X11262619Y-14859571D01*
X11272143Y-14897667D01*
X11272143Y-14945286D01*
X11262619Y-14983381D01*
X11253095Y-15002428D01*
X11243571Y-15011952D01*
X11224524Y-15021476D01*
X11205476Y-15021476D01*
X11186428Y-15011952D01*
X11176905Y-15002428D01*
X11167381Y-14983381D01*
X11157857Y-14945286D01*
X11157857Y-14897667D01*
X11167381Y-14859571D01*
X11176905Y-14840524D01*
X11186428Y-14831000D01*
X11205476Y-14821476D01*
X11357857Y-15002428D02*
X11367381Y-15011952D01*
X11357857Y-15021476D01*
X11348333Y-15011952D01*
X11357857Y-15002428D01*
X11357857Y-15021476D01*
X11491190Y-14821476D02*
X11510238Y-14821476D01*
X11529286Y-14831000D01*
X11538809Y-14840524D01*
X11548333Y-14859571D01*
X11557857Y-14897667D01*
X11557857Y-14945286D01*
X11548333Y-14983381D01*
X11538809Y-15002428D01*
X11529286Y-15011952D01*
X11510238Y-15021476D01*
X11491190Y-15021476D01*
X11472143Y-15011952D01*
X11462619Y-15002428D01*
X11453095Y-14983381D01*
X11443571Y-14945286D01*
X11443571Y-14897667D01*
X11453095Y-14859571D01*
X11462619Y-14840524D01*
X11472143Y-14831000D01*
X11491190Y-14821476D01*
X11624524Y-14821476D02*
X11748333Y-14821476D01*
X11681667Y-14897667D01*
X11710238Y-14897667D01*
X11729286Y-14907190D01*
X11738809Y-14916714D01*
X11748333Y-14935762D01*
X11748333Y-14983381D01*
X11738809Y-15002428D01*
X11729286Y-15011952D01*
X11710238Y-15021476D01*
X11653095Y-15021476D01*
X11634048Y-15011952D01*
X11624524Y-15002428D01*
X11843571Y-15021476D02*
X11881667Y-15021476D01*
X11900714Y-15011952D01*
X11910238Y-15002428D01*
X11929286Y-14973857D01*
X11938809Y-14935762D01*
X11938809Y-14859571D01*
X11929286Y-14840524D01*
X11919762Y-14831000D01*
X11900714Y-14821476D01*
X11862619Y-14821476D01*
X11843571Y-14831000D01*
X11834048Y-14840524D01*
X11824524Y-14859571D01*
X11824524Y-14907190D01*
X11834048Y-14926238D01*
X11843571Y-14935762D01*
X11862619Y-14945286D01*
X11900714Y-14945286D01*
X11919762Y-14935762D01*
X11929286Y-14926238D01*
X11938809Y-14907190D01*
X12110238Y-14888143D02*
X12110238Y-15021476D01*
X12062619Y-14811952D02*
X12015000Y-14954809D01*
X12138809Y-14954809D01*
X12205476Y-14821476D02*
X12205476Y-14859571D01*
X12281667Y-14821476D02*
X12281667Y-14859571D01*
X12576905Y-15097667D02*
X12567381Y-15088143D01*
X12548333Y-15059571D01*
X12538809Y-15040524D01*
X12529286Y-15011952D01*
X12519762Y-14964333D01*
X12519762Y-14926238D01*
X12529286Y-14878619D01*
X12538809Y-14850048D01*
X12548333Y-14831000D01*
X12567381Y-14802428D01*
X12576905Y-14792905D01*
X12757857Y-15021476D02*
X12643571Y-15021476D01*
X12700714Y-15021476D02*
X12700714Y-14821476D01*
X12681667Y-14850048D01*
X12662619Y-14869095D01*
X12643571Y-14878619D01*
X12824524Y-14821476D02*
X12948333Y-14821476D01*
X12881667Y-14897667D01*
X12910238Y-14897667D01*
X12929286Y-14907190D01*
X12938809Y-14916714D01*
X12948333Y-14935762D01*
X12948333Y-14983381D01*
X12938809Y-15002428D01*
X12929286Y-15011952D01*
X12910238Y-15021476D01*
X12853095Y-15021476D01*
X12834048Y-15011952D01*
X12824524Y-15002428D01*
X13024524Y-14840524D02*
X13034048Y-14831000D01*
X13053095Y-14821476D01*
X13100714Y-14821476D01*
X13119762Y-14831000D01*
X13129286Y-14840524D01*
X13138809Y-14859571D01*
X13138809Y-14878619D01*
X13129286Y-14907190D01*
X13015000Y-15021476D01*
X13138809Y-15021476D01*
X13376905Y-15021476D02*
X13376905Y-14821476D01*
X13462619Y-15021476D02*
X13462619Y-14916714D01*
X13453095Y-14897667D01*
X13434048Y-14888143D01*
X13405476Y-14888143D01*
X13386428Y-14897667D01*
X13376905Y-14907190D01*
X13586428Y-15021476D02*
X13567381Y-15011952D01*
X13557857Y-15002428D01*
X13548333Y-14983381D01*
X13548333Y-14926238D01*
X13557857Y-14907190D01*
X13567381Y-14897667D01*
X13586428Y-14888143D01*
X13615000Y-14888143D01*
X13634048Y-14897667D01*
X13643571Y-14907190D01*
X13653095Y-14926238D01*
X13653095Y-14983381D01*
X13643571Y-15002428D01*
X13634048Y-15011952D01*
X13615000Y-15021476D01*
X13586428Y-15021476D01*
X13767381Y-15021476D02*
X13748333Y-15011952D01*
X13738809Y-14992905D01*
X13738809Y-14821476D01*
X13919762Y-15011952D02*
X13900714Y-15021476D01*
X13862619Y-15021476D01*
X13843571Y-15011952D01*
X13834048Y-14992905D01*
X13834048Y-14916714D01*
X13843571Y-14897667D01*
X13862619Y-14888143D01*
X13900714Y-14888143D01*
X13919762Y-14897667D01*
X13929286Y-14916714D01*
X13929286Y-14935762D01*
X13834048Y-14954809D01*
X14005476Y-15011952D02*
X14024524Y-15021476D01*
X14062619Y-15021476D01*
X14081667Y-15011952D01*
X14091190Y-14992905D01*
X14091190Y-14983381D01*
X14081667Y-14964333D01*
X14062619Y-14954809D01*
X14034048Y-14954809D01*
X14015000Y-14945286D01*
X14005476Y-14926238D01*
X14005476Y-14916714D01*
X14015000Y-14897667D01*
X14034048Y-14888143D01*
X14062619Y-14888143D01*
X14081667Y-14897667D01*
X14157857Y-15097667D02*
X14167381Y-15088143D01*
X14186428Y-15059571D01*
X14195952Y-15040524D01*
X14205476Y-15011952D01*
X14215000Y-14964333D01*
X14215000Y-14926238D01*
X14205476Y-14878619D01*
X14195952Y-14850048D01*
X14186428Y-14831000D01*
X14167381Y-14802428D01*
X14157857Y-14792905D01*
M02*
