%TF.GenerationSoftware,KiCad,Pcbnew,(6.0.2-0)*%
%TF.CreationDate,2022-03-20T10:30:07+02:00*%
%TF.ProjectId,main,6d61696e-2e6b-4696-9361-645f70636258,rev?*%
%TF.SameCoordinates,Original*%
%TF.FileFunction,Soldermask,Bot*%
%TF.FilePolarity,Negative*%
%FSLAX46Y46*%
G04 Gerber Fmt 4.6, Leading zero omitted, Abs format (unit mm)*
G04 Created by KiCad (PCBNEW (6.0.2-0)) date 2022-03-20 10:30:07*
%MOMM*%
%LPD*%
G01*
G04 APERTURE LIST*
%ADD10R,1.700000X1.700000*%
%ADD11O,1.700000X1.700000*%
%ADD12C,1.524000*%
%ADD13R,0.650000X1.525000*%
%ADD14R,0.950000X0.900000*%
%ADD15R,0.900000X0.950000*%
%ADD16R,1.750000X0.950000*%
%ADD17R,1.750000X3.200000*%
%ADD18R,0.864000X0.806000*%
%ADD19R,1.701000X1.208000*%
%ADD20R,1.050000X1.820000*%
%ADD21R,1.100000X1.700000*%
%ADD22R,1.525000X0.700000*%
%ADD23R,2.513000X3.402000*%
%ADD24R,1.400000X0.400000*%
%ADD25C,1.300000*%
%ADD26O,2.200000X1.300000*%
%ADD27R,0.620000X0.600000*%
%ADD28R,1.820000X1.050000*%
%ADD29R,1.750000X1.050000*%
%ADD30R,1.000000X0.300000*%
%ADD31R,0.300000X1.000000*%
%ADD32R,3.350000X3.350000*%
%ADD33R,0.600000X0.620000*%
%ADD34R,0.900000X1.600000*%
%ADD35O,0.900000X1.600000*%
%ADD36R,1.900000X2.200000*%
%ADD37R,0.700000X1.525000*%
%ADD38R,3.402000X2.513000*%
%ADD39R,1.450000X1.000000*%
%ADD40R,1.525000X0.650000*%
%ADD41R,0.300000X0.800000*%
%ADD42R,0.800000X0.300000*%
%ADD43R,0.940000X0.730000*%
%ADD44R,1.000000X1.250000*%
%ADD45R,1.000000X1.450000*%
%ADD46R,1.200000X0.600000*%
%ADD47R,0.730000X0.940000*%
G04 APERTURE END LIST*
D10*
%TO.C,J2*%
X185280000Y-75610000D03*
D11*
X182740000Y-75610000D03*
X180200000Y-75610000D03*
X177660000Y-75610000D03*
X175120000Y-75610000D03*
X172580000Y-75610000D03*
X170040000Y-75610000D03*
X167500000Y-75610000D03*
X164960000Y-75610000D03*
X162420000Y-75610000D03*
X159880000Y-75610000D03*
X157340000Y-75610000D03*
X154800000Y-75610000D03*
X152260000Y-75610000D03*
X149720000Y-75610000D03*
X147180000Y-75610000D03*
X144640000Y-75610000D03*
X142100000Y-75610000D03*
X139560000Y-75610000D03*
X137020000Y-75610000D03*
X134480000Y-75610000D03*
X131940000Y-75610000D03*
X129400000Y-75610000D03*
X126860000Y-75610000D03*
X124320000Y-75610000D03*
X121780000Y-75610000D03*
X119240000Y-75610000D03*
X116700000Y-75610000D03*
X114160000Y-75610000D03*
X111620000Y-75610000D03*
X109080000Y-75610000D03*
X106540000Y-75610000D03*
X104000000Y-75610000D03*
%TD*%
D10*
%TO.C,J1*%
X185280000Y-65450000D03*
D11*
X182740000Y-65450000D03*
X180200000Y-65450000D03*
X177660000Y-65450000D03*
X175120000Y-65450000D03*
X172580000Y-65450000D03*
X170040000Y-65450000D03*
X167500000Y-65450000D03*
X164960000Y-65450000D03*
X162420000Y-65450000D03*
X159880000Y-65450000D03*
X157340000Y-65450000D03*
X154800000Y-65450000D03*
X152260000Y-65450000D03*
X149720000Y-65450000D03*
X147180000Y-65450000D03*
X144640000Y-65450000D03*
X142100000Y-65450000D03*
X139560000Y-65450000D03*
X137020000Y-65450000D03*
X134480000Y-65450000D03*
X131940000Y-65450000D03*
X129400000Y-65450000D03*
X126860000Y-65450000D03*
X124320000Y-65450000D03*
X121780000Y-65450000D03*
X119240000Y-65450000D03*
X116700000Y-65450000D03*
X114160000Y-65450000D03*
X111620000Y-65450000D03*
X109080000Y-65450000D03*
X106540000Y-65450000D03*
X104000000Y-65450000D03*
%TD*%
D10*
%TO.C,J4*%
X185280000Y-126410000D03*
D11*
X182740000Y-126410000D03*
X180200000Y-126410000D03*
X177660000Y-126410000D03*
X175120000Y-126410000D03*
X172580000Y-126410000D03*
X170040000Y-126410000D03*
X167500000Y-126410000D03*
X164960000Y-126410000D03*
X162420000Y-126410000D03*
X159880000Y-126410000D03*
X157340000Y-126410000D03*
X154800000Y-126410000D03*
X152260000Y-126410000D03*
X149720000Y-126410000D03*
X147180000Y-126410000D03*
X144640000Y-126410000D03*
X142100000Y-126410000D03*
X139560000Y-126410000D03*
X137020000Y-126410000D03*
X134480000Y-126410000D03*
X131940000Y-126410000D03*
X129400000Y-126410000D03*
X126860000Y-126410000D03*
X124320000Y-126410000D03*
X121780000Y-126410000D03*
X119240000Y-126410000D03*
X116700000Y-126410000D03*
X114160000Y-126410000D03*
X111620000Y-126410000D03*
X109080000Y-126410000D03*
X106540000Y-126410000D03*
X104000000Y-126410000D03*
%TD*%
D12*
%TO.C,BT1*%
X177110000Y-48000000D03*
X104890000Y-48000000D03*
%TD*%
D10*
%TO.C,J3*%
X185280000Y-116250000D03*
D11*
X182740000Y-116250000D03*
X180200000Y-116250000D03*
X177660000Y-116250000D03*
X175120000Y-116250000D03*
X172580000Y-116250000D03*
X170040000Y-116250000D03*
X167500000Y-116250000D03*
X164960000Y-116250000D03*
X162420000Y-116250000D03*
X159880000Y-116250000D03*
X157340000Y-116250000D03*
X154800000Y-116250000D03*
X152260000Y-116250000D03*
X149720000Y-116250000D03*
X147180000Y-116250000D03*
X144640000Y-116250000D03*
X142100000Y-116250000D03*
X139560000Y-116250000D03*
X137020000Y-116250000D03*
X134480000Y-116250000D03*
X131940000Y-116250000D03*
X129400000Y-116250000D03*
X126860000Y-116250000D03*
X124320000Y-116250000D03*
X121780000Y-116250000D03*
X119240000Y-116250000D03*
X116700000Y-116250000D03*
X114160000Y-116250000D03*
X111620000Y-116250000D03*
X109080000Y-116250000D03*
X106540000Y-116250000D03*
X104000000Y-116250000D03*
%TD*%
D13*
%TO.C,U3*%
X165735000Y-105517400D03*
X167005000Y-105517400D03*
X168275000Y-105517400D03*
X169545000Y-105517400D03*
X169545000Y-110941400D03*
X168275000Y-110941400D03*
X167005000Y-110941400D03*
X165735000Y-110941400D03*
%TD*%
D14*
%TO.C,R13*%
X123000000Y-93750000D03*
X123000000Y-92150000D03*
%TD*%
D15*
%TO.C,R11*%
X106800000Y-96500000D03*
X105200000Y-96500000D03*
%TD*%
D16*
%TO.C,IC4*%
X94182400Y-53379400D03*
X94182400Y-51079400D03*
X94182400Y-48779400D03*
D17*
X100482400Y-51079400D03*
%TD*%
D18*
%TO.C,R10*%
X162204400Y-106756200D03*
X162204400Y-105250200D03*
%TD*%
D19*
%TO.C,R3*%
X100600000Y-63792000D03*
X100600000Y-66750000D03*
%TD*%
D20*
%TO.C,C4*%
X100214400Y-37490400D03*
X97434400Y-37490400D03*
%TD*%
%TO.C,C8*%
X101390000Y-56946800D03*
X98610000Y-56946800D03*
%TD*%
D21*
%TO.C,D6*%
X105650000Y-103800000D03*
X109050000Y-103800000D03*
%TD*%
D22*
%TO.C,IC3*%
X107938000Y-44755000D03*
X107938000Y-43485000D03*
X107938000Y-42215000D03*
X107938000Y-40945000D03*
X113362000Y-40945000D03*
X113362000Y-42215000D03*
X113362000Y-43485000D03*
X113362000Y-44755000D03*
D23*
X110650000Y-42850000D03*
%TD*%
D24*
%TO.C,U4*%
X97077000Y-98658200D03*
X97077000Y-98008200D03*
X97077000Y-97358200D03*
X97077000Y-96708200D03*
X97077000Y-96058200D03*
D25*
X96705000Y-94933200D03*
D26*
X94035000Y-93758200D03*
X94035000Y-100958200D03*
D25*
X96705000Y-99783200D03*
%TD*%
D14*
%TO.C,R8*%
X159054800Y-109258200D03*
X159054800Y-110858200D03*
%TD*%
D15*
%TO.C,D1*%
X116898000Y-60248800D03*
X118398000Y-60248800D03*
%TD*%
D21*
%TO.C,D4*%
X106750000Y-89550000D03*
X103350000Y-89550000D03*
%TD*%
D27*
%TO.C,C12*%
X116150000Y-98800000D03*
X116150000Y-99720000D03*
%TD*%
D28*
%TO.C,C3*%
X93000000Y-56110000D03*
X93000000Y-58890000D03*
%TD*%
D14*
%TO.C,D8*%
X120400000Y-93550000D03*
X120400000Y-92050000D03*
%TD*%
D21*
%TO.C,D5*%
X110500000Y-100250000D03*
X107100000Y-100250000D03*
%TD*%
D29*
%TO.C,R5*%
X95550000Y-56000000D03*
X95550000Y-58900000D03*
%TD*%
D30*
%TO.C,IC5*%
X120358200Y-101068000D03*
X120358200Y-100568000D03*
X120358200Y-100068000D03*
X120358200Y-99568000D03*
X120358200Y-99068000D03*
X120358200Y-98568000D03*
X120358200Y-98068000D03*
D31*
X121258200Y-97168000D03*
X121758200Y-97168000D03*
X122258200Y-97168000D03*
X122758200Y-97168000D03*
X123258200Y-97168000D03*
X123758200Y-97168000D03*
X124258200Y-97168000D03*
D30*
X125158200Y-98068000D03*
X125158200Y-98568000D03*
X125158200Y-99068000D03*
X125158200Y-99568000D03*
X125158200Y-100068000D03*
X125158200Y-100568000D03*
X125158200Y-101068000D03*
D31*
X124258200Y-101968000D03*
X123758200Y-101968000D03*
X123258200Y-101968000D03*
X122758200Y-101968000D03*
X122258200Y-101968000D03*
X121758200Y-101968000D03*
X121258200Y-101968000D03*
D32*
X122758200Y-99568000D03*
%TD*%
D33*
%TO.C,C5*%
X96450000Y-62700000D03*
X95530000Y-62700000D03*
%TD*%
D14*
%TO.C,R9*%
X162179000Y-110769400D03*
X162179000Y-109169400D03*
%TD*%
D34*
%TO.C,U1*%
X120142000Y-83341690D03*
D35*
X121412000Y-83341690D03*
X122682000Y-83341690D03*
%TD*%
D36*
%TO.C,L1*%
X92350000Y-80500000D03*
X96250000Y-80500000D03*
%TD*%
D19*
%TO.C,R4*%
X100600000Y-69350000D03*
X100600000Y-72308000D03*
%TD*%
D37*
%TO.C,IC2*%
X96155000Y-71962000D03*
X94885000Y-71962000D03*
X93615000Y-71962000D03*
X92345000Y-71962000D03*
X92345000Y-66538000D03*
X93615000Y-66538000D03*
X94885000Y-66538000D03*
X96155000Y-66538000D03*
D38*
X94250000Y-69250000D03*
%TD*%
D39*
%TO.C,R6*%
X92500000Y-61550000D03*
X92500000Y-63450000D03*
%TD*%
D40*
%TO.C,IC1*%
X100121000Y-41529000D03*
X100121000Y-42799000D03*
X100121000Y-44069000D03*
X100121000Y-45339000D03*
X94697000Y-45339000D03*
X94697000Y-44069000D03*
X94697000Y-42799000D03*
X94697000Y-41529000D03*
%TD*%
D41*
%TO.C,U2*%
X107776200Y-79187800D03*
X108276200Y-79187800D03*
D42*
X108976200Y-79687800D03*
X108976200Y-80187800D03*
X108976200Y-80687800D03*
D41*
X108276200Y-81187800D03*
X107776200Y-81187800D03*
D42*
X107076200Y-80687800D03*
X107076200Y-80187800D03*
X107076200Y-79687800D03*
%TD*%
D43*
%TO.C,C6*%
X152857200Y-109499400D03*
X152857200Y-110919400D03*
%TD*%
D27*
%TO.C,C10*%
X156210000Y-109372400D03*
X156210000Y-110292400D03*
%TD*%
D14*
%TO.C,R7*%
X104400000Y-43550000D03*
X104400000Y-41950000D03*
%TD*%
D15*
%TO.C,D7*%
X100000000Y-96250000D03*
X101500000Y-96250000D03*
%TD*%
D20*
%TO.C,C7*%
X101390000Y-61061600D03*
X98610000Y-61061600D03*
%TD*%
%TO.C,C1*%
X92220000Y-75750000D03*
X95000000Y-75750000D03*
%TD*%
D15*
%TO.C,C9*%
X121793000Y-79781400D03*
X120193000Y-79781400D03*
%TD*%
%TO.C,R1*%
X122079400Y-60248800D03*
X120479400Y-60248800D03*
%TD*%
D44*
%TO.C,D2*%
X113545200Y-60223400D03*
X111345200Y-60223400D03*
%TD*%
D20*
%TO.C,C2*%
X108150000Y-38150000D03*
X105370000Y-38150000D03*
%TD*%
D45*
%TO.C,R12*%
X122850000Y-89250000D03*
X120950000Y-89250000D03*
%TD*%
D46*
%TO.C,Q1*%
X94750000Y-36550000D03*
X94750000Y-38450000D03*
X92250000Y-37500000D03*
%TD*%
D15*
%TO.C,R2*%
X106700000Y-60274200D03*
X108300000Y-60274200D03*
%TD*%
D47*
%TO.C,C11*%
X105208000Y-94056200D03*
X106628000Y-94056200D03*
%TD*%
D33*
%TO.C,C13*%
X105687800Y-92176600D03*
X106607800Y-92176600D03*
%TD*%
M02*
