%TF.GenerationSoftware,KiCad,Pcbnew,(6.0.2-0)*%
%TF.CreationDate,2022-04-08T21:13:52+02:00*%
%TF.ProjectId,main,6d61696e-2e6b-4696-9361-645f70636258,rev?*%
%TF.SameCoordinates,Original*%
%TF.FileFunction,Legend,Bot*%
%TF.FilePolarity,Positive*%
%FSLAX46Y46*%
G04 Gerber Fmt 4.6, Leading zero omitted, Abs format (unit mm)*
G04 Created by KiCad (PCBNEW (6.0.2-0)) date 2022-04-08 21:13:52*
%MOMM*%
%LPD*%
G01*
G04 APERTURE LIST*
%ADD10C,0.150000*%
%ADD11C,0.300000*%
%ADD12C,0.254000*%
%ADD13C,0.152000*%
%ADD14C,0.120000*%
%ADD15C,0.200000*%
%ADD16C,0.250000*%
%ADD17R,1.700000X1.700000*%
%ADD18O,1.700000X1.700000*%
%ADD19C,1.524000*%
%ADD20R,2.500000X2.500000*%
%ADD21R,0.600000X0.620000*%
%ADD22R,0.950000X0.900000*%
%ADD23R,0.900000X0.950000*%
%ADD24R,1.750000X0.950000*%
%ADD25R,1.750000X3.200000*%
%ADD26R,1.701000X1.208000*%
%ADD27R,1.050000X1.820000*%
%ADD28R,1.100000X1.700000*%
%ADD29R,1.525000X0.700000*%
%ADD30R,2.513000X3.402000*%
%ADD31R,1.400000X0.400000*%
%ADD32C,1.300000*%
%ADD33O,2.200000X1.300000*%
%ADD34R,0.806000X0.864000*%
%ADD35R,0.620000X0.600000*%
%ADD36R,1.820000X1.050000*%
%ADD37R,1.250000X0.600000*%
%ADD38R,1.750000X1.050000*%
%ADD39R,0.300000X0.800000*%
%ADD40R,0.800000X0.300000*%
%ADD41R,1.000000X0.300000*%
%ADD42R,0.300000X1.000000*%
%ADD43R,3.350000X3.350000*%
%ADD44R,1.900000X2.200000*%
%ADD45R,0.700000X1.525000*%
%ADD46R,3.402000X2.513000*%
%ADD47R,0.940000X0.730000*%
%ADD48R,0.864000X0.806000*%
%ADD49R,1.525000X0.650000*%
%ADD50R,0.900000X1.600000*%
%ADD51O,0.900000X1.600000*%
%ADD52R,1.200000X0.950000*%
%ADD53R,1.000000X1.250000*%
%ADD54R,0.730000X0.940000*%
G04 APERTURE END LIST*
D10*
X113228380Y-84010714D02*
X112228380Y-84010714D01*
X112228380Y-84391666D01*
X112276000Y-84486904D01*
X112323619Y-84534523D01*
X112418857Y-84582142D01*
X112561714Y-84582142D01*
X112656952Y-84534523D01*
X112704571Y-84486904D01*
X112752190Y-84391666D01*
X112752190Y-84010714D01*
X112704571Y-85344047D02*
X112752190Y-85486904D01*
X112799809Y-85534523D01*
X112895047Y-85582142D01*
X113037904Y-85582142D01*
X113133142Y-85534523D01*
X113180761Y-85486904D01*
X113228380Y-85391666D01*
X113228380Y-85010714D01*
X112228380Y-85010714D01*
X112228380Y-85344047D01*
X112276000Y-85439285D01*
X112323619Y-85486904D01*
X112418857Y-85534523D01*
X112514095Y-85534523D01*
X112609333Y-85486904D01*
X112656952Y-85439285D01*
X112704571Y-85344047D01*
X112704571Y-85010714D01*
X113228380Y-86534523D02*
X113228380Y-85963095D01*
X113228380Y-86248809D02*
X112228380Y-86248809D01*
X112371238Y-86153571D01*
X112466476Y-86058333D01*
X112514095Y-85963095D01*
X112228380Y-87153571D02*
X112228380Y-87248809D01*
X112276000Y-87344047D01*
X112323619Y-87391666D01*
X112418857Y-87439285D01*
X112609333Y-87486904D01*
X112847428Y-87486904D01*
X113037904Y-87439285D01*
X113133142Y-87391666D01*
X113180761Y-87344047D01*
X113228380Y-87248809D01*
X113228380Y-87153571D01*
X113180761Y-87058333D01*
X113133142Y-87010714D01*
X113037904Y-86963095D01*
X112847428Y-86915476D01*
X112609333Y-86915476D01*
X112418857Y-86963095D01*
X112323619Y-87010714D01*
X112276000Y-87058333D01*
X112228380Y-87153571D01*
X142025619Y-88741095D02*
X142025619Y-88122047D01*
X141644666Y-88455380D01*
X141644666Y-88312523D01*
X141597047Y-88217285D01*
X141549428Y-88169666D01*
X141454190Y-88122047D01*
X141216095Y-88122047D01*
X141120857Y-88169666D01*
X141073238Y-88217285D01*
X141025619Y-88312523D01*
X141025619Y-88598238D01*
X141073238Y-88693476D01*
X141120857Y-88741095D01*
X142025619Y-87836333D02*
X141025619Y-87503000D01*
X142025619Y-87169666D01*
X142025619Y-86931571D02*
X142025619Y-86312523D01*
X141644666Y-86645857D01*
X141644666Y-86503000D01*
X141597047Y-86407761D01*
X141549428Y-86360142D01*
X141454190Y-86312523D01*
X141216095Y-86312523D01*
X141120857Y-86360142D01*
X141073238Y-86407761D01*
X141025619Y-86503000D01*
X141025619Y-86788714D01*
X141073238Y-86883952D01*
X141120857Y-86931571D01*
X181602857Y-50464285D02*
X179317142Y-50464285D01*
X180460000Y-51607142D02*
X180460000Y-49321428D01*
X181110000Y-61238095D02*
X181062380Y-61142857D01*
X181062380Y-61000000D01*
X181110000Y-60857142D01*
X181205238Y-60761904D01*
X181300476Y-60714285D01*
X181490952Y-60666666D01*
X181633809Y-60666666D01*
X181824285Y-60714285D01*
X181919523Y-60761904D01*
X182014761Y-60857142D01*
X182062380Y-61000000D01*
X182062380Y-61095238D01*
X182014761Y-61238095D01*
X181967142Y-61285714D01*
X181633809Y-61285714D01*
X181633809Y-61095238D01*
X182062380Y-61714285D02*
X181062380Y-61714285D01*
X182062380Y-62285714D01*
X181062380Y-62285714D01*
X182062380Y-62761904D02*
X181062380Y-62761904D01*
X181062380Y-63000000D01*
X181110000Y-63142857D01*
X181205238Y-63238095D01*
X181300476Y-63285714D01*
X181490952Y-63333333D01*
X181633809Y-63333333D01*
X181824285Y-63285714D01*
X181919523Y-63238095D01*
X182014761Y-63142857D01*
X182062380Y-63000000D01*
X182062380Y-62761904D01*
X136104380Y-86264904D02*
X136104380Y-86883952D01*
X136485333Y-86550619D01*
X136485333Y-86693476D01*
X136532952Y-86788714D01*
X136580571Y-86836333D01*
X136675809Y-86883952D01*
X136913904Y-86883952D01*
X137009142Y-86836333D01*
X137056761Y-86788714D01*
X137104380Y-86693476D01*
X137104380Y-86407761D01*
X137056761Y-86312523D01*
X137009142Y-86264904D01*
X136104380Y-87169666D02*
X137104380Y-87503000D01*
X136104380Y-87836333D01*
X136104380Y-88074428D02*
X136104380Y-88693476D01*
X136485333Y-88360142D01*
X136485333Y-88503000D01*
X136532952Y-88598238D01*
X136580571Y-88645857D01*
X136675809Y-88693476D01*
X136913904Y-88693476D01*
X137009142Y-88645857D01*
X137056761Y-88598238D01*
X137104380Y-88503000D01*
X137104380Y-88217285D01*
X137056761Y-88122047D01*
X137009142Y-88074428D01*
X118054380Y-113133333D02*
X117054380Y-113133333D01*
X117054380Y-113514285D01*
X117102000Y-113609523D01*
X117149619Y-113657142D01*
X117244857Y-113704761D01*
X117387714Y-113704761D01*
X117482952Y-113657142D01*
X117530571Y-113609523D01*
X117578190Y-113514285D01*
X117578190Y-113133333D01*
X117768666Y-114085714D02*
X117768666Y-114561904D01*
X118054380Y-113990476D02*
X117054380Y-114323809D01*
X118054380Y-114657142D01*
X118054380Y-115038095D02*
X118054380Y-115228571D01*
X118006761Y-115323809D01*
X117959142Y-115371428D01*
X117816285Y-115466666D01*
X117625809Y-115514285D01*
X117244857Y-115514285D01*
X117149619Y-115466666D01*
X117102000Y-115419047D01*
X117054380Y-115323809D01*
X117054380Y-115133333D01*
X117102000Y-115038095D01*
X117149619Y-114990476D01*
X117244857Y-114942857D01*
X117482952Y-114942857D01*
X117578190Y-114990476D01*
X117625809Y-115038095D01*
X117673428Y-115133333D01*
X117673428Y-115323809D01*
X117625809Y-115419047D01*
X117578190Y-115466666D01*
X117482952Y-115514285D01*
X130500380Y-62293714D02*
X129500380Y-62293714D01*
X129500380Y-62674666D01*
X129548000Y-62769904D01*
X129595619Y-62817523D01*
X129690857Y-62865142D01*
X129833714Y-62865142D01*
X129928952Y-62817523D01*
X129976571Y-62769904D01*
X130024190Y-62674666D01*
X130024190Y-62293714D01*
X129976571Y-63627047D02*
X130024190Y-63769904D01*
X130071809Y-63817523D01*
X130167047Y-63865142D01*
X130309904Y-63865142D01*
X130405142Y-63817523D01*
X130452761Y-63769904D01*
X130500380Y-63674666D01*
X130500380Y-63293714D01*
X129500380Y-63293714D01*
X129500380Y-63627047D01*
X129548000Y-63722285D01*
X129595619Y-63769904D01*
X129690857Y-63817523D01*
X129786095Y-63817523D01*
X129881333Y-63769904D01*
X129928952Y-63722285D01*
X129976571Y-63627047D01*
X129976571Y-63293714D01*
X130500380Y-64817523D02*
X130500380Y-64246095D01*
X130500380Y-64531809D02*
X129500380Y-64531809D01*
X129643238Y-64436571D01*
X129738476Y-64341333D01*
X129786095Y-64246095D01*
X130500380Y-65769904D02*
X130500380Y-65198476D01*
X130500380Y-65484190D02*
X129500380Y-65484190D01*
X129643238Y-65388952D01*
X129738476Y-65293714D01*
X129786095Y-65198476D01*
X184861904Y-58936000D02*
X184957142Y-58888380D01*
X185100000Y-58888380D01*
X185242857Y-58936000D01*
X185338095Y-59031238D01*
X185385714Y-59126476D01*
X185433333Y-59316952D01*
X185433333Y-59459809D01*
X185385714Y-59650285D01*
X185338095Y-59745523D01*
X185242857Y-59840761D01*
X185100000Y-59888380D01*
X185004761Y-59888380D01*
X184861904Y-59840761D01*
X184814285Y-59793142D01*
X184814285Y-59459809D01*
X185004761Y-59459809D01*
X184385714Y-59888380D02*
X184385714Y-58888380D01*
X183814285Y-59888380D01*
X183814285Y-58888380D01*
X183338095Y-59888380D02*
X183338095Y-58888380D01*
X183100000Y-58888380D01*
X182957142Y-58936000D01*
X182861904Y-59031238D01*
X182814285Y-59126476D01*
X182766666Y-59316952D01*
X182766666Y-59459809D01*
X182814285Y-59650285D01*
X182861904Y-59745523D01*
X182957142Y-59840761D01*
X183100000Y-59888380D01*
X183338095Y-59888380D01*
X168967619Y-115411095D02*
X169967619Y-115411095D01*
X169967619Y-115030142D01*
X169920000Y-114934904D01*
X169872380Y-114887285D01*
X169777142Y-114839666D01*
X169634285Y-114839666D01*
X169539047Y-114887285D01*
X169491428Y-114934904D01*
X169443809Y-115030142D01*
X169443809Y-115411095D01*
X169491428Y-114077761D02*
X169443809Y-113934904D01*
X169396190Y-113887285D01*
X169300952Y-113839666D01*
X169158095Y-113839666D01*
X169062857Y-113887285D01*
X169015238Y-113934904D01*
X168967619Y-114030142D01*
X168967619Y-114411095D01*
X169967619Y-114411095D01*
X169967619Y-114077761D01*
X169920000Y-113982523D01*
X169872380Y-113934904D01*
X169777142Y-113887285D01*
X169681904Y-113887285D01*
X169586666Y-113934904D01*
X169539047Y-113982523D01*
X169491428Y-114077761D01*
X169491428Y-114411095D01*
X169967619Y-113506333D02*
X169967619Y-112839666D01*
X168967619Y-113268238D01*
X157803380Y-113823904D02*
X156803380Y-113823904D01*
X156803380Y-114204857D01*
X156851000Y-114300095D01*
X156898619Y-114347714D01*
X156993857Y-114395333D01*
X157136714Y-114395333D01*
X157231952Y-114347714D01*
X157279571Y-114300095D01*
X157327190Y-114204857D01*
X157327190Y-113823904D01*
X157279571Y-115157238D02*
X157327190Y-115300095D01*
X157374809Y-115347714D01*
X157470047Y-115395333D01*
X157612904Y-115395333D01*
X157708142Y-115347714D01*
X157755761Y-115300095D01*
X157803380Y-115204857D01*
X157803380Y-114823904D01*
X156803380Y-114823904D01*
X156803380Y-115157238D01*
X156851000Y-115252476D01*
X156898619Y-115300095D01*
X156993857Y-115347714D01*
X157089095Y-115347714D01*
X157184333Y-115300095D01*
X157231952Y-115252476D01*
X157279571Y-115157238D01*
X157279571Y-114823904D01*
X156803380Y-116252476D02*
X156803380Y-116062000D01*
X156851000Y-115966761D01*
X156898619Y-115919142D01*
X157041476Y-115823904D01*
X157231952Y-115776285D01*
X157612904Y-115776285D01*
X157708142Y-115823904D01*
X157755761Y-115871523D01*
X157803380Y-115966761D01*
X157803380Y-116157238D01*
X157755761Y-116252476D01*
X157708142Y-116300095D01*
X157612904Y-116347714D01*
X157374809Y-116347714D01*
X157279571Y-116300095D01*
X157231952Y-116252476D01*
X157184333Y-116157238D01*
X157184333Y-115966761D01*
X157231952Y-115871523D01*
X157279571Y-115823904D01*
X157374809Y-115776285D01*
X135829523Y-111832571D02*
X134559523Y-111832571D01*
X134559523Y-112316380D01*
X134620000Y-112437333D01*
X134680476Y-112497809D01*
X134801428Y-112558285D01*
X134982857Y-112558285D01*
X135103809Y-112497809D01*
X135164285Y-112437333D01*
X135224761Y-112316380D01*
X135224761Y-111832571D01*
X135466666Y-113042095D02*
X135466666Y-113646857D01*
X135829523Y-112921142D02*
X134559523Y-113344476D01*
X135829523Y-113767809D01*
X135829523Y-114856380D02*
X135829523Y-114130666D01*
X135829523Y-114493523D02*
X134559523Y-114493523D01*
X134740952Y-114372571D01*
X134861904Y-114251619D01*
X134922380Y-114130666D01*
X134559523Y-115642571D02*
X134559523Y-115763523D01*
X134620000Y-115884476D01*
X134680476Y-115944952D01*
X134801428Y-116005428D01*
X135043333Y-116065904D01*
X135345714Y-116065904D01*
X135587619Y-116005428D01*
X135708571Y-115944952D01*
X135769047Y-115884476D01*
X135829523Y-115763523D01*
X135829523Y-115642571D01*
X135769047Y-115521619D01*
X135708571Y-115461142D01*
X135587619Y-115400666D01*
X135345714Y-115340190D01*
X135043333Y-115340190D01*
X134801428Y-115400666D01*
X134680476Y-115461142D01*
X134620000Y-115521619D01*
X134559523Y-115642571D01*
X118736952Y-110942380D02*
X118736952Y-109942380D01*
X118498857Y-109942380D01*
X118356000Y-109990000D01*
X118260761Y-110085238D01*
X118213142Y-110180476D01*
X118165523Y-110370952D01*
X118165523Y-110513809D01*
X118213142Y-110704285D01*
X118260761Y-110799523D01*
X118356000Y-110894761D01*
X118498857Y-110942380D01*
X118736952Y-110942380D01*
X117736952Y-110561428D02*
X116975047Y-110561428D01*
X117356000Y-110942380D02*
X117356000Y-110180476D01*
X175702857Y-50564285D02*
X173417142Y-50564285D01*
X174560000Y-51707142D02*
X174560000Y-49421428D01*
X183526666Y-48502380D02*
X183526666Y-47502380D01*
X183145714Y-47502380D01*
X183050476Y-47550000D01*
X183002857Y-47597619D01*
X182955238Y-47692857D01*
X182955238Y-47835714D01*
X183002857Y-47930952D01*
X183050476Y-47978571D01*
X183145714Y-48026190D01*
X183526666Y-48026190D01*
X182383809Y-48502380D02*
X182479047Y-48454761D01*
X182526666Y-48407142D01*
X182574285Y-48311904D01*
X182574285Y-48026190D01*
X182526666Y-47930952D01*
X182479047Y-47883333D01*
X182383809Y-47835714D01*
X182240952Y-47835714D01*
X182145714Y-47883333D01*
X182098095Y-47930952D01*
X182050476Y-48026190D01*
X182050476Y-48311904D01*
X182098095Y-48407142D01*
X182145714Y-48454761D01*
X182240952Y-48502380D01*
X182383809Y-48502380D01*
X181669523Y-48454761D02*
X181574285Y-48502380D01*
X181383809Y-48502380D01*
X181288571Y-48454761D01*
X181240952Y-48359523D01*
X181240952Y-48311904D01*
X181288571Y-48216666D01*
X181383809Y-48169047D01*
X181526666Y-48169047D01*
X181621904Y-48121428D01*
X181669523Y-48026190D01*
X181669523Y-47978571D01*
X181621904Y-47883333D01*
X181526666Y-47835714D01*
X181383809Y-47835714D01*
X181288571Y-47883333D01*
X180812380Y-48502380D02*
X180812380Y-47835714D01*
X180812380Y-47502380D02*
X180860000Y-47550000D01*
X180812380Y-47597619D01*
X180764761Y-47550000D01*
X180812380Y-47502380D01*
X180812380Y-47597619D01*
X180479047Y-47835714D02*
X180098095Y-47835714D01*
X180336190Y-47502380D02*
X180336190Y-48359523D01*
X180288571Y-48454761D01*
X180193333Y-48502380D01*
X180098095Y-48502380D01*
X179764761Y-48502380D02*
X179764761Y-47835714D01*
X179764761Y-47502380D02*
X179812380Y-47550000D01*
X179764761Y-47597619D01*
X179717142Y-47550000D01*
X179764761Y-47502380D01*
X179764761Y-47597619D01*
X179383809Y-47835714D02*
X179145714Y-48502380D01*
X178907619Y-47835714D01*
X178145714Y-48454761D02*
X178240952Y-48502380D01*
X178431428Y-48502380D01*
X178526666Y-48454761D01*
X178574285Y-48359523D01*
X178574285Y-47978571D01*
X178526666Y-47883333D01*
X178431428Y-47835714D01*
X178240952Y-47835714D01*
X178145714Y-47883333D01*
X178098095Y-47978571D01*
X178098095Y-48073809D01*
X178574285Y-48169047D01*
X177050476Y-47835714D02*
X176669523Y-47835714D01*
X176907619Y-47502380D02*
X176907619Y-48359523D01*
X176860000Y-48454761D01*
X176764761Y-48502380D01*
X176669523Y-48502380D01*
X175955238Y-48454761D02*
X176050476Y-48502380D01*
X176240952Y-48502380D01*
X176336190Y-48454761D01*
X176383809Y-48359523D01*
X176383809Y-47978571D01*
X176336190Y-47883333D01*
X176240952Y-47835714D01*
X176050476Y-47835714D01*
X175955238Y-47883333D01*
X175907619Y-47978571D01*
X175907619Y-48073809D01*
X176383809Y-48169047D01*
X175479047Y-48502380D02*
X175479047Y-47835714D01*
X175479047Y-48026190D02*
X175431428Y-47930952D01*
X175383809Y-47883333D01*
X175288571Y-47835714D01*
X175193333Y-47835714D01*
X174860000Y-48502380D02*
X174860000Y-47835714D01*
X174860000Y-47930952D02*
X174812380Y-47883333D01*
X174717142Y-47835714D01*
X174574285Y-47835714D01*
X174479047Y-47883333D01*
X174431428Y-47978571D01*
X174431428Y-48502380D01*
X174431428Y-47978571D02*
X174383809Y-47883333D01*
X174288571Y-47835714D01*
X174145714Y-47835714D01*
X174050476Y-47883333D01*
X174002857Y-47978571D01*
X174002857Y-48502380D01*
X173526666Y-48502380D02*
X173526666Y-47835714D01*
X173526666Y-47502380D02*
X173574285Y-47550000D01*
X173526666Y-47597619D01*
X173479047Y-47550000D01*
X173526666Y-47502380D01*
X173526666Y-47597619D01*
X173050476Y-47835714D02*
X173050476Y-48502380D01*
X173050476Y-47930952D02*
X173002857Y-47883333D01*
X172907619Y-47835714D01*
X172764761Y-47835714D01*
X172669523Y-47883333D01*
X172621904Y-47978571D01*
X172621904Y-48502380D01*
X171717142Y-48502380D02*
X171717142Y-47978571D01*
X171764761Y-47883333D01*
X171860000Y-47835714D01*
X172050476Y-47835714D01*
X172145714Y-47883333D01*
X171717142Y-48454761D02*
X171812380Y-48502380D01*
X172050476Y-48502380D01*
X172145714Y-48454761D01*
X172193333Y-48359523D01*
X172193333Y-48264285D01*
X172145714Y-48169047D01*
X172050476Y-48121428D01*
X171812380Y-48121428D01*
X171717142Y-48073809D01*
X171098095Y-48502380D02*
X171193333Y-48454761D01*
X171240952Y-48359523D01*
X171240952Y-47502380D01*
X113402952Y-110942380D02*
X113402952Y-109942380D01*
X113164857Y-109942380D01*
X113022000Y-109990000D01*
X112926761Y-110085238D01*
X112879142Y-110180476D01*
X112831523Y-110370952D01*
X112831523Y-110513809D01*
X112879142Y-110704285D01*
X112926761Y-110799523D01*
X113022000Y-110894761D01*
X113164857Y-110942380D01*
X113402952Y-110942380D01*
X112402952Y-110561428D02*
X111641047Y-110561428D01*
D11*
X178253500Y-90337714D02*
X178182071Y-90194857D01*
X178182071Y-89980571D01*
X178253500Y-89766285D01*
X178396357Y-89623428D01*
X178539214Y-89552000D01*
X178824928Y-89480571D01*
X179039214Y-89480571D01*
X179324928Y-89552000D01*
X179467785Y-89623428D01*
X179610642Y-89766285D01*
X179682071Y-89980571D01*
X179682071Y-90123428D01*
X179610642Y-90337714D01*
X179539214Y-90409142D01*
X179039214Y-90409142D01*
X179039214Y-90123428D01*
X179682071Y-91052000D02*
X178682071Y-91052000D01*
X178967785Y-91052000D02*
X178824928Y-91123428D01*
X178753500Y-91194857D01*
X178682071Y-91337714D01*
X178682071Y-91480571D01*
X179682071Y-92194857D02*
X179610642Y-92052000D01*
X179539214Y-91980571D01*
X179396357Y-91909142D01*
X178967785Y-91909142D01*
X178824928Y-91980571D01*
X178753500Y-92052000D01*
X178682071Y-92194857D01*
X178682071Y-92409142D01*
X178753500Y-92552000D01*
X178824928Y-92623428D01*
X178967785Y-92694857D01*
X179396357Y-92694857D01*
X179539214Y-92623428D01*
X179610642Y-92552000D01*
X179682071Y-92409142D01*
X179682071Y-92194857D01*
X178682071Y-93980571D02*
X179682071Y-93980571D01*
X178682071Y-93337714D02*
X179467785Y-93337714D01*
X179610642Y-93409142D01*
X179682071Y-93552000D01*
X179682071Y-93766285D01*
X179610642Y-93909142D01*
X179539214Y-93980571D01*
X178682071Y-94694857D02*
X180182071Y-94694857D01*
X178753500Y-94694857D02*
X178682071Y-94837714D01*
X178682071Y-95123428D01*
X178753500Y-95266285D01*
X178824928Y-95337714D01*
X178967785Y-95409142D01*
X179396357Y-95409142D01*
X179539214Y-95337714D01*
X179610642Y-95266285D01*
X179682071Y-95123428D01*
X179682071Y-94837714D01*
X179610642Y-94694857D01*
X179682071Y-97194857D02*
X178182071Y-97194857D01*
X179682071Y-98052000D01*
X178182071Y-98052000D01*
X178682071Y-99409142D02*
X179682071Y-99409142D01*
X178682071Y-98766285D02*
X179467785Y-98766285D01*
X179610642Y-98837714D01*
X179682071Y-98980571D01*
X179682071Y-99194857D01*
X179610642Y-99337714D01*
X179539214Y-99409142D01*
X179682071Y-100123428D02*
X178682071Y-100123428D01*
X178824928Y-100123428D02*
X178753500Y-100194857D01*
X178682071Y-100337714D01*
X178682071Y-100552000D01*
X178753500Y-100694857D01*
X178896357Y-100766285D01*
X179682071Y-100766285D01*
X178896357Y-100766285D02*
X178753500Y-100837714D01*
X178682071Y-100980571D01*
X178682071Y-101194857D01*
X178753500Y-101337714D01*
X178896357Y-101409142D01*
X179682071Y-101409142D01*
X179682071Y-102123428D02*
X178182071Y-102123428D01*
X178753500Y-102123428D02*
X178682071Y-102266285D01*
X178682071Y-102552000D01*
X178753500Y-102694857D01*
X178824928Y-102766285D01*
X178967785Y-102837714D01*
X179396357Y-102837714D01*
X179539214Y-102766285D01*
X179610642Y-102694857D01*
X179682071Y-102552000D01*
X179682071Y-102266285D01*
X179610642Y-102123428D01*
X179610642Y-104052000D02*
X179682071Y-103909142D01*
X179682071Y-103623428D01*
X179610642Y-103480571D01*
X179467785Y-103409142D01*
X178896357Y-103409142D01*
X178753500Y-103480571D01*
X178682071Y-103623428D01*
X178682071Y-103909142D01*
X178753500Y-104052000D01*
X178896357Y-104123428D01*
X179039214Y-104123428D01*
X179182071Y-103409142D01*
X179682071Y-104766285D02*
X178682071Y-104766285D01*
X178967785Y-104766285D02*
X178824928Y-104837714D01*
X178753500Y-104909142D01*
X178682071Y-105052000D01*
X178682071Y-105194857D01*
X179682071Y-106909142D02*
X179682071Y-107194857D01*
X179610642Y-107337714D01*
X179539214Y-107409142D01*
X179324928Y-107552000D01*
X179039214Y-107623428D01*
X178467785Y-107623428D01*
X178324928Y-107552000D01*
X178253500Y-107480571D01*
X178182071Y-107337714D01*
X178182071Y-107052000D01*
X178253500Y-106909142D01*
X178324928Y-106837714D01*
X178467785Y-106766285D01*
X178824928Y-106766285D01*
X178967785Y-106837714D01*
X179039214Y-106909142D01*
X179110642Y-107052000D01*
X179110642Y-107337714D01*
X179039214Y-107480571D01*
X178967785Y-107552000D01*
X178824928Y-107623428D01*
X181954214Y-87802000D02*
X182025642Y-87730571D01*
X182097071Y-87516285D01*
X182097071Y-87373428D01*
X182025642Y-87159142D01*
X181882785Y-87016285D01*
X181739928Y-86944857D01*
X181454214Y-86873428D01*
X181239928Y-86873428D01*
X180954214Y-86944857D01*
X180811357Y-87016285D01*
X180668500Y-87159142D01*
X180597071Y-87373428D01*
X180597071Y-87516285D01*
X180668500Y-87730571D01*
X180739928Y-87802000D01*
X182097071Y-89087714D02*
X181311357Y-89087714D01*
X181168500Y-89016285D01*
X181097071Y-88873428D01*
X181097071Y-88587714D01*
X181168500Y-88444857D01*
X182025642Y-89087714D02*
X182097071Y-88944857D01*
X182097071Y-88587714D01*
X182025642Y-88444857D01*
X181882785Y-88373428D01*
X181739928Y-88373428D01*
X181597071Y-88444857D01*
X181525642Y-88587714D01*
X181525642Y-88944857D01*
X181454214Y-89087714D01*
X182097071Y-89802000D02*
X181097071Y-89802000D01*
X180597071Y-89802000D02*
X180668500Y-89730571D01*
X180739928Y-89802000D01*
X180668500Y-89873428D01*
X180597071Y-89802000D01*
X180739928Y-89802000D01*
X182097071Y-91159142D02*
X180597071Y-91159142D01*
X182025642Y-91159142D02*
X182097071Y-91016285D01*
X182097071Y-90730571D01*
X182025642Y-90587714D01*
X181954214Y-90516285D01*
X181811357Y-90444857D01*
X181382785Y-90444857D01*
X181239928Y-90516285D01*
X181168500Y-90587714D01*
X181097071Y-90730571D01*
X181097071Y-91016285D01*
X181168500Y-91159142D01*
X182025642Y-92444857D02*
X182097071Y-92302000D01*
X182097071Y-92016285D01*
X182025642Y-91873428D01*
X181882785Y-91802000D01*
X181311357Y-91802000D01*
X181168500Y-91873428D01*
X181097071Y-92016285D01*
X181097071Y-92302000D01*
X181168500Y-92444857D01*
X181311357Y-92516285D01*
X181454214Y-92516285D01*
X181597071Y-91802000D01*
X182025642Y-94230571D02*
X182097071Y-94444857D01*
X182097071Y-94802000D01*
X182025642Y-94944857D01*
X181954214Y-95016285D01*
X181811357Y-95087714D01*
X181668500Y-95087714D01*
X181525642Y-95016285D01*
X181454214Y-94944857D01*
X181382785Y-94802000D01*
X181311357Y-94516285D01*
X181239928Y-94373428D01*
X181168500Y-94302000D01*
X181025642Y-94230571D01*
X180882785Y-94230571D01*
X180739928Y-94302000D01*
X180668500Y-94373428D01*
X180597071Y-94516285D01*
X180597071Y-94873428D01*
X180668500Y-95087714D01*
X181097071Y-95730571D02*
X182597071Y-95730571D01*
X181168500Y-95730571D02*
X181097071Y-95873428D01*
X181097071Y-96159142D01*
X181168500Y-96302000D01*
X181239928Y-96373428D01*
X181382785Y-96444857D01*
X181811357Y-96444857D01*
X181954214Y-96373428D01*
X182025642Y-96302000D01*
X182097071Y-96159142D01*
X182097071Y-95873428D01*
X182025642Y-95730571D01*
X182097071Y-97087714D02*
X181097071Y-97087714D01*
X181382785Y-97087714D02*
X181239928Y-97159142D01*
X181168500Y-97230571D01*
X181097071Y-97373428D01*
X181097071Y-97516285D01*
X182097071Y-98016285D02*
X181097071Y-98016285D01*
X180597071Y-98016285D02*
X180668500Y-97944857D01*
X180739928Y-98016285D01*
X180668500Y-98087714D01*
X180597071Y-98016285D01*
X180739928Y-98016285D01*
X182025642Y-99302000D02*
X182097071Y-99159142D01*
X182097071Y-98873428D01*
X182025642Y-98730571D01*
X181882785Y-98659142D01*
X181311357Y-98659142D01*
X181168500Y-98730571D01*
X181097071Y-98873428D01*
X181097071Y-99159142D01*
X181168500Y-99302000D01*
X181311357Y-99373428D01*
X181454214Y-99373428D01*
X181597071Y-98659142D01*
X182025642Y-99944857D02*
X182097071Y-100087714D01*
X182097071Y-100373428D01*
X182025642Y-100516285D01*
X181882785Y-100587714D01*
X181811357Y-100587714D01*
X181668500Y-100516285D01*
X181597071Y-100373428D01*
X181597071Y-100159142D01*
X181525642Y-100016285D01*
X181382785Y-99944857D01*
X181311357Y-99944857D01*
X181168500Y-100016285D01*
X181097071Y-100159142D01*
X181097071Y-100373428D01*
X181168500Y-100516285D01*
X181097071Y-101016285D02*
X181097071Y-101587714D01*
X180597071Y-101230571D02*
X181882785Y-101230571D01*
X182025642Y-101302000D01*
X182097071Y-101444857D01*
X182097071Y-101587714D01*
X182025642Y-102659142D02*
X182097071Y-102516285D01*
X182097071Y-102230571D01*
X182025642Y-102087714D01*
X181882785Y-102016285D01*
X181311357Y-102016285D01*
X181168500Y-102087714D01*
X181097071Y-102230571D01*
X181097071Y-102516285D01*
X181168500Y-102659142D01*
X181311357Y-102730571D01*
X181454214Y-102730571D01*
X181597071Y-102016285D01*
X182097071Y-103373428D02*
X181097071Y-103373428D01*
X181382785Y-103373428D02*
X181239928Y-103444857D01*
X181168500Y-103516285D01*
X181097071Y-103659142D01*
X181097071Y-103802000D01*
X182025642Y-104230571D02*
X182097071Y-104373428D01*
X182097071Y-104659142D01*
X182025642Y-104802000D01*
X181882785Y-104873428D01*
X181811357Y-104873428D01*
X181668500Y-104802000D01*
X181597071Y-104659142D01*
X181597071Y-104444857D01*
X181525642Y-104302000D01*
X181382785Y-104230571D01*
X181311357Y-104230571D01*
X181168500Y-104302000D01*
X181097071Y-104444857D01*
X181097071Y-104659142D01*
X181168500Y-104802000D01*
X182097071Y-105516285D02*
X180597071Y-105516285D01*
X181168500Y-105516285D02*
X181097071Y-105659142D01*
X181097071Y-105944857D01*
X181168500Y-106087714D01*
X181239928Y-106159142D01*
X181382785Y-106230571D01*
X181811357Y-106230571D01*
X181954214Y-106159142D01*
X182025642Y-106087714D01*
X182097071Y-105944857D01*
X182097071Y-105659142D01*
X182025642Y-105516285D01*
X182097071Y-107516285D02*
X181311357Y-107516285D01*
X181168500Y-107444857D01*
X181097071Y-107302000D01*
X181097071Y-107016285D01*
X181168500Y-106873428D01*
X182025642Y-107516285D02*
X182097071Y-107373428D01*
X182097071Y-107016285D01*
X182025642Y-106873428D01*
X181882785Y-106802000D01*
X181739928Y-106802000D01*
X181597071Y-106873428D01*
X181525642Y-107016285D01*
X181525642Y-107373428D01*
X181454214Y-107516285D01*
X182025642Y-108873428D02*
X182097071Y-108730571D01*
X182097071Y-108444857D01*
X182025642Y-108302000D01*
X181954214Y-108230571D01*
X181811357Y-108159142D01*
X181382785Y-108159142D01*
X181239928Y-108230571D01*
X181168500Y-108302000D01*
X181097071Y-108444857D01*
X181097071Y-108730571D01*
X181168500Y-108873428D01*
X182097071Y-109516285D02*
X180597071Y-109516285D01*
X182097071Y-110159142D02*
X181311357Y-110159142D01*
X181168500Y-110087714D01*
X181097071Y-109944857D01*
X181097071Y-109730571D01*
X181168500Y-109587714D01*
X181239928Y-109516285D01*
X184369214Y-90730571D02*
X184440642Y-90659142D01*
X184512071Y-90444857D01*
X184512071Y-90302000D01*
X184440642Y-90087714D01*
X184297785Y-89944857D01*
X184154928Y-89873428D01*
X183869214Y-89802000D01*
X183654928Y-89802000D01*
X183369214Y-89873428D01*
X183226357Y-89944857D01*
X183083500Y-90087714D01*
X183012071Y-90302000D01*
X183012071Y-90444857D01*
X183083500Y-90659142D01*
X183154928Y-90730571D01*
X184512071Y-92016285D02*
X183726357Y-92016285D01*
X183583500Y-91944857D01*
X183512071Y-91802000D01*
X183512071Y-91516285D01*
X183583500Y-91373428D01*
X184440642Y-92016285D02*
X184512071Y-91873428D01*
X184512071Y-91516285D01*
X184440642Y-91373428D01*
X184297785Y-91302000D01*
X184154928Y-91302000D01*
X184012071Y-91373428D01*
X183940642Y-91516285D01*
X183940642Y-91873428D01*
X183869214Y-92016285D01*
X184512071Y-92730571D02*
X183512071Y-92730571D01*
X183654928Y-92730571D02*
X183583500Y-92802000D01*
X183512071Y-92944857D01*
X183512071Y-93159142D01*
X183583500Y-93302000D01*
X183726357Y-93373428D01*
X184512071Y-93373428D01*
X183726357Y-93373428D02*
X183583500Y-93444857D01*
X183512071Y-93587714D01*
X183512071Y-93802000D01*
X183583500Y-93944857D01*
X183726357Y-94016285D01*
X184512071Y-94016285D01*
X184440642Y-95302000D02*
X184512071Y-95159142D01*
X184512071Y-94873428D01*
X184440642Y-94730571D01*
X184297785Y-94659142D01*
X183726357Y-94659142D01*
X183583500Y-94730571D01*
X183512071Y-94873428D01*
X183512071Y-95159142D01*
X183583500Y-95302000D01*
X183726357Y-95373428D01*
X183869214Y-95373428D01*
X184012071Y-94659142D01*
X184512071Y-96016285D02*
X183512071Y-96016285D01*
X183797785Y-96016285D02*
X183654928Y-96087714D01*
X183583500Y-96159142D01*
X183512071Y-96302000D01*
X183512071Y-96444857D01*
X184512071Y-97159142D02*
X184440642Y-97016285D01*
X184369214Y-96944857D01*
X184226357Y-96873428D01*
X183797785Y-96873428D01*
X183654928Y-96944857D01*
X183583500Y-97016285D01*
X183512071Y-97159142D01*
X183512071Y-97373428D01*
X183583500Y-97516285D01*
X183654928Y-97587714D01*
X183797785Y-97659142D01*
X184226357Y-97659142D01*
X184369214Y-97587714D01*
X184440642Y-97516285D01*
X184512071Y-97373428D01*
X184512071Y-97159142D01*
X183512071Y-98302000D02*
X184512071Y-98302000D01*
X183654928Y-98302000D02*
X183583500Y-98373428D01*
X183512071Y-98516285D01*
X183512071Y-98730571D01*
X183583500Y-98873428D01*
X183726357Y-98944857D01*
X184512071Y-98944857D01*
X183012071Y-100659142D02*
X184512071Y-101016285D01*
X183440642Y-101302000D01*
X184512071Y-101587714D01*
X183012071Y-101944857D01*
X184512071Y-102516285D02*
X183512071Y-102516285D01*
X183012071Y-102516285D02*
X183083500Y-102444857D01*
X183154928Y-102516285D01*
X183083500Y-102587714D01*
X183012071Y-102516285D01*
X183154928Y-102516285D01*
X184512071Y-103444857D02*
X184440642Y-103302000D01*
X184297785Y-103230571D01*
X183012071Y-103230571D01*
X184440642Y-103944857D02*
X184512071Y-104087714D01*
X184512071Y-104373428D01*
X184440642Y-104516285D01*
X184297785Y-104587714D01*
X184226357Y-104587714D01*
X184083500Y-104516285D01*
X184012071Y-104373428D01*
X184012071Y-104159142D01*
X183940642Y-104016285D01*
X183797785Y-103944857D01*
X183726357Y-103944857D01*
X183583500Y-104016285D01*
X183512071Y-104159142D01*
X183512071Y-104373428D01*
X183583500Y-104516285D01*
X184512071Y-105444857D02*
X184440642Y-105302000D01*
X184369214Y-105230571D01*
X184226357Y-105159142D01*
X183797785Y-105159142D01*
X183654928Y-105230571D01*
X183583500Y-105302000D01*
X183512071Y-105444857D01*
X183512071Y-105659142D01*
X183583500Y-105802000D01*
X183654928Y-105873428D01*
X183797785Y-105944857D01*
X184226357Y-105944857D01*
X184369214Y-105873428D01*
X184440642Y-105802000D01*
X184512071Y-105659142D01*
X184512071Y-105444857D01*
X183512071Y-106587714D02*
X184512071Y-106587714D01*
X183654928Y-106587714D02*
X183583500Y-106659142D01*
X183512071Y-106802000D01*
X183512071Y-107016285D01*
X183583500Y-107159142D01*
X183726357Y-107230571D01*
X184512071Y-107230571D01*
X186927071Y-91944857D02*
X185427071Y-91944857D01*
X185427071Y-92302000D01*
X185498500Y-92516285D01*
X185641357Y-92659142D01*
X185784214Y-92730571D01*
X186069928Y-92802000D01*
X186284214Y-92802000D01*
X186569928Y-92730571D01*
X186712785Y-92659142D01*
X186855642Y-92516285D01*
X186927071Y-92302000D01*
X186927071Y-91944857D01*
X186927071Y-94087714D02*
X186141357Y-94087714D01*
X185998500Y-94016285D01*
X185927071Y-93873428D01*
X185927071Y-93587714D01*
X185998500Y-93444857D01*
X186855642Y-94087714D02*
X186927071Y-93944857D01*
X186927071Y-93587714D01*
X186855642Y-93444857D01*
X186712785Y-93373428D01*
X186569928Y-93373428D01*
X186427071Y-93444857D01*
X186355642Y-93587714D01*
X186355642Y-93944857D01*
X186284214Y-94087714D01*
X185927071Y-94659142D02*
X186927071Y-95016285D01*
X185927071Y-95373428D01*
X186927071Y-95944857D02*
X185927071Y-95944857D01*
X185427071Y-95944857D02*
X185498500Y-95873428D01*
X185569928Y-95944857D01*
X185498500Y-96016285D01*
X185427071Y-95944857D01*
X185569928Y-95944857D01*
X186927071Y-97302000D02*
X185427071Y-97302000D01*
X186855642Y-97302000D02*
X186927071Y-97159142D01*
X186927071Y-96873428D01*
X186855642Y-96730571D01*
X186784214Y-96659142D01*
X186641357Y-96587714D01*
X186212785Y-96587714D01*
X186069928Y-96659142D01*
X185998500Y-96730571D01*
X185927071Y-96873428D01*
X185927071Y-97159142D01*
X185998500Y-97302000D01*
X186212785Y-99444857D02*
X186927071Y-99444857D01*
X185427071Y-98944857D02*
X186212785Y-99444857D01*
X185427071Y-99944857D01*
X186927071Y-100659142D02*
X186855642Y-100516285D01*
X186784214Y-100444857D01*
X186641357Y-100373428D01*
X186212785Y-100373428D01*
X186069928Y-100444857D01*
X185998500Y-100516285D01*
X185927071Y-100659142D01*
X185927071Y-100873428D01*
X185998500Y-101016285D01*
X186069928Y-101087714D01*
X186212785Y-101159142D01*
X186641357Y-101159142D01*
X186784214Y-101087714D01*
X186855642Y-101016285D01*
X186927071Y-100873428D01*
X186927071Y-100659142D01*
X185927071Y-102444857D02*
X186927071Y-102444857D01*
X185927071Y-101802000D02*
X186712785Y-101802000D01*
X186855642Y-101873428D01*
X186927071Y-102016285D01*
X186927071Y-102230571D01*
X186855642Y-102373428D01*
X186784214Y-102444857D01*
X185927071Y-103159142D02*
X186927071Y-103159142D01*
X186069928Y-103159142D02*
X185998500Y-103230571D01*
X185927071Y-103373428D01*
X185927071Y-103587714D01*
X185998500Y-103730571D01*
X186141357Y-103802000D01*
X186927071Y-103802000D01*
X185927071Y-105159142D02*
X187141357Y-105159142D01*
X187284214Y-105087714D01*
X187355642Y-105016285D01*
X187427071Y-104873428D01*
X187427071Y-104659142D01*
X187355642Y-104516285D01*
X186855642Y-105159142D02*
X186927071Y-105016285D01*
X186927071Y-104730571D01*
X186855642Y-104587714D01*
X186784214Y-104516285D01*
X186641357Y-104444857D01*
X186212785Y-104444857D01*
X186069928Y-104516285D01*
X185998500Y-104587714D01*
X185927071Y-104730571D01*
X185927071Y-105016285D01*
X185998500Y-105159142D01*
D10*
X171193333Y-52397619D02*
X171193333Y-53397619D01*
X171574285Y-53397619D01*
X171669523Y-53350000D01*
X171717142Y-53302380D01*
X171764761Y-53207142D01*
X171764761Y-53064285D01*
X171717142Y-52969047D01*
X171669523Y-52921428D01*
X171574285Y-52873809D01*
X171193333Y-52873809D01*
X172336190Y-52397619D02*
X172240952Y-52445238D01*
X172193333Y-52492857D01*
X172145714Y-52588095D01*
X172145714Y-52873809D01*
X172193333Y-52969047D01*
X172240952Y-53016666D01*
X172336190Y-53064285D01*
X172479047Y-53064285D01*
X172574285Y-53016666D01*
X172621904Y-52969047D01*
X172669523Y-52873809D01*
X172669523Y-52588095D01*
X172621904Y-52492857D01*
X172574285Y-52445238D01*
X172479047Y-52397619D01*
X172336190Y-52397619D01*
X173050476Y-52445238D02*
X173145714Y-52397619D01*
X173336190Y-52397619D01*
X173431428Y-52445238D01*
X173479047Y-52540476D01*
X173479047Y-52588095D01*
X173431428Y-52683333D01*
X173336190Y-52730952D01*
X173193333Y-52730952D01*
X173098095Y-52778571D01*
X173050476Y-52873809D01*
X173050476Y-52921428D01*
X173098095Y-53016666D01*
X173193333Y-53064285D01*
X173336190Y-53064285D01*
X173431428Y-53016666D01*
X173907619Y-52397619D02*
X173907619Y-53064285D01*
X173907619Y-53397619D02*
X173860000Y-53350000D01*
X173907619Y-53302380D01*
X173955238Y-53350000D01*
X173907619Y-53397619D01*
X173907619Y-53302380D01*
X174240952Y-53064285D02*
X174621904Y-53064285D01*
X174383809Y-53397619D02*
X174383809Y-52540476D01*
X174431428Y-52445238D01*
X174526666Y-52397619D01*
X174621904Y-52397619D01*
X174955238Y-52397619D02*
X174955238Y-53064285D01*
X174955238Y-53397619D02*
X174907619Y-53350000D01*
X174955238Y-53302380D01*
X175002857Y-53350000D01*
X174955238Y-53397619D01*
X174955238Y-53302380D01*
X175336190Y-53064285D02*
X175574285Y-52397619D01*
X175812380Y-53064285D01*
X176574285Y-52445238D02*
X176479047Y-52397619D01*
X176288571Y-52397619D01*
X176193333Y-52445238D01*
X176145714Y-52540476D01*
X176145714Y-52921428D01*
X176193333Y-53016666D01*
X176288571Y-53064285D01*
X176479047Y-53064285D01*
X176574285Y-53016666D01*
X176621904Y-52921428D01*
X176621904Y-52826190D01*
X176145714Y-52730952D01*
X177669523Y-53064285D02*
X178050476Y-53064285D01*
X177812380Y-53397619D02*
X177812380Y-52540476D01*
X177860000Y-52445238D01*
X177955238Y-52397619D01*
X178050476Y-52397619D01*
X178764761Y-52445238D02*
X178669523Y-52397619D01*
X178479047Y-52397619D01*
X178383809Y-52445238D01*
X178336190Y-52540476D01*
X178336190Y-52921428D01*
X178383809Y-53016666D01*
X178479047Y-53064285D01*
X178669523Y-53064285D01*
X178764761Y-53016666D01*
X178812380Y-52921428D01*
X178812380Y-52826190D01*
X178336190Y-52730952D01*
X179240952Y-52397619D02*
X179240952Y-53064285D01*
X179240952Y-52873809D02*
X179288571Y-52969047D01*
X179336190Y-53016666D01*
X179431428Y-53064285D01*
X179526666Y-53064285D01*
X179860000Y-52397619D02*
X179860000Y-53064285D01*
X179860000Y-52969047D02*
X179907619Y-53016666D01*
X180002857Y-53064285D01*
X180145714Y-53064285D01*
X180240952Y-53016666D01*
X180288571Y-52921428D01*
X180288571Y-52397619D01*
X180288571Y-52921428D02*
X180336190Y-53016666D01*
X180431428Y-53064285D01*
X180574285Y-53064285D01*
X180669523Y-53016666D01*
X180717142Y-52921428D01*
X180717142Y-52397619D01*
X181193333Y-52397619D02*
X181193333Y-53064285D01*
X181193333Y-53397619D02*
X181145714Y-53350000D01*
X181193333Y-53302380D01*
X181240952Y-53350000D01*
X181193333Y-53397619D01*
X181193333Y-53302380D01*
X181669523Y-53064285D02*
X181669523Y-52397619D01*
X181669523Y-52969047D02*
X181717142Y-53016666D01*
X181812380Y-53064285D01*
X181955238Y-53064285D01*
X182050476Y-53016666D01*
X182098095Y-52921428D01*
X182098095Y-52397619D01*
X183002857Y-52397619D02*
X183002857Y-52921428D01*
X182955238Y-53016666D01*
X182860000Y-53064285D01*
X182669523Y-53064285D01*
X182574285Y-53016666D01*
X183002857Y-52445238D02*
X182907619Y-52397619D01*
X182669523Y-52397619D01*
X182574285Y-52445238D01*
X182526666Y-52540476D01*
X182526666Y-52635714D01*
X182574285Y-52730952D01*
X182669523Y-52778571D01*
X182907619Y-52778571D01*
X183002857Y-52826190D01*
X183621904Y-52397619D02*
X183526666Y-52445238D01*
X183479047Y-52540476D01*
X183479047Y-53397619D01*
X183388095Y-65016000D02*
X183292857Y-65063619D01*
X183150000Y-65063619D01*
X183007142Y-65016000D01*
X182911904Y-64920761D01*
X182864285Y-64825523D01*
X182816666Y-64635047D01*
X182816666Y-64492190D01*
X182864285Y-64301714D01*
X182911904Y-64206476D01*
X183007142Y-64111238D01*
X183150000Y-64063619D01*
X183245238Y-64063619D01*
X183388095Y-64111238D01*
X183435714Y-64158857D01*
X183435714Y-64492190D01*
X183245238Y-64492190D01*
X183864285Y-64063619D02*
X183864285Y-65063619D01*
X184435714Y-64063619D01*
X184435714Y-65063619D01*
X184911904Y-64063619D02*
X184911904Y-65063619D01*
X185150000Y-65063619D01*
X185292857Y-65016000D01*
X185388095Y-64920761D01*
X185435714Y-64825523D01*
X185483333Y-64635047D01*
X185483333Y-64492190D01*
X185435714Y-64301714D01*
X185388095Y-64206476D01*
X185292857Y-64111238D01*
X185150000Y-64063619D01*
X184911904Y-64063619D01*
X130968904Y-84510619D02*
X130968904Y-85510619D01*
X131349857Y-85510619D01*
X131445095Y-85463000D01*
X131492714Y-85415380D01*
X131540333Y-85320142D01*
X131540333Y-85177285D01*
X131492714Y-85082047D01*
X131445095Y-85034428D01*
X131349857Y-84986809D01*
X130968904Y-84986809D01*
X132540333Y-84605857D02*
X132492714Y-84558238D01*
X132349857Y-84510619D01*
X132254619Y-84510619D01*
X132111761Y-84558238D01*
X132016523Y-84653476D01*
X131968904Y-84748714D01*
X131921285Y-84939190D01*
X131921285Y-85082047D01*
X131968904Y-85272523D01*
X132016523Y-85367761D01*
X132111761Y-85463000D01*
X132254619Y-85510619D01*
X132349857Y-85510619D01*
X132492714Y-85463000D01*
X132540333Y-85415380D01*
X133445095Y-85510619D02*
X132968904Y-85510619D01*
X132921285Y-85034428D01*
X132968904Y-85082047D01*
X133064142Y-85129666D01*
X133302238Y-85129666D01*
X133397476Y-85082047D01*
X133445095Y-85034428D01*
X133492714Y-84939190D01*
X133492714Y-84701095D01*
X133445095Y-84605857D01*
X133397476Y-84558238D01*
X133302238Y-84510619D01*
X133064142Y-84510619D01*
X132968904Y-84558238D01*
X132921285Y-84605857D01*
%TO.C,TP12*%
X114514095Y-104864380D02*
X113942666Y-104864380D01*
X114228380Y-105864380D02*
X114228380Y-104864380D01*
X113609333Y-105864380D02*
X113609333Y-104864380D01*
X113228380Y-104864380D01*
X113133142Y-104912000D01*
X113085523Y-104959619D01*
X113037904Y-105054857D01*
X113037904Y-105197714D01*
X113085523Y-105292952D01*
X113133142Y-105340571D01*
X113228380Y-105388190D01*
X113609333Y-105388190D01*
X112085523Y-105864380D02*
X112656952Y-105864380D01*
X112371238Y-105864380D02*
X112371238Y-104864380D01*
X112466476Y-105007238D01*
X112561714Y-105102476D01*
X112656952Y-105150095D01*
X111704571Y-104959619D02*
X111656952Y-104912000D01*
X111561714Y-104864380D01*
X111323619Y-104864380D01*
X111228380Y-104912000D01*
X111180761Y-104959619D01*
X111133142Y-105054857D01*
X111133142Y-105150095D01*
X111180761Y-105292952D01*
X111752190Y-105864380D01*
X111133142Y-105864380D01*
D12*
%TO.C,C10*%
X136198428Y-93671571D02*
X136258904Y-93732047D01*
X136440333Y-93792523D01*
X136561285Y-93792523D01*
X136742714Y-93732047D01*
X136863666Y-93611095D01*
X136924142Y-93490142D01*
X136984619Y-93248238D01*
X136984619Y-93066809D01*
X136924142Y-92824904D01*
X136863666Y-92703952D01*
X136742714Y-92583000D01*
X136561285Y-92522523D01*
X136440333Y-92522523D01*
X136258904Y-92583000D01*
X136198428Y-92643476D01*
X134988904Y-93792523D02*
X135714619Y-93792523D01*
X135351761Y-93792523D02*
X135351761Y-92522523D01*
X135472714Y-92703952D01*
X135593666Y-92824904D01*
X135714619Y-92885380D01*
X134202714Y-92522523D02*
X134081761Y-92522523D01*
X133960809Y-92583000D01*
X133900333Y-92643476D01*
X133839857Y-92764428D01*
X133779380Y-93006333D01*
X133779380Y-93308714D01*
X133839857Y-93550619D01*
X133900333Y-93671571D01*
X133960809Y-93732047D01*
X134081761Y-93792523D01*
X134202714Y-93792523D01*
X134323666Y-93732047D01*
X134384142Y-93671571D01*
X134444619Y-93550619D01*
X134505095Y-93308714D01*
X134505095Y-93006333D01*
X134444619Y-92764428D01*
X134384142Y-92643476D01*
X134323666Y-92583000D01*
X134202714Y-92522523D01*
%TO.C,R13*%
X125784523Y-94583571D02*
X125179761Y-94160238D01*
X125784523Y-93857857D02*
X124514523Y-93857857D01*
X124514523Y-94341666D01*
X124575000Y-94462619D01*
X124635476Y-94523095D01*
X124756428Y-94583571D01*
X124937857Y-94583571D01*
X125058809Y-94523095D01*
X125119285Y-94462619D01*
X125179761Y-94341666D01*
X125179761Y-93857857D01*
X125784523Y-95793095D02*
X125784523Y-95067380D01*
X125784523Y-95430238D02*
X124514523Y-95430238D01*
X124695952Y-95309285D01*
X124816904Y-95188333D01*
X124877380Y-95067380D01*
X124514523Y-96216428D02*
X124514523Y-97002619D01*
X124998333Y-96579285D01*
X124998333Y-96760714D01*
X125058809Y-96881666D01*
X125119285Y-96942142D01*
X125240238Y-97002619D01*
X125542619Y-97002619D01*
X125663571Y-96942142D01*
X125724047Y-96881666D01*
X125784523Y-96760714D01*
X125784523Y-96397857D01*
X125724047Y-96276904D01*
X125663571Y-96216428D01*
%TO.C,R11*%
X107126428Y-101574523D02*
X107549761Y-100969761D01*
X107852142Y-101574523D02*
X107852142Y-100304523D01*
X107368333Y-100304523D01*
X107247380Y-100365000D01*
X107186904Y-100425476D01*
X107126428Y-100546428D01*
X107126428Y-100727857D01*
X107186904Y-100848809D01*
X107247380Y-100909285D01*
X107368333Y-100969761D01*
X107852142Y-100969761D01*
X105916904Y-101574523D02*
X106642619Y-101574523D01*
X106279761Y-101574523D02*
X106279761Y-100304523D01*
X106400714Y-100485952D01*
X106521666Y-100606904D01*
X106642619Y-100667380D01*
X104707380Y-101574523D02*
X105433095Y-101574523D01*
X105070238Y-101574523D02*
X105070238Y-100304523D01*
X105191190Y-100485952D01*
X105312142Y-100606904D01*
X105433095Y-100667380D01*
%TO.C,IC4*%
X98832161Y-54203923D02*
X98832161Y-52933923D01*
X97501685Y-54082971D02*
X97562161Y-54143447D01*
X97743590Y-54203923D01*
X97864542Y-54203923D01*
X98045971Y-54143447D01*
X98166923Y-54022495D01*
X98227400Y-53901542D01*
X98287876Y-53659638D01*
X98287876Y-53478209D01*
X98227400Y-53236304D01*
X98166923Y-53115352D01*
X98045971Y-52994400D01*
X97864542Y-52933923D01*
X97743590Y-52933923D01*
X97562161Y-52994400D01*
X97501685Y-53054876D01*
X96413114Y-53357257D02*
X96413114Y-54203923D01*
X96715495Y-52873447D02*
X97017876Y-53780590D01*
X96231685Y-53780590D01*
D13*
%TO.C,R3*%
X99377071Y-67774085D02*
X98832785Y-67393085D01*
X99377071Y-67120942D02*
X98234071Y-67120942D01*
X98234071Y-67556371D01*
X98288500Y-67665228D01*
X98342928Y-67719657D01*
X98451785Y-67774085D01*
X98615071Y-67774085D01*
X98723928Y-67719657D01*
X98778357Y-67665228D01*
X98832785Y-67556371D01*
X98832785Y-67120942D01*
X98234071Y-68155085D02*
X98234071Y-68862657D01*
X98669500Y-68481657D01*
X98669500Y-68644942D01*
X98723928Y-68753800D01*
X98778357Y-68808228D01*
X98887214Y-68862657D01*
X99159357Y-68862657D01*
X99268214Y-68808228D01*
X99322642Y-68753800D01*
X99377071Y-68644942D01*
X99377071Y-68318371D01*
X99322642Y-68209514D01*
X99268214Y-68155085D01*
D12*
%TO.C,C4*%
X99171666Y-38253571D02*
X99232142Y-38314047D01*
X99413571Y-38374523D01*
X99534523Y-38374523D01*
X99715952Y-38314047D01*
X99836904Y-38193095D01*
X99897380Y-38072142D01*
X99957857Y-37830238D01*
X99957857Y-37648809D01*
X99897380Y-37406904D01*
X99836904Y-37285952D01*
X99715952Y-37165000D01*
X99534523Y-37104523D01*
X99413571Y-37104523D01*
X99232142Y-37165000D01*
X99171666Y-37225476D01*
X98083095Y-37527857D02*
X98083095Y-38374523D01*
X98385476Y-37044047D02*
X98687857Y-37951190D01*
X97901666Y-37951190D01*
%TO.C,C8*%
X104021666Y-59953571D02*
X104082142Y-60014047D01*
X104263571Y-60074523D01*
X104384523Y-60074523D01*
X104565952Y-60014047D01*
X104686904Y-59893095D01*
X104747380Y-59772142D01*
X104807857Y-59530238D01*
X104807857Y-59348809D01*
X104747380Y-59106904D01*
X104686904Y-58985952D01*
X104565952Y-58865000D01*
X104384523Y-58804523D01*
X104263571Y-58804523D01*
X104082142Y-58865000D01*
X104021666Y-58925476D01*
X103295952Y-59348809D02*
X103416904Y-59288333D01*
X103477380Y-59227857D01*
X103537857Y-59106904D01*
X103537857Y-59046428D01*
X103477380Y-58925476D01*
X103416904Y-58865000D01*
X103295952Y-58804523D01*
X103054047Y-58804523D01*
X102933095Y-58865000D01*
X102872619Y-58925476D01*
X102812142Y-59046428D01*
X102812142Y-59106904D01*
X102872619Y-59227857D01*
X102933095Y-59288333D01*
X103054047Y-59348809D01*
X103295952Y-59348809D01*
X103416904Y-59409285D01*
X103477380Y-59469761D01*
X103537857Y-59590714D01*
X103537857Y-59832619D01*
X103477380Y-59953571D01*
X103416904Y-60014047D01*
X103295952Y-60074523D01*
X103054047Y-60074523D01*
X102933095Y-60014047D01*
X102872619Y-59953571D01*
X102812142Y-59832619D01*
X102812142Y-59590714D01*
X102872619Y-59469761D01*
X102933095Y-59409285D01*
X103054047Y-59348809D01*
D13*
%TO.C,D6*%
X109881228Y-108975071D02*
X109881228Y-107832071D01*
X109609085Y-107832071D01*
X109445800Y-107886500D01*
X109336942Y-107995357D01*
X109282514Y-108104214D01*
X109228085Y-108321928D01*
X109228085Y-108485214D01*
X109282514Y-108702928D01*
X109336942Y-108811785D01*
X109445800Y-108920642D01*
X109609085Y-108975071D01*
X109881228Y-108975071D01*
X108248371Y-107832071D02*
X108466085Y-107832071D01*
X108574942Y-107886500D01*
X108629371Y-107940928D01*
X108738228Y-108104214D01*
X108792657Y-108321928D01*
X108792657Y-108757357D01*
X108738228Y-108866214D01*
X108683800Y-108920642D01*
X108574942Y-108975071D01*
X108357228Y-108975071D01*
X108248371Y-108920642D01*
X108193942Y-108866214D01*
X108139514Y-108757357D01*
X108139514Y-108485214D01*
X108193942Y-108376357D01*
X108248371Y-108321928D01*
X108357228Y-108267500D01*
X108574942Y-108267500D01*
X108683800Y-108321928D01*
X108738228Y-108376357D01*
X108792657Y-108485214D01*
D10*
%TO.C,TP3*%
X173952380Y-112784095D02*
X173952380Y-113355523D01*
X174952380Y-113069809D02*
X173952380Y-113069809D01*
X174952380Y-113688857D02*
X173952380Y-113688857D01*
X173952380Y-114069809D01*
X174000000Y-114165047D01*
X174047619Y-114212666D01*
X174142857Y-114260285D01*
X174285714Y-114260285D01*
X174380952Y-114212666D01*
X174428571Y-114165047D01*
X174476190Y-114069809D01*
X174476190Y-113688857D01*
X173952380Y-114593619D02*
X173952380Y-115212666D01*
X174333333Y-114879333D01*
X174333333Y-115022190D01*
X174380952Y-115117428D01*
X174428571Y-115165047D01*
X174523809Y-115212666D01*
X174761904Y-115212666D01*
X174857142Y-115165047D01*
X174904761Y-115117428D01*
X174952380Y-115022190D01*
X174952380Y-114736476D01*
X174904761Y-114641238D01*
X174857142Y-114593619D01*
D12*
%TO.C,IC3*%
X112249761Y-50024523D02*
X112249761Y-48754523D01*
X110919285Y-49903571D02*
X110979761Y-49964047D01*
X111161190Y-50024523D01*
X111282142Y-50024523D01*
X111463571Y-49964047D01*
X111584523Y-49843095D01*
X111645000Y-49722142D01*
X111705476Y-49480238D01*
X111705476Y-49298809D01*
X111645000Y-49056904D01*
X111584523Y-48935952D01*
X111463571Y-48815000D01*
X111282142Y-48754523D01*
X111161190Y-48754523D01*
X110979761Y-48815000D01*
X110919285Y-48875476D01*
X110495952Y-48754523D02*
X109709761Y-48754523D01*
X110133095Y-49238333D01*
X109951666Y-49238333D01*
X109830714Y-49298809D01*
X109770238Y-49359285D01*
X109709761Y-49480238D01*
X109709761Y-49782619D01*
X109770238Y-49903571D01*
X109830714Y-49964047D01*
X109951666Y-50024523D01*
X110314523Y-50024523D01*
X110435476Y-49964047D01*
X110495952Y-49903571D01*
D13*
%TO.C,U4*%
X94129057Y-93774071D02*
X94129057Y-94699357D01*
X94074628Y-94808214D01*
X94020200Y-94862642D01*
X93911342Y-94917071D01*
X93693628Y-94917071D01*
X93584771Y-94862642D01*
X93530342Y-94808214D01*
X93475914Y-94699357D01*
X93475914Y-93774071D01*
X92441771Y-94155071D02*
X92441771Y-94917071D01*
X92713914Y-93719642D02*
X92986057Y-94536071D01*
X92278485Y-94536071D01*
D12*
%TO.C,D1*%
X119997380Y-61574523D02*
X119997380Y-60304523D01*
X119695000Y-60304523D01*
X119513571Y-60365000D01*
X119392619Y-60485952D01*
X119332142Y-60606904D01*
X119271666Y-60848809D01*
X119271666Y-61030238D01*
X119332142Y-61272142D01*
X119392619Y-61393095D01*
X119513571Y-61514047D01*
X119695000Y-61574523D01*
X119997380Y-61574523D01*
X118062142Y-61574523D02*
X118787857Y-61574523D01*
X118425000Y-61574523D02*
X118425000Y-60304523D01*
X118545952Y-60485952D01*
X118666904Y-60606904D01*
X118787857Y-60667380D01*
D10*
%TO.C,TP4*%
X161758380Y-114054095D02*
X161758380Y-114625523D01*
X162758380Y-114339809D02*
X161758380Y-114339809D01*
X162758380Y-114958857D02*
X161758380Y-114958857D01*
X161758380Y-115339809D01*
X161806000Y-115435047D01*
X161853619Y-115482666D01*
X161948857Y-115530285D01*
X162091714Y-115530285D01*
X162186952Y-115482666D01*
X162234571Y-115435047D01*
X162282190Y-115339809D01*
X162282190Y-114958857D01*
X162091714Y-116387428D02*
X162758380Y-116387428D01*
X161710761Y-116149333D02*
X162425047Y-115911238D01*
X162425047Y-116530285D01*
D13*
%TO.C,R14*%
X131817914Y-104403071D02*
X132198914Y-103858785D01*
X132471057Y-104403071D02*
X132471057Y-103260071D01*
X132035628Y-103260071D01*
X131926771Y-103314500D01*
X131872342Y-103368928D01*
X131817914Y-103477785D01*
X131817914Y-103641071D01*
X131872342Y-103749928D01*
X131926771Y-103804357D01*
X132035628Y-103858785D01*
X132471057Y-103858785D01*
X130729342Y-104403071D02*
X131382485Y-104403071D01*
X131055914Y-104403071D02*
X131055914Y-103260071D01*
X131164771Y-103423357D01*
X131273628Y-103532214D01*
X131382485Y-103586642D01*
X129749628Y-103641071D02*
X129749628Y-104403071D01*
X130021771Y-103205642D02*
X130293914Y-104022071D01*
X129586342Y-104022071D01*
D10*
%TO.C,TP13*%
X140803095Y-84544380D02*
X140231666Y-84544380D01*
X140517380Y-85544380D02*
X140517380Y-84544380D01*
X139898333Y-85544380D02*
X139898333Y-84544380D01*
X139517380Y-84544380D01*
X139422142Y-84592000D01*
X139374523Y-84639619D01*
X139326904Y-84734857D01*
X139326904Y-84877714D01*
X139374523Y-84972952D01*
X139422142Y-85020571D01*
X139517380Y-85068190D01*
X139898333Y-85068190D01*
X138374523Y-85544380D02*
X138945952Y-85544380D01*
X138660238Y-85544380D02*
X138660238Y-84544380D01*
X138755476Y-84687238D01*
X138850714Y-84782476D01*
X138945952Y-84830095D01*
X138041190Y-84544380D02*
X137422142Y-84544380D01*
X137755476Y-84925333D01*
X137612619Y-84925333D01*
X137517380Y-84972952D01*
X137469761Y-85020571D01*
X137422142Y-85115809D01*
X137422142Y-85353904D01*
X137469761Y-85449142D01*
X137517380Y-85496761D01*
X137612619Y-85544380D01*
X137898333Y-85544380D01*
X137993571Y-85496761D01*
X138041190Y-85449142D01*
D13*
%TO.C,D4*%
X103261057Y-90560071D02*
X103261057Y-89417071D01*
X102988914Y-89417071D01*
X102825628Y-89471500D01*
X102716771Y-89580357D01*
X102662342Y-89689214D01*
X102607914Y-89906928D01*
X102607914Y-90070214D01*
X102662342Y-90287928D01*
X102716771Y-90396785D01*
X102825628Y-90505642D01*
X102988914Y-90560071D01*
X103261057Y-90560071D01*
X101628200Y-89798071D02*
X101628200Y-90560071D01*
X101900342Y-89362642D02*
X102172485Y-90179071D01*
X101464914Y-90179071D01*
D12*
%TO.C,C12*%
X114753571Y-100656571D02*
X114814047Y-100596095D01*
X114874523Y-100414666D01*
X114874523Y-100293714D01*
X114814047Y-100112285D01*
X114693095Y-99991333D01*
X114572142Y-99930857D01*
X114330238Y-99870380D01*
X114148809Y-99870380D01*
X113906904Y-99930857D01*
X113785952Y-99991333D01*
X113665000Y-100112285D01*
X113604523Y-100293714D01*
X113604523Y-100414666D01*
X113665000Y-100596095D01*
X113725476Y-100656571D01*
X114874523Y-101866095D02*
X114874523Y-101140380D01*
X114874523Y-101503238D02*
X113604523Y-101503238D01*
X113785952Y-101382285D01*
X113906904Y-101261333D01*
X113967380Y-101140380D01*
X113725476Y-102349904D02*
X113665000Y-102410380D01*
X113604523Y-102531333D01*
X113604523Y-102833714D01*
X113665000Y-102954666D01*
X113725476Y-103015142D01*
X113846428Y-103075619D01*
X113967380Y-103075619D01*
X114148809Y-103015142D01*
X114874523Y-102289428D01*
X114874523Y-103075619D01*
%TO.C,C3*%
X92713571Y-56338333D02*
X92774047Y-56277857D01*
X92834523Y-56096428D01*
X92834523Y-55975476D01*
X92774047Y-55794047D01*
X92653095Y-55673095D01*
X92532142Y-55612619D01*
X92290238Y-55552142D01*
X92108809Y-55552142D01*
X91866904Y-55612619D01*
X91745952Y-55673095D01*
X91625000Y-55794047D01*
X91564523Y-55975476D01*
X91564523Y-56096428D01*
X91625000Y-56277857D01*
X91685476Y-56338333D01*
X91564523Y-56761666D02*
X91564523Y-57547857D01*
X92048333Y-57124523D01*
X92048333Y-57305952D01*
X92108809Y-57426904D01*
X92169285Y-57487380D01*
X92290238Y-57547857D01*
X92592619Y-57547857D01*
X92713571Y-57487380D01*
X92774047Y-57426904D01*
X92834523Y-57305952D01*
X92834523Y-56943095D01*
X92774047Y-56822142D01*
X92713571Y-56761666D01*
%TO.C,D8*%
X118734523Y-94462619D02*
X117464523Y-94462619D01*
X117464523Y-94765000D01*
X117525000Y-94946428D01*
X117645952Y-95067380D01*
X117766904Y-95127857D01*
X118008809Y-95188333D01*
X118190238Y-95188333D01*
X118432142Y-95127857D01*
X118553095Y-95067380D01*
X118674047Y-94946428D01*
X118734523Y-94765000D01*
X118734523Y-94462619D01*
X118008809Y-95914047D02*
X117948333Y-95793095D01*
X117887857Y-95732619D01*
X117766904Y-95672142D01*
X117706428Y-95672142D01*
X117585476Y-95732619D01*
X117525000Y-95793095D01*
X117464523Y-95914047D01*
X117464523Y-96155952D01*
X117525000Y-96276904D01*
X117585476Y-96337380D01*
X117706428Y-96397857D01*
X117766904Y-96397857D01*
X117887857Y-96337380D01*
X117948333Y-96276904D01*
X118008809Y-96155952D01*
X118008809Y-95914047D01*
X118069285Y-95793095D01*
X118129761Y-95732619D01*
X118250714Y-95672142D01*
X118492619Y-95672142D01*
X118613571Y-95732619D01*
X118674047Y-95793095D01*
X118734523Y-95914047D01*
X118734523Y-96155952D01*
X118674047Y-96276904D01*
X118613571Y-96337380D01*
X118492619Y-96397857D01*
X118250714Y-96397857D01*
X118129761Y-96337380D01*
X118069285Y-96276904D01*
X118008809Y-96155952D01*
%TO.C,Q1*%
X92262476Y-35439047D02*
X92202000Y-35318095D01*
X92081047Y-35197142D01*
X91899619Y-35015714D01*
X91839142Y-34894761D01*
X91839142Y-34773809D01*
X92141523Y-34834285D02*
X92081047Y-34713333D01*
X91960095Y-34592380D01*
X91718190Y-34531904D01*
X91294857Y-34531904D01*
X91052952Y-34592380D01*
X90932000Y-34713333D01*
X90871523Y-34834285D01*
X90871523Y-35076190D01*
X90932000Y-35197142D01*
X91052952Y-35318095D01*
X91294857Y-35378571D01*
X91718190Y-35378571D01*
X91960095Y-35318095D01*
X92081047Y-35197142D01*
X92141523Y-35076190D01*
X92141523Y-34834285D01*
X92141523Y-36588095D02*
X92141523Y-35862380D01*
X92141523Y-36225238D02*
X90871523Y-36225238D01*
X91052952Y-36104285D01*
X91173904Y-35983333D01*
X91234380Y-35862380D01*
D10*
%TO.C,TP9*%
X121403904Y-111468380D02*
X120832476Y-111468380D01*
X121118190Y-112468380D02*
X121118190Y-111468380D01*
X120499142Y-112468380D02*
X120499142Y-111468380D01*
X120118190Y-111468380D01*
X120022952Y-111516000D01*
X119975333Y-111563619D01*
X119927714Y-111658857D01*
X119927714Y-111801714D01*
X119975333Y-111896952D01*
X120022952Y-111944571D01*
X120118190Y-111992190D01*
X120499142Y-111992190D01*
X119451523Y-112468380D02*
X119261047Y-112468380D01*
X119165809Y-112420761D01*
X119118190Y-112373142D01*
X119022952Y-112230285D01*
X118975333Y-112039809D01*
X118975333Y-111658857D01*
X119022952Y-111563619D01*
X119070571Y-111516000D01*
X119165809Y-111468380D01*
X119356285Y-111468380D01*
X119451523Y-111516000D01*
X119499142Y-111563619D01*
X119546761Y-111658857D01*
X119546761Y-111896952D01*
X119499142Y-111992190D01*
X119451523Y-112039809D01*
X119356285Y-112087428D01*
X119165809Y-112087428D01*
X119070571Y-112039809D01*
X119022952Y-111992190D01*
X118975333Y-111896952D01*
D13*
%TO.C,D5*%
X111539057Y-101217071D02*
X111539057Y-100074071D01*
X111266914Y-100074071D01*
X111103628Y-100128500D01*
X110994771Y-100237357D01*
X110940342Y-100346214D01*
X110885914Y-100563928D01*
X110885914Y-100727214D01*
X110940342Y-100944928D01*
X110994771Y-101053785D01*
X111103628Y-101162642D01*
X111266914Y-101217071D01*
X111539057Y-101217071D01*
X109851771Y-100074071D02*
X110396057Y-100074071D01*
X110450485Y-100618357D01*
X110396057Y-100563928D01*
X110287200Y-100509500D01*
X110015057Y-100509500D01*
X109906200Y-100563928D01*
X109851771Y-100618357D01*
X109797342Y-100727214D01*
X109797342Y-100999357D01*
X109851771Y-101108214D01*
X109906200Y-101162642D01*
X110015057Y-101217071D01*
X110287200Y-101217071D01*
X110396057Y-101162642D01*
X110450485Y-101108214D01*
D10*
%TO.C,TP8*%
X133849904Y-111468380D02*
X133278476Y-111468380D01*
X133564190Y-112468380D02*
X133564190Y-111468380D01*
X132945142Y-112468380D02*
X132945142Y-111468380D01*
X132564190Y-111468380D01*
X132468952Y-111516000D01*
X132421333Y-111563619D01*
X132373714Y-111658857D01*
X132373714Y-111801714D01*
X132421333Y-111896952D01*
X132468952Y-111944571D01*
X132564190Y-111992190D01*
X132945142Y-111992190D01*
X131802285Y-111896952D02*
X131897523Y-111849333D01*
X131945142Y-111801714D01*
X131992761Y-111706476D01*
X131992761Y-111658857D01*
X131945142Y-111563619D01*
X131897523Y-111516000D01*
X131802285Y-111468380D01*
X131611809Y-111468380D01*
X131516571Y-111516000D01*
X131468952Y-111563619D01*
X131421333Y-111658857D01*
X131421333Y-111706476D01*
X131468952Y-111801714D01*
X131516571Y-111849333D01*
X131611809Y-111896952D01*
X131802285Y-111896952D01*
X131897523Y-111944571D01*
X131945142Y-111992190D01*
X131992761Y-112087428D01*
X131992761Y-112277904D01*
X131945142Y-112373142D01*
X131897523Y-112420761D01*
X131802285Y-112468380D01*
X131611809Y-112468380D01*
X131516571Y-112420761D01*
X131468952Y-112373142D01*
X131421333Y-112277904D01*
X131421333Y-112087428D01*
X131468952Y-111992190D01*
X131516571Y-111944571D01*
X131611809Y-111896952D01*
%TO.C,TP11*%
X115020380Y-105957904D02*
X115020380Y-106529333D01*
X116020380Y-106243619D02*
X115020380Y-106243619D01*
X116020380Y-106862666D02*
X115020380Y-106862666D01*
X115020380Y-107243619D01*
X115068000Y-107338857D01*
X115115619Y-107386476D01*
X115210857Y-107434095D01*
X115353714Y-107434095D01*
X115448952Y-107386476D01*
X115496571Y-107338857D01*
X115544190Y-107243619D01*
X115544190Y-106862666D01*
X116020380Y-108386476D02*
X116020380Y-107815047D01*
X116020380Y-108100761D02*
X115020380Y-108100761D01*
X115163238Y-108005523D01*
X115258476Y-107910285D01*
X115306095Y-107815047D01*
X116020380Y-109338857D02*
X116020380Y-108767428D01*
X116020380Y-109053142D02*
X115020380Y-109053142D01*
X115163238Y-108957904D01*
X115258476Y-108862666D01*
X115306095Y-108767428D01*
D12*
%TO.C,R5*%
X99221666Y-62074523D02*
X99645000Y-61469761D01*
X99947380Y-62074523D02*
X99947380Y-60804523D01*
X99463571Y-60804523D01*
X99342619Y-60865000D01*
X99282142Y-60925476D01*
X99221666Y-61046428D01*
X99221666Y-61227857D01*
X99282142Y-61348809D01*
X99342619Y-61409285D01*
X99463571Y-61469761D01*
X99947380Y-61469761D01*
X98072619Y-60804523D02*
X98677380Y-60804523D01*
X98737857Y-61409285D01*
X98677380Y-61348809D01*
X98556428Y-61288333D01*
X98254047Y-61288333D01*
X98133095Y-61348809D01*
X98072619Y-61409285D01*
X98012142Y-61530238D01*
X98012142Y-61832619D01*
X98072619Y-61953571D01*
X98133095Y-62014047D01*
X98254047Y-62074523D01*
X98556428Y-62074523D01*
X98677380Y-62014047D01*
X98737857Y-61953571D01*
%TO.C,U2*%
X109933619Y-84648523D02*
X109933619Y-85676619D01*
X109873142Y-85797571D01*
X109812666Y-85858047D01*
X109691714Y-85918523D01*
X109449809Y-85918523D01*
X109328857Y-85858047D01*
X109268380Y-85797571D01*
X109207904Y-85676619D01*
X109207904Y-84648523D01*
X108663619Y-84769476D02*
X108603142Y-84709000D01*
X108482190Y-84648523D01*
X108179809Y-84648523D01*
X108058857Y-84709000D01*
X107998380Y-84769476D01*
X107937904Y-84890428D01*
X107937904Y-85011380D01*
X107998380Y-85192809D01*
X108724095Y-85918523D01*
X107937904Y-85918523D01*
%TO.C,IC5*%
X128134523Y-100810238D02*
X126864523Y-100810238D01*
X128013571Y-102140714D02*
X128074047Y-102080238D01*
X128134523Y-101898809D01*
X128134523Y-101777857D01*
X128074047Y-101596428D01*
X127953095Y-101475476D01*
X127832142Y-101415000D01*
X127590238Y-101354523D01*
X127408809Y-101354523D01*
X127166904Y-101415000D01*
X127045952Y-101475476D01*
X126925000Y-101596428D01*
X126864523Y-101777857D01*
X126864523Y-101898809D01*
X126925000Y-102080238D01*
X126985476Y-102140714D01*
X126864523Y-103289761D02*
X126864523Y-102685000D01*
X127469285Y-102624523D01*
X127408809Y-102685000D01*
X127348333Y-102805952D01*
X127348333Y-103108333D01*
X127408809Y-103229285D01*
X127469285Y-103289761D01*
X127590238Y-103350238D01*
X127892619Y-103350238D01*
X128013571Y-103289761D01*
X128074047Y-103229285D01*
X128134523Y-103108333D01*
X128134523Y-102805952D01*
X128074047Y-102685000D01*
X128013571Y-102624523D01*
%TO.C,C5*%
X96821666Y-64203571D02*
X96882142Y-64264047D01*
X97063571Y-64324523D01*
X97184523Y-64324523D01*
X97365952Y-64264047D01*
X97486904Y-64143095D01*
X97547380Y-64022142D01*
X97607857Y-63780238D01*
X97607857Y-63598809D01*
X97547380Y-63356904D01*
X97486904Y-63235952D01*
X97365952Y-63115000D01*
X97184523Y-63054523D01*
X97063571Y-63054523D01*
X96882142Y-63115000D01*
X96821666Y-63175476D01*
X95672619Y-63054523D02*
X96277380Y-63054523D01*
X96337857Y-63659285D01*
X96277380Y-63598809D01*
X96156428Y-63538333D01*
X95854047Y-63538333D01*
X95733095Y-63598809D01*
X95672619Y-63659285D01*
X95612142Y-63780238D01*
X95612142Y-64082619D01*
X95672619Y-64203571D01*
X95733095Y-64264047D01*
X95854047Y-64324523D01*
X96156428Y-64324523D01*
X96277380Y-64264047D01*
X96337857Y-64203571D01*
D10*
%TO.C,TP10*%
X186142380Y-60237904D02*
X186142380Y-60809333D01*
X187142380Y-60523619D02*
X186142380Y-60523619D01*
X187142380Y-61142666D02*
X186142380Y-61142666D01*
X186142380Y-61523619D01*
X186190000Y-61618857D01*
X186237619Y-61666476D01*
X186332857Y-61714095D01*
X186475714Y-61714095D01*
X186570952Y-61666476D01*
X186618571Y-61618857D01*
X186666190Y-61523619D01*
X186666190Y-61142666D01*
X187142380Y-62666476D02*
X187142380Y-62095047D01*
X187142380Y-62380761D02*
X186142380Y-62380761D01*
X186285238Y-62285523D01*
X186380476Y-62190285D01*
X186428095Y-62095047D01*
X186142380Y-63285523D02*
X186142380Y-63380761D01*
X186190000Y-63476000D01*
X186237619Y-63523619D01*
X186332857Y-63571238D01*
X186523333Y-63618857D01*
X186761428Y-63618857D01*
X186951904Y-63571238D01*
X187047142Y-63523619D01*
X187094761Y-63476000D01*
X187142380Y-63380761D01*
X187142380Y-63285523D01*
X187094761Y-63190285D01*
X187047142Y-63142666D01*
X186951904Y-63095047D01*
X186761428Y-63047428D01*
X186523333Y-63047428D01*
X186332857Y-63095047D01*
X186237619Y-63142666D01*
X186190000Y-63190285D01*
X186142380Y-63285523D01*
%TO.C,TP5*%
X128896904Y-61174380D02*
X128325476Y-61174380D01*
X128611190Y-62174380D02*
X128611190Y-61174380D01*
X127992142Y-62174380D02*
X127992142Y-61174380D01*
X127611190Y-61174380D01*
X127515952Y-61222000D01*
X127468333Y-61269619D01*
X127420714Y-61364857D01*
X127420714Y-61507714D01*
X127468333Y-61602952D01*
X127515952Y-61650571D01*
X127611190Y-61698190D01*
X127992142Y-61698190D01*
X126515952Y-61174380D02*
X126992142Y-61174380D01*
X127039761Y-61650571D01*
X126992142Y-61602952D01*
X126896904Y-61555333D01*
X126658809Y-61555333D01*
X126563571Y-61602952D01*
X126515952Y-61650571D01*
X126468333Y-61745809D01*
X126468333Y-61983904D01*
X126515952Y-62079142D01*
X126563571Y-62126761D01*
X126658809Y-62174380D01*
X126896904Y-62174380D01*
X126992142Y-62126761D01*
X127039761Y-62079142D01*
D12*
%TO.C,L1*%
X92611666Y-87074523D02*
X93216428Y-87074523D01*
X93216428Y-85804523D01*
X91523095Y-87074523D02*
X92248809Y-87074523D01*
X91885952Y-87074523D02*
X91885952Y-85804523D01*
X92006904Y-85985952D01*
X92127857Y-86106904D01*
X92248809Y-86167380D01*
D13*
%TO.C,R4*%
X99127071Y-74524085D02*
X98582785Y-74143085D01*
X99127071Y-73870942D02*
X97984071Y-73870942D01*
X97984071Y-74306371D01*
X98038500Y-74415228D01*
X98092928Y-74469657D01*
X98201785Y-74524085D01*
X98365071Y-74524085D01*
X98473928Y-74469657D01*
X98528357Y-74415228D01*
X98582785Y-74306371D01*
X98582785Y-73870942D01*
X98365071Y-75503800D02*
X99127071Y-75503800D01*
X97929642Y-75231657D02*
X98746071Y-74959514D01*
X98746071Y-75667085D01*
D12*
%TO.C,IC2*%
X98384523Y-70610238D02*
X97114523Y-70610238D01*
X98263571Y-71940714D02*
X98324047Y-71880238D01*
X98384523Y-71698809D01*
X98384523Y-71577857D01*
X98324047Y-71396428D01*
X98203095Y-71275476D01*
X98082142Y-71215000D01*
X97840238Y-71154523D01*
X97658809Y-71154523D01*
X97416904Y-71215000D01*
X97295952Y-71275476D01*
X97175000Y-71396428D01*
X97114523Y-71577857D01*
X97114523Y-71698809D01*
X97175000Y-71880238D01*
X97235476Y-71940714D01*
X97235476Y-72424523D02*
X97175000Y-72485000D01*
X97114523Y-72605952D01*
X97114523Y-72908333D01*
X97175000Y-73029285D01*
X97235476Y-73089761D01*
X97356428Y-73150238D01*
X97477380Y-73150238D01*
X97658809Y-73089761D01*
X98384523Y-72364047D01*
X98384523Y-73150238D01*
%TO.C,C6*%
X144344571Y-92244333D02*
X144405047Y-92183857D01*
X144465523Y-92002428D01*
X144465523Y-91881476D01*
X144405047Y-91700047D01*
X144284095Y-91579095D01*
X144163142Y-91518619D01*
X143921238Y-91458142D01*
X143739809Y-91458142D01*
X143497904Y-91518619D01*
X143376952Y-91579095D01*
X143256000Y-91700047D01*
X143195523Y-91881476D01*
X143195523Y-92002428D01*
X143256000Y-92183857D01*
X143316476Y-92244333D01*
X143195523Y-93332904D02*
X143195523Y-93091000D01*
X143256000Y-92970047D01*
X143316476Y-92909571D01*
X143497904Y-92788619D01*
X143739809Y-92728142D01*
X144223619Y-92728142D01*
X144344571Y-92788619D01*
X144405047Y-92849095D01*
X144465523Y-92970047D01*
X144465523Y-93211952D01*
X144405047Y-93332904D01*
X144344571Y-93393380D01*
X144223619Y-93453857D01*
X143921238Y-93453857D01*
X143800285Y-93393380D01*
X143739809Y-93332904D01*
X143679333Y-93211952D01*
X143679333Y-92970047D01*
X143739809Y-92849095D01*
X143800285Y-92788619D01*
X143921238Y-92728142D01*
D13*
%TO.C,R6*%
X94878071Y-65159085D02*
X94333785Y-64778085D01*
X94878071Y-64505942D02*
X93735071Y-64505942D01*
X93735071Y-64941371D01*
X93789500Y-65050228D01*
X93843928Y-65104657D01*
X93952785Y-65159085D01*
X94116071Y-65159085D01*
X94224928Y-65104657D01*
X94279357Y-65050228D01*
X94333785Y-64941371D01*
X94333785Y-64505942D01*
X93735071Y-66138800D02*
X93735071Y-65921085D01*
X93789500Y-65812228D01*
X93843928Y-65757800D01*
X94007214Y-65648942D01*
X94224928Y-65594514D01*
X94660357Y-65594514D01*
X94769214Y-65648942D01*
X94823642Y-65703371D01*
X94878071Y-65812228D01*
X94878071Y-66029942D01*
X94823642Y-66138800D01*
X94769214Y-66193228D01*
X94660357Y-66247657D01*
X94388214Y-66247657D01*
X94279357Y-66193228D01*
X94224928Y-66138800D01*
X94170500Y-66029942D01*
X94170500Y-65812228D01*
X94224928Y-65703371D01*
X94279357Y-65648942D01*
X94388214Y-65594514D01*
D12*
%TO.C,IC1*%
X99029761Y-46548523D02*
X99029761Y-45278523D01*
X97699285Y-46427571D02*
X97759761Y-46488047D01*
X97941190Y-46548523D01*
X98062142Y-46548523D01*
X98243571Y-46488047D01*
X98364523Y-46367095D01*
X98425000Y-46246142D01*
X98485476Y-46004238D01*
X98485476Y-45822809D01*
X98425000Y-45580904D01*
X98364523Y-45459952D01*
X98243571Y-45339000D01*
X98062142Y-45278523D01*
X97941190Y-45278523D01*
X97759761Y-45339000D01*
X97699285Y-45399476D01*
X96489761Y-46548523D02*
X97215476Y-46548523D01*
X96852619Y-46548523D02*
X96852619Y-45278523D01*
X96973571Y-45459952D01*
X97094523Y-45580904D01*
X97215476Y-45641380D01*
D10*
%TO.C,TP6*%
X116450904Y-87211380D02*
X115879476Y-87211380D01*
X116165190Y-88211380D02*
X116165190Y-87211380D01*
X115546142Y-88211380D02*
X115546142Y-87211380D01*
X115165190Y-87211380D01*
X115069952Y-87259000D01*
X115022333Y-87306619D01*
X114974714Y-87401857D01*
X114974714Y-87544714D01*
X115022333Y-87639952D01*
X115069952Y-87687571D01*
X115165190Y-87735190D01*
X115546142Y-87735190D01*
X114117571Y-87211380D02*
X114308047Y-87211380D01*
X114403285Y-87259000D01*
X114450904Y-87306619D01*
X114546142Y-87449476D01*
X114593761Y-87639952D01*
X114593761Y-88020904D01*
X114546142Y-88116142D01*
X114498523Y-88163761D01*
X114403285Y-88211380D01*
X114212809Y-88211380D01*
X114117571Y-88163761D01*
X114069952Y-88116142D01*
X114022333Y-88020904D01*
X114022333Y-87782809D01*
X114069952Y-87687571D01*
X114117571Y-87639952D01*
X114212809Y-87592333D01*
X114403285Y-87592333D01*
X114498523Y-87639952D01*
X114546142Y-87687571D01*
X114593761Y-87782809D01*
D13*
%TO.C,U1*%
X125302657Y-87766071D02*
X125302657Y-88691357D01*
X125248228Y-88800214D01*
X125193800Y-88854642D01*
X125084942Y-88909071D01*
X124867228Y-88909071D01*
X124758371Y-88854642D01*
X124703942Y-88800214D01*
X124649514Y-88691357D01*
X124649514Y-87766071D01*
X123506514Y-88909071D02*
X124159657Y-88909071D01*
X123833085Y-88909071D02*
X123833085Y-87766071D01*
X123941942Y-87929357D01*
X124050800Y-88038214D01*
X124159657Y-88092642D01*
D12*
%TO.C,U3*%
X142699619Y-100650523D02*
X142699619Y-101678619D01*
X142639142Y-101799571D01*
X142578666Y-101860047D01*
X142457714Y-101920523D01*
X142215809Y-101920523D01*
X142094857Y-101860047D01*
X142034380Y-101799571D01*
X141973904Y-101678619D01*
X141973904Y-100650523D01*
X141490095Y-100650523D02*
X140703904Y-100650523D01*
X141127238Y-101134333D01*
X140945809Y-101134333D01*
X140824857Y-101194809D01*
X140764380Y-101255285D01*
X140703904Y-101376238D01*
X140703904Y-101678619D01*
X140764380Y-101799571D01*
X140824857Y-101860047D01*
X140945809Y-101920523D01*
X141308666Y-101920523D01*
X141429619Y-101860047D01*
X141490095Y-101799571D01*
D13*
%TO.C,D3*%
X103458228Y-36117071D02*
X103458228Y-34974071D01*
X103186085Y-34974071D01*
X103022800Y-35028500D01*
X102913942Y-35137357D01*
X102859514Y-35246214D01*
X102805085Y-35463928D01*
X102805085Y-35627214D01*
X102859514Y-35844928D01*
X102913942Y-35953785D01*
X103022800Y-36062642D01*
X103186085Y-36117071D01*
X103458228Y-36117071D01*
X102424085Y-34974071D02*
X101716514Y-34974071D01*
X102097514Y-35409500D01*
X101934228Y-35409500D01*
X101825371Y-35463928D01*
X101770942Y-35518357D01*
X101716514Y-35627214D01*
X101716514Y-35899357D01*
X101770942Y-36008214D01*
X101825371Y-36062642D01*
X101934228Y-36117071D01*
X102260800Y-36117071D01*
X102369657Y-36062642D01*
X102424085Y-36008214D01*
D12*
%TO.C,R7*%
X102684523Y-45138333D02*
X102079761Y-44715000D01*
X102684523Y-44412619D02*
X101414523Y-44412619D01*
X101414523Y-44896428D01*
X101475000Y-45017380D01*
X101535476Y-45077857D01*
X101656428Y-45138333D01*
X101837857Y-45138333D01*
X101958809Y-45077857D01*
X102019285Y-45017380D01*
X102079761Y-44896428D01*
X102079761Y-44412619D01*
X101414523Y-45561666D02*
X101414523Y-46408333D01*
X102684523Y-45864047D01*
%TO.C,D7*%
X102283380Y-101666523D02*
X102283380Y-100396523D01*
X101981000Y-100396523D01*
X101799571Y-100457000D01*
X101678619Y-100577952D01*
X101618142Y-100698904D01*
X101557666Y-100940809D01*
X101557666Y-101122238D01*
X101618142Y-101364142D01*
X101678619Y-101485095D01*
X101799571Y-101606047D01*
X101981000Y-101666523D01*
X102283380Y-101666523D01*
X101134333Y-100396523D02*
X100287666Y-100396523D01*
X100831952Y-101666523D01*
%TO.C,C7*%
X104271666Y-63903571D02*
X104332142Y-63964047D01*
X104513571Y-64024523D01*
X104634523Y-64024523D01*
X104815952Y-63964047D01*
X104936904Y-63843095D01*
X104997380Y-63722142D01*
X105057857Y-63480238D01*
X105057857Y-63298809D01*
X104997380Y-63056904D01*
X104936904Y-62935952D01*
X104815952Y-62815000D01*
X104634523Y-62754523D01*
X104513571Y-62754523D01*
X104332142Y-62815000D01*
X104271666Y-62875476D01*
X103848333Y-62754523D02*
X103001666Y-62754523D01*
X103545952Y-64024523D01*
D10*
%TO.C,TP2*%
X134326380Y-81161095D02*
X134326380Y-81732523D01*
X135326380Y-81446809D02*
X134326380Y-81446809D01*
X135326380Y-82065857D02*
X134326380Y-82065857D01*
X134326380Y-82446809D01*
X134374000Y-82542047D01*
X134421619Y-82589666D01*
X134516857Y-82637285D01*
X134659714Y-82637285D01*
X134754952Y-82589666D01*
X134802571Y-82542047D01*
X134850190Y-82446809D01*
X134850190Y-82065857D01*
X134421619Y-83018238D02*
X134374000Y-83065857D01*
X134326380Y-83161095D01*
X134326380Y-83399190D01*
X134374000Y-83494428D01*
X134421619Y-83542047D01*
X134516857Y-83589666D01*
X134612095Y-83589666D01*
X134754952Y-83542047D01*
X135326380Y-82970619D01*
X135326380Y-83589666D01*
D12*
%TO.C,C1*%
X94321666Y-76903571D02*
X94382142Y-76964047D01*
X94563571Y-77024523D01*
X94684523Y-77024523D01*
X94865952Y-76964047D01*
X94986904Y-76843095D01*
X95047380Y-76722142D01*
X95107857Y-76480238D01*
X95107857Y-76298809D01*
X95047380Y-76056904D01*
X94986904Y-75935952D01*
X94865952Y-75815000D01*
X94684523Y-75754523D01*
X94563571Y-75754523D01*
X94382142Y-75815000D01*
X94321666Y-75875476D01*
X93112142Y-77024523D02*
X93837857Y-77024523D01*
X93475000Y-77024523D02*
X93475000Y-75754523D01*
X93595952Y-75935952D01*
X93716904Y-76056904D01*
X93837857Y-76117380D01*
%TO.C,C9*%
X124290666Y-81352571D02*
X124351142Y-81413047D01*
X124532571Y-81473523D01*
X124653523Y-81473523D01*
X124834952Y-81413047D01*
X124955904Y-81292095D01*
X125016380Y-81171142D01*
X125076857Y-80929238D01*
X125076857Y-80747809D01*
X125016380Y-80505904D01*
X124955904Y-80384952D01*
X124834952Y-80264000D01*
X124653523Y-80203523D01*
X124532571Y-80203523D01*
X124351142Y-80264000D01*
X124290666Y-80324476D01*
X123685904Y-81473523D02*
X123444000Y-81473523D01*
X123323047Y-81413047D01*
X123262571Y-81352571D01*
X123141619Y-81171142D01*
X123081142Y-80929238D01*
X123081142Y-80445428D01*
X123141619Y-80324476D01*
X123202095Y-80264000D01*
X123323047Y-80203523D01*
X123564952Y-80203523D01*
X123685904Y-80264000D01*
X123746380Y-80324476D01*
X123806857Y-80445428D01*
X123806857Y-80747809D01*
X123746380Y-80868761D01*
X123685904Y-80929238D01*
X123564952Y-80989714D01*
X123323047Y-80989714D01*
X123202095Y-80929238D01*
X123141619Y-80868761D01*
X123081142Y-80747809D01*
%TO.C,R1*%
X122221666Y-61424523D02*
X122645000Y-60819761D01*
X122947380Y-61424523D02*
X122947380Y-60154523D01*
X122463571Y-60154523D01*
X122342619Y-60215000D01*
X122282142Y-60275476D01*
X122221666Y-60396428D01*
X122221666Y-60577857D01*
X122282142Y-60698809D01*
X122342619Y-60759285D01*
X122463571Y-60819761D01*
X122947380Y-60819761D01*
X121012142Y-61424523D02*
X121737857Y-61424523D01*
X121375000Y-61424523D02*
X121375000Y-60154523D01*
X121495952Y-60335952D01*
X121616904Y-60456904D01*
X121737857Y-60517380D01*
D13*
%TO.C,D2*%
X112139057Y-61217071D02*
X112139057Y-60074071D01*
X111866914Y-60074071D01*
X111703628Y-60128500D01*
X111594771Y-60237357D01*
X111540342Y-60346214D01*
X111485914Y-60563928D01*
X111485914Y-60727214D01*
X111540342Y-60944928D01*
X111594771Y-61053785D01*
X111703628Y-61162642D01*
X111866914Y-61217071D01*
X112139057Y-61217071D01*
X111050485Y-60182928D02*
X110996057Y-60128500D01*
X110887200Y-60074071D01*
X110615057Y-60074071D01*
X110506200Y-60128500D01*
X110451771Y-60182928D01*
X110397342Y-60291785D01*
X110397342Y-60400642D01*
X110451771Y-60563928D01*
X111104914Y-61217071D01*
X110397342Y-61217071D01*
D12*
%TO.C,C2*%
X107231666Y-38753571D02*
X107292142Y-38814047D01*
X107473571Y-38874523D01*
X107594523Y-38874523D01*
X107775952Y-38814047D01*
X107896904Y-38693095D01*
X107957380Y-38572142D01*
X108017857Y-38330238D01*
X108017857Y-38148809D01*
X107957380Y-37906904D01*
X107896904Y-37785952D01*
X107775952Y-37665000D01*
X107594523Y-37604523D01*
X107473571Y-37604523D01*
X107292142Y-37665000D01*
X107231666Y-37725476D01*
X106747857Y-37725476D02*
X106687380Y-37665000D01*
X106566428Y-37604523D01*
X106264047Y-37604523D01*
X106143095Y-37665000D01*
X106082619Y-37725476D01*
X106022142Y-37846428D01*
X106022142Y-37967380D01*
X106082619Y-38148809D01*
X106808333Y-38874523D01*
X106022142Y-38874523D01*
D10*
%TO.C,TP1*%
X100034380Y-90940095D02*
X100034380Y-91511523D01*
X101034380Y-91225809D02*
X100034380Y-91225809D01*
X101034380Y-91844857D02*
X100034380Y-91844857D01*
X100034380Y-92225809D01*
X100082000Y-92321047D01*
X100129619Y-92368666D01*
X100224857Y-92416285D01*
X100367714Y-92416285D01*
X100462952Y-92368666D01*
X100510571Y-92321047D01*
X100558190Y-92225809D01*
X100558190Y-91844857D01*
X101034380Y-93368666D02*
X101034380Y-92797238D01*
X101034380Y-93082952D02*
X100034380Y-93082952D01*
X100177238Y-92987714D01*
X100272476Y-92892476D01*
X100320095Y-92797238D01*
D12*
%TO.C,R12*%
X122976428Y-90744523D02*
X123399761Y-90139761D01*
X123702142Y-90744523D02*
X123702142Y-89474523D01*
X123218333Y-89474523D01*
X123097380Y-89535000D01*
X123036904Y-89595476D01*
X122976428Y-89716428D01*
X122976428Y-89897857D01*
X123036904Y-90018809D01*
X123097380Y-90079285D01*
X123218333Y-90139761D01*
X123702142Y-90139761D01*
X121766904Y-90744523D02*
X122492619Y-90744523D01*
X122129761Y-90744523D02*
X122129761Y-89474523D01*
X122250714Y-89655952D01*
X122371666Y-89776904D01*
X122492619Y-89837380D01*
X121283095Y-89595476D02*
X121222619Y-89535000D01*
X121101666Y-89474523D01*
X120799285Y-89474523D01*
X120678333Y-89535000D01*
X120617857Y-89595476D01*
X120557380Y-89716428D01*
X120557380Y-89837380D01*
X120617857Y-90018809D01*
X121343571Y-90744523D01*
X120557380Y-90744523D01*
D10*
%TO.C,TP7*%
X100036380Y-87638095D02*
X100036380Y-88209523D01*
X101036380Y-87923809D02*
X100036380Y-87923809D01*
X101036380Y-88542857D02*
X100036380Y-88542857D01*
X100036380Y-88923809D01*
X100084000Y-89019047D01*
X100131619Y-89066666D01*
X100226857Y-89114285D01*
X100369714Y-89114285D01*
X100464952Y-89066666D01*
X100512571Y-89019047D01*
X100560190Y-88923809D01*
X100560190Y-88542857D01*
X100036380Y-89447619D02*
X100036380Y-90114285D01*
X101036380Y-89685714D01*
D13*
%TO.C,R15*%
X131906657Y-106816071D02*
X132287657Y-106271785D01*
X132559800Y-106816071D02*
X132559800Y-105673071D01*
X132124371Y-105673071D01*
X132015514Y-105727500D01*
X131961085Y-105781928D01*
X131906657Y-105890785D01*
X131906657Y-106054071D01*
X131961085Y-106162928D01*
X132015514Y-106217357D01*
X132124371Y-106271785D01*
X132559800Y-106271785D01*
X130818085Y-106816071D02*
X131471228Y-106816071D01*
X131144657Y-106816071D02*
X131144657Y-105673071D01*
X131253514Y-105836357D01*
X131362371Y-105945214D01*
X131471228Y-105999642D01*
X129783942Y-105673071D02*
X130328228Y-105673071D01*
X130382657Y-106217357D01*
X130328228Y-106162928D01*
X130219371Y-106108500D01*
X129947228Y-106108500D01*
X129838371Y-106162928D01*
X129783942Y-106217357D01*
X129729514Y-106326214D01*
X129729514Y-106598357D01*
X129783942Y-106707214D01*
X129838371Y-106761642D01*
X129947228Y-106816071D01*
X130219371Y-106816071D01*
X130328228Y-106761642D01*
X130382657Y-106707214D01*
D12*
%TO.C,R2*%
X108971666Y-61224523D02*
X109395000Y-60619761D01*
X109697380Y-61224523D02*
X109697380Y-59954523D01*
X109213571Y-59954523D01*
X109092619Y-60015000D01*
X109032142Y-60075476D01*
X108971666Y-60196428D01*
X108971666Y-60377857D01*
X109032142Y-60498809D01*
X109092619Y-60559285D01*
X109213571Y-60619761D01*
X109697380Y-60619761D01*
X108487857Y-60075476D02*
X108427380Y-60015000D01*
X108306428Y-59954523D01*
X108004047Y-59954523D01*
X107883095Y-60015000D01*
X107822619Y-60075476D01*
X107762142Y-60196428D01*
X107762142Y-60317380D01*
X107822619Y-60498809D01*
X108548333Y-61224523D01*
X107762142Y-61224523D01*
%TO.C,C11*%
X103432428Y-96973571D02*
X103492904Y-97034047D01*
X103674333Y-97094523D01*
X103795285Y-97094523D01*
X103976714Y-97034047D01*
X104097666Y-96913095D01*
X104158142Y-96792142D01*
X104218619Y-96550238D01*
X104218619Y-96368809D01*
X104158142Y-96126904D01*
X104097666Y-96005952D01*
X103976714Y-95885000D01*
X103795285Y-95824523D01*
X103674333Y-95824523D01*
X103492904Y-95885000D01*
X103432428Y-95945476D01*
X102222904Y-97094523D02*
X102948619Y-97094523D01*
X102585761Y-97094523D02*
X102585761Y-95824523D01*
X102706714Y-96005952D01*
X102827666Y-96126904D01*
X102948619Y-96187380D01*
X101013380Y-97094523D02*
X101739095Y-97094523D01*
X101376238Y-97094523D02*
X101376238Y-95824523D01*
X101497190Y-96005952D01*
X101618142Y-96126904D01*
X101739095Y-96187380D01*
%TO.C,C13*%
X110163428Y-95195571D02*
X110223904Y-95256047D01*
X110405333Y-95316523D01*
X110526285Y-95316523D01*
X110707714Y-95256047D01*
X110828666Y-95135095D01*
X110889142Y-95014142D01*
X110949619Y-94772238D01*
X110949619Y-94590809D01*
X110889142Y-94348904D01*
X110828666Y-94227952D01*
X110707714Y-94107000D01*
X110526285Y-94046523D01*
X110405333Y-94046523D01*
X110223904Y-94107000D01*
X110163428Y-94167476D01*
X108953904Y-95316523D02*
X109679619Y-95316523D01*
X109316761Y-95316523D02*
X109316761Y-94046523D01*
X109437714Y-94227952D01*
X109558666Y-94348904D01*
X109679619Y-94409380D01*
X108530571Y-94046523D02*
X107744380Y-94046523D01*
X108167714Y-94530333D01*
X107986285Y-94530333D01*
X107865333Y-94590809D01*
X107804857Y-94651285D01*
X107744380Y-94772238D01*
X107744380Y-95074619D01*
X107804857Y-95195571D01*
X107865333Y-95256047D01*
X107986285Y-95316523D01*
X108349142Y-95316523D01*
X108470095Y-95256047D01*
X108530571Y-95195571D01*
D14*
%TO.C,TP12*%
X111326000Y-109273000D02*
X114226000Y-109273000D01*
X114226000Y-109273000D02*
X114226000Y-106373000D01*
X111326000Y-106373000D02*
X111326000Y-109273000D01*
X114226000Y-106373000D02*
X111326000Y-106373000D01*
D15*
%TO.C,R13*%
X123560000Y-95500000D02*
X122960000Y-95500000D01*
%TO.C,R11*%
X106260000Y-98750000D02*
X106260000Y-99350000D01*
%TO.C,IC4*%
X95842400Y-50379400D02*
X95842400Y-56879400D01*
X99342400Y-50379400D02*
X95842400Y-50379400D01*
X99342400Y-56879400D02*
X99342400Y-50379400D01*
X93567400Y-56754400D02*
X95317400Y-56754400D01*
X95842400Y-56879400D02*
X99342400Y-56879400D01*
D13*
%TO.C,R3*%
X99781000Y-70132000D02*
X99781000Y-68772000D01*
X101939000Y-66870000D02*
X101939000Y-65510000D01*
X101939000Y-70132000D02*
X99781000Y-70132000D01*
X101939000Y-68772000D02*
X101939000Y-70132000D01*
X99781000Y-65510000D02*
X99781000Y-66870000D01*
X101939000Y-65510000D02*
X99781000Y-65510000D01*
D15*
%TO.C,C4*%
X99084400Y-39340400D02*
X99084400Y-40740400D01*
%TO.C,C8*%
X100260000Y-58796800D02*
X100260000Y-60196800D01*
%TO.C,D6*%
X107966000Y-105867000D02*
X107508000Y-106325000D01*
X107381000Y-106934000D02*
X107381000Y-105817000D01*
X107483000Y-106350000D02*
X107966000Y-106833000D01*
D12*
X106710000Y-107150000D02*
X108510000Y-107150000D01*
D15*
X107000000Y-106350000D02*
X108296000Y-106350000D01*
D12*
X106732000Y-105550000D02*
X108488000Y-105550000D01*
D15*
X107966000Y-106833000D02*
X107966000Y-105867000D01*
D14*
%TO.C,TP3*%
X173408000Y-112723000D02*
X170508000Y-112723000D01*
X173408000Y-115623000D02*
X173408000Y-112723000D01*
X170508000Y-112723000D02*
X170508000Y-115623000D01*
X170508000Y-115623000D02*
X173408000Y-115623000D01*
D15*
%TO.C,IC3*%
X107435000Y-48005000D02*
X108960000Y-48005000D01*
D12*
%TO.C,U4*%
X97598000Y-101722200D02*
X97598000Y-101639200D01*
X92076000Y-102908200D02*
X92046000Y-96818200D01*
X95615000Y-103643200D02*
X97576000Y-103608200D01*
X95615000Y-103643200D02*
X95823000Y-103639200D01*
X97584000Y-98177200D02*
X97584000Y-98109200D01*
X97576000Y-96108200D02*
X95603000Y-96108200D01*
X95616000Y-103641200D02*
X95790000Y-103640200D01*
X92076000Y-96108200D02*
X92987000Y-96108200D01*
X92576000Y-96808200D02*
X92576000Y-96508200D01*
X97606000Y-103668200D02*
X97603000Y-102939200D01*
X92046000Y-96818200D02*
X92576000Y-96808200D01*
X92576000Y-102908200D02*
X92076000Y-102908200D01*
X92576000Y-102908200D02*
X92576000Y-96808200D01*
X92576000Y-102908200D02*
X92556000Y-103358200D01*
X92556000Y-103358200D02*
X92036000Y-103658200D01*
X97579000Y-96852200D02*
X97576000Y-96108200D01*
X92036000Y-103658200D02*
X92976000Y-103653200D01*
X92576000Y-96508200D02*
X92076000Y-96108200D01*
D15*
%TO.C,D1*%
X118658000Y-63623800D02*
X116358000Y-63623800D01*
X116358000Y-61973800D02*
X118658000Y-61973800D01*
X116358000Y-63623800D02*
X116358000Y-61973800D01*
D14*
%TO.C,TP4*%
X158316000Y-116512000D02*
X161216000Y-116512000D01*
X161216000Y-116512000D02*
X161216000Y-113612000D01*
X161216000Y-113612000D02*
X158316000Y-113612000D01*
X158316000Y-113612000D02*
X158316000Y-116512000D01*
D13*
%TO.C,R14*%
X135751000Y-104547000D02*
X134792000Y-104547000D01*
X134792000Y-103225000D02*
X135751000Y-103225000D01*
X135751000Y-103225000D02*
X135751000Y-104547000D01*
X133940000Y-103225000D02*
X132981000Y-103225000D01*
X132981000Y-103225000D02*
X132981000Y-104547000D01*
X132981000Y-104547000D02*
X133940000Y-104547000D01*
D14*
%TO.C,TP13*%
X137615000Y-88953000D02*
X140515000Y-88953000D01*
X140515000Y-88953000D02*
X140515000Y-86053000D01*
X137615000Y-86053000D02*
X137615000Y-88953000D01*
X140515000Y-86053000D02*
X137615000Y-86053000D01*
D15*
%TO.C,D4*%
X105920000Y-92100000D02*
X104624000Y-92100000D01*
X105437000Y-92100000D02*
X104954000Y-91617000D01*
D12*
X106188000Y-92900000D02*
X104432000Y-92900000D01*
D15*
X104954000Y-91617000D02*
X104954000Y-92583000D01*
D12*
X106210000Y-91300000D02*
X104410000Y-91300000D01*
D15*
X104954000Y-92583000D02*
X105412000Y-92125000D01*
X105539000Y-91516000D02*
X105539000Y-92633000D01*
%TO.C,C3*%
X92560000Y-60050000D02*
X93960000Y-60050000D01*
%TO.C,D8*%
X121485000Y-94600000D02*
X121485000Y-96900000D01*
X121485000Y-96900000D02*
X119835000Y-96900000D01*
X119835000Y-96900000D02*
X119835000Y-94600000D01*
%TO.C,Q1*%
X93801000Y-37148000D02*
X93651000Y-37148000D01*
X93801000Y-40068000D02*
X93801000Y-37148000D01*
X93651000Y-40068000D02*
X93801000Y-40068000D01*
X95401000Y-37103000D02*
X94151000Y-37103000D01*
X93651000Y-37148000D02*
X93651000Y-40068000D01*
D14*
%TO.C,TP9*%
X121592000Y-112977000D02*
X118692000Y-112977000D01*
X121592000Y-115877000D02*
X121592000Y-112977000D01*
X118692000Y-112977000D02*
X118692000Y-115877000D01*
X118692000Y-115877000D02*
X121592000Y-115877000D01*
D12*
%TO.C,D5*%
X109938000Y-103600000D02*
X108182000Y-103600000D01*
X109960000Y-102000000D02*
X108160000Y-102000000D01*
D15*
X109187000Y-102800000D02*
X108704000Y-102317000D01*
X109670000Y-102800000D02*
X108374000Y-102800000D01*
X108704000Y-103283000D02*
X109162000Y-102825000D01*
X109289000Y-102216000D02*
X109289000Y-103333000D01*
X108704000Y-102317000D02*
X108704000Y-103283000D01*
D14*
%TO.C,TP8*%
X131138000Y-112977000D02*
X131138000Y-115877000D01*
X131138000Y-115877000D02*
X134038000Y-115877000D01*
X134038000Y-115877000D02*
X134038000Y-112977000D01*
X134038000Y-112977000D02*
X131138000Y-112977000D01*
%TO.C,TP11*%
X116533000Y-106246000D02*
X116533000Y-109146000D01*
X119433000Y-109146000D02*
X119433000Y-106246000D01*
X116533000Y-109146000D02*
X119433000Y-109146000D01*
X119433000Y-106246000D02*
X116533000Y-106246000D01*
D15*
%TO.C,R5*%
X95122000Y-60000000D02*
X96498000Y-60000000D01*
D16*
%TO.C,U2*%
X108091000Y-81150000D02*
G75*
G03*
X108091000Y-81150000I-125000J0D01*
G01*
%TO.C,IC5*%
X120243200Y-104368000D02*
G75*
G03*
X120243200Y-104368000I-125000J0D01*
G01*
D14*
%TO.C,TP10*%
X182700000Y-63426000D02*
X185600000Y-63426000D01*
X185600000Y-63426000D02*
X185600000Y-60526000D01*
X182700000Y-60526000D02*
X182700000Y-63426000D01*
X185600000Y-60526000D02*
X182700000Y-60526000D01*
%TO.C,TP5*%
X128958000Y-65458000D02*
X128958000Y-62558000D01*
X126058000Y-62558000D02*
X126058000Y-65458000D01*
X128958000Y-62558000D02*
X126058000Y-62558000D01*
X126058000Y-65458000D02*
X128958000Y-65458000D01*
D15*
%TO.C,L1*%
X92360000Y-80950000D02*
X96760000Y-80950000D01*
X96760000Y-85150000D02*
X92360000Y-85150000D01*
D13*
%TO.C,R4*%
X101939000Y-71068000D02*
X99781000Y-71068000D01*
X101939000Y-74330000D02*
X101939000Y-75690000D01*
X99781000Y-71068000D02*
X99781000Y-72428000D01*
X101939000Y-75690000D02*
X99781000Y-75690000D01*
X101939000Y-72428000D02*
X101939000Y-71068000D01*
X99781000Y-75690000D02*
X99781000Y-74330000D01*
D15*
%TO.C,IC2*%
X97115000Y-75275000D02*
X97115000Y-73750000D01*
D13*
%TO.C,R6*%
X92099000Y-63665000D02*
X92099000Y-64624000D01*
X92099000Y-66435000D02*
X92099000Y-65476000D01*
X93421000Y-63665000D02*
X92099000Y-63665000D01*
X93421000Y-65476000D02*
X93421000Y-66435000D01*
X93421000Y-66435000D02*
X92099000Y-66435000D01*
X93421000Y-64624000D02*
X93421000Y-63665000D01*
D15*
%TO.C,IC1*%
X99390000Y-48436000D02*
X99390000Y-43512000D01*
X99390000Y-43512000D02*
X96190000Y-43512000D01*
X101265000Y-43394000D02*
X99740000Y-43394000D01*
X96190000Y-48436000D02*
X99390000Y-48436000D01*
X96190000Y-43512000D02*
X96190000Y-48436000D01*
D14*
%TO.C,TP6*%
X113866000Y-86667000D02*
X116766000Y-86667000D01*
X116766000Y-86667000D02*
X116766000Y-83767000D01*
X113866000Y-83767000D02*
X113866000Y-86667000D01*
X116766000Y-83767000D02*
X113866000Y-83767000D01*
D12*
%TO.C,U1*%
X123646000Y-84352000D02*
X119686000Y-84352000D01*
X119684999Y-84351000D02*
G75*
G03*
X123646764Y-84350687I1981001J-1498000D01*
G01*
D15*
%TO.C,U3*%
X145207000Y-94956000D02*
X143682000Y-94956000D01*
X140132000Y-99998000D02*
X143332000Y-99998000D01*
X140132000Y-95074000D02*
X140132000Y-99998000D01*
X143332000Y-99998000D02*
X143332000Y-95074000D01*
X143332000Y-95074000D02*
X140132000Y-95074000D01*
D12*
%TO.C,D3*%
X98846000Y-34650000D02*
X96154000Y-34650000D01*
X95857000Y-36350000D02*
X95856000Y-36349000D01*
X97220000Y-35500000D02*
X96890000Y-35500000D01*
X97246000Y-36008000D02*
X97246000Y-34992000D01*
X97906000Y-35500000D02*
X98220000Y-35500000D01*
X96154000Y-36350000D02*
X95857000Y-36350000D01*
X97322000Y-35500000D02*
X97906000Y-35906000D01*
X98846000Y-36350000D02*
X98846000Y-36206000D01*
X97906000Y-35906000D02*
X97906000Y-35094000D01*
X96154000Y-34650000D02*
X95862000Y-34650000D01*
X96154000Y-36350000D02*
X98846000Y-36350000D01*
X98846000Y-34794000D02*
X98846000Y-34650000D01*
X97906000Y-35094000D02*
X97322000Y-35500000D01*
X95862000Y-34650000D02*
X95861000Y-34651000D01*
G36*
X97906000Y-35906000D02*
G01*
X97322000Y-35500000D01*
X97906000Y-35094000D01*
X97906000Y-35906000D01*
G37*
G36*
X95998000Y-36477000D02*
G01*
X95694000Y-36477000D01*
X95694000Y-36107000D01*
X95998000Y-36107000D01*
X95998000Y-36477000D01*
G37*
G36*
X95998000Y-34893000D02*
G01*
X95694000Y-34893000D01*
X95694000Y-34523000D01*
X95998000Y-34523000D01*
X95998000Y-34893000D01*
G37*
D15*
%TO.C,R7*%
X104960000Y-45300000D02*
X104360000Y-45300000D01*
%TO.C,D7*%
X99460000Y-97975000D02*
X101760000Y-97975000D01*
X101760000Y-99625000D02*
X99460000Y-99625000D01*
X99460000Y-99625000D02*
X99460000Y-97975000D01*
%TO.C,C7*%
X100260000Y-62911600D02*
X100260000Y-64311600D01*
D14*
%TO.C,TP2*%
X133784000Y-80973000D02*
X130884000Y-80973000D01*
X130884000Y-83873000D02*
X133784000Y-83873000D01*
X133784000Y-83873000D02*
X133784000Y-80973000D01*
X130884000Y-80973000D02*
X130884000Y-83873000D01*
D15*
%TO.C,C1*%
X93870000Y-79000000D02*
X93870000Y-77600000D01*
%TO.C,C9*%
X121253000Y-82031400D02*
X121253000Y-82631400D01*
%TO.C,R1*%
X121539400Y-62498800D02*
X121539400Y-63098800D01*
D12*
%TO.C,D2*%
X112205200Y-61823400D02*
X110725200Y-61813400D01*
X114455200Y-61823400D02*
X114805200Y-62173400D01*
X113205200Y-63723400D02*
X114455200Y-63723400D01*
X114805200Y-62173400D02*
X114805200Y-63373400D01*
X112405200Y-62273400D02*
X112405200Y-63273400D01*
X113205200Y-61823400D02*
X114455200Y-61823400D01*
X114455200Y-61823400D02*
X114455200Y-61823400D01*
X114455200Y-63723400D02*
X114805200Y-63373400D01*
X112065200Y-63713400D02*
X110725200Y-63713400D01*
X110725200Y-61813400D02*
X110725200Y-63713400D01*
X112405200Y-62778400D02*
X112905200Y-62778400D01*
X114455200Y-63723400D02*
X114455200Y-63723400D01*
D15*
%TO.C,C2*%
X107020000Y-40000000D02*
X107020000Y-41400000D01*
%TO.C,G\u002A\u002A\u002A*%
G36*
X156236271Y-103524559D02*
G01*
X156223087Y-103915673D01*
X156200106Y-104106710D01*
X156162990Y-104153275D01*
X156005064Y-104210651D01*
X155696977Y-104242859D01*
X155203005Y-104252743D01*
X154487424Y-104243150D01*
X152840955Y-104207045D01*
X152840955Y-102530903D01*
X154001361Y-102530903D01*
X154002418Y-102681247D01*
X154037641Y-102936910D01*
X154175452Y-103045283D01*
X154485899Y-103086718D01*
X154662559Y-103094121D01*
X154955297Y-103025814D01*
X155081147Y-102801803D01*
X155074681Y-102380627D01*
X155069587Y-102338673D01*
X155009394Y-102124037D01*
X154851862Y-102033657D01*
X154517097Y-102015167D01*
X154001361Y-102015167D01*
X154001361Y-102530903D01*
X152840955Y-102530903D01*
X152840955Y-100854761D01*
X156193239Y-100854761D01*
X156229778Y-102394463D01*
X156235843Y-102801803D01*
X156238660Y-102991008D01*
X156236271Y-103524559D01*
G37*
G36*
X169022173Y-108913137D02*
G01*
X169022173Y-107752731D01*
X170182579Y-107752731D01*
X173663797Y-107752731D01*
X173663797Y-104271512D01*
X170182579Y-104271512D01*
X170182579Y-107752731D01*
X169022173Y-107752731D01*
X169022173Y-103111106D01*
X174824203Y-103111106D01*
X174824203Y-108913137D01*
X169022173Y-108913137D01*
G37*
G36*
X148134863Y-88025827D02*
G01*
X148134863Y-86865421D01*
X149295269Y-86865421D01*
X152776488Y-86865421D01*
X152776488Y-83384203D01*
X149295269Y-83384203D01*
X149295269Y-86865421D01*
X148134863Y-86865421D01*
X148134863Y-82223797D01*
X153936894Y-82223797D01*
X153936894Y-88025827D01*
X148134863Y-88025827D01*
G37*
G36*
X146458721Y-110589279D02*
G01*
X146458721Y-110073543D01*
X167861767Y-110073543D01*
X175984609Y-110073543D01*
X175984609Y-101950700D01*
X167861767Y-101950700D01*
X167861767Y-110073543D01*
X146458721Y-110073543D01*
X146458721Y-110009076D01*
X147038924Y-110009076D01*
X148685394Y-110045181D01*
X148997601Y-110051684D01*
X149625176Y-110056353D01*
X150047358Y-110032024D01*
X150301692Y-109963614D01*
X150425723Y-109836040D01*
X150456996Y-109634218D01*
X150433057Y-109343064D01*
X150373567Y-109103450D01*
X150213898Y-108978936D01*
X149875472Y-108913137D01*
X149756564Y-108897421D01*
X149481693Y-108826604D01*
X149355896Y-108666409D01*
X149295269Y-108332934D01*
X149274216Y-108174384D01*
X149205267Y-107926748D01*
X149046559Y-107832286D01*
X148715066Y-107817198D01*
X148556363Y-107818432D01*
X148303977Y-107856426D01*
X148191152Y-108003327D01*
X148134863Y-108332934D01*
X148119148Y-108451842D01*
X148048330Y-108726713D01*
X147888136Y-108852510D01*
X147554660Y-108913137D01*
X147396111Y-108934190D01*
X147148475Y-109003139D01*
X147054012Y-109161847D01*
X147038924Y-109493340D01*
X147038924Y-110009076D01*
X146458721Y-110009076D01*
X146458721Y-107688264D01*
X147038924Y-107688264D01*
X147523463Y-107728342D01*
X147784138Y-107737505D01*
X147994528Y-107669088D01*
X148102637Y-107456774D01*
X148143168Y-107172528D01*
X149359736Y-107172528D01*
X149360794Y-107322872D01*
X149396017Y-107578535D01*
X149533828Y-107686907D01*
X149844275Y-107728342D01*
X150020935Y-107735746D01*
X150313673Y-107667438D01*
X150439523Y-107443427D01*
X150433057Y-107022251D01*
X150427963Y-106980297D01*
X150367770Y-106765662D01*
X150210238Y-106675281D01*
X149875472Y-106656792D01*
X149359736Y-106656792D01*
X149359736Y-107172528D01*
X148143168Y-107172528D01*
X148161553Y-107043594D01*
X148163727Y-107022097D01*
X148221480Y-106778023D01*
X148378908Y-106656250D01*
X148715066Y-106592325D01*
X148873616Y-106571271D01*
X149121252Y-106502323D01*
X149215714Y-106343614D01*
X149230802Y-106012122D01*
X149230802Y-105496385D01*
X147038924Y-105496385D01*
X147038924Y-107688264D01*
X146458721Y-107688264D01*
X146458721Y-105367451D01*
X150520142Y-105367451D01*
X151035878Y-105431918D01*
X151551615Y-105496385D01*
X151551615Y-107688264D01*
X151035878Y-107752731D01*
X150877329Y-107773784D01*
X150629693Y-107842733D01*
X150535230Y-108001441D01*
X150520142Y-108332934D01*
X150520142Y-108848670D01*
X152776488Y-108913137D01*
X155032833Y-108977604D01*
X155097300Y-109493340D01*
X155116007Y-109634218D01*
X155118353Y-109651889D01*
X155187302Y-109899525D01*
X155346011Y-109993988D01*
X155677503Y-110009076D01*
X156193239Y-110009076D01*
X156193239Y-109493340D01*
X163284609Y-109493340D01*
X163285667Y-109643684D01*
X163320890Y-109899347D01*
X163458701Y-110007720D01*
X163769148Y-110049154D01*
X163945808Y-110056558D01*
X164238546Y-109988251D01*
X164364396Y-109764240D01*
X164357930Y-109343064D01*
X164352836Y-109301110D01*
X164292643Y-109086474D01*
X164135111Y-108996094D01*
X163800345Y-108977604D01*
X163284609Y-108977604D01*
X163284609Y-109493340D01*
X156193239Y-109493340D01*
X156193239Y-106656792D01*
X154001361Y-106656792D01*
X153936894Y-107172528D01*
X153915840Y-107331077D01*
X153846892Y-107578713D01*
X153688183Y-107673176D01*
X153356691Y-107688264D01*
X152840955Y-107688264D01*
X152840955Y-105496385D01*
X156193239Y-105496385D01*
X156257706Y-106012122D01*
X156273422Y-106131030D01*
X156344239Y-106405901D01*
X156504433Y-106531698D01*
X156837909Y-106592325D01*
X157353645Y-106656792D01*
X157482579Y-108848670D01*
X161995269Y-108848670D01*
X162059736Y-107172528D01*
X162124203Y-105496385D01*
X164316082Y-105496385D01*
X164316082Y-106012122D01*
X164314847Y-106170825D01*
X164276853Y-106423211D01*
X164129952Y-106536036D01*
X163800345Y-106592325D01*
X163641796Y-106613378D01*
X163394160Y-106682327D01*
X163299697Y-106841035D01*
X163284609Y-107172528D01*
X163284609Y-107688264D01*
X164380549Y-107752731D01*
X165476488Y-107817198D01*
X165591020Y-109764240D01*
X165605422Y-110009076D01*
X166089960Y-110049154D01*
X166459708Y-110036793D01*
X166640634Y-109916889D01*
X166646301Y-109891383D01*
X166663035Y-109649759D01*
X166674400Y-109202885D01*
X166679950Y-108591711D01*
X166679242Y-107857186D01*
X166671831Y-107040262D01*
X166636894Y-104335979D01*
X164960752Y-104271512D01*
X163284609Y-104207045D01*
X163216350Y-103046639D01*
X165605422Y-103046639D01*
X166089960Y-103086718D01*
X166157187Y-103091822D01*
X166420154Y-103087014D01*
X166583377Y-103000172D01*
X166666916Y-102787521D01*
X166690831Y-102405288D01*
X166675183Y-101809700D01*
X166636894Y-100854761D01*
X165605422Y-100854761D01*
X165605422Y-103046639D01*
X163216350Y-103046639D01*
X163155675Y-102015167D01*
X158642985Y-102015167D01*
X158642985Y-105367451D01*
X159674457Y-105367451D01*
X159803391Y-103175573D01*
X161995269Y-103175573D01*
X161995269Y-103691309D01*
X161994035Y-103850013D01*
X161956041Y-104102398D01*
X161809140Y-104215224D01*
X161479533Y-104271512D01*
X160963797Y-104335979D01*
X160899330Y-105431918D01*
X160834863Y-106527858D01*
X158642985Y-106527858D01*
X158578518Y-106012122D01*
X158562802Y-105893213D01*
X158491985Y-105618342D01*
X158331791Y-105492545D01*
X157998315Y-105431918D01*
X157482579Y-105367451D01*
X157482579Y-102015167D01*
X157998315Y-101950700D01*
X158117224Y-101934985D01*
X158392095Y-101864167D01*
X158517891Y-101703973D01*
X158578518Y-101370497D01*
X158642985Y-100854761D01*
X161995269Y-100725827D01*
X161995269Y-98533949D01*
X161479533Y-98533949D01*
X161320830Y-98535184D01*
X161068444Y-98573178D01*
X160955619Y-98720079D01*
X160899330Y-99049685D01*
X160834863Y-99565421D01*
X157482579Y-99565421D01*
X157418112Y-99049685D01*
X157397059Y-98891136D01*
X157328110Y-98643499D01*
X157169401Y-98549037D01*
X156837909Y-98533949D01*
X156679205Y-98535184D01*
X156426820Y-98573178D01*
X156313995Y-98720079D01*
X156257706Y-99049685D01*
X156193239Y-99565421D01*
X153356691Y-99629888D01*
X150520142Y-99694355D01*
X150520142Y-100210091D01*
X150521377Y-100368795D01*
X150559371Y-100621180D01*
X150706272Y-100734005D01*
X151035878Y-100790294D01*
X151551615Y-100854761D01*
X151551615Y-103046639D01*
X151035878Y-103111106D01*
X150520142Y-103175573D01*
X150520142Y-105367451D01*
X146458721Y-105367451D01*
X146458721Y-103046639D01*
X147038924Y-103046639D01*
X148685394Y-103082744D01*
X148997601Y-103089248D01*
X149625176Y-103093916D01*
X150047358Y-103069587D01*
X150301692Y-103001178D01*
X150425723Y-102873603D01*
X150456996Y-102671781D01*
X150433057Y-102380627D01*
X150432414Y-102375018D01*
X150402481Y-102199577D01*
X150326700Y-102089414D01*
X150152172Y-102024540D01*
X149825995Y-101984965D01*
X149295269Y-101950700D01*
X148199330Y-101886233D01*
X148199330Y-99694355D01*
X148715066Y-99629888D01*
X148833975Y-99614172D01*
X149108846Y-99543355D01*
X149234642Y-99383161D01*
X149295269Y-99049685D01*
X149310985Y-98930776D01*
X149381802Y-98655905D01*
X149541997Y-98530109D01*
X149875472Y-98469482D01*
X150034022Y-98448429D01*
X150281658Y-98379480D01*
X150376121Y-98220771D01*
X150391208Y-97889279D01*
X150391208Y-97373543D01*
X147038924Y-97373543D01*
X147038924Y-103046639D01*
X146458721Y-103046639D01*
X146458721Y-96084203D01*
X147038924Y-96084203D01*
X148104663Y-96121683D01*
X148118551Y-96122169D01*
X148687811Y-96130653D01*
X149044424Y-96090654D01*
X149231817Y-95976015D01*
X149293417Y-95760579D01*
X149281765Y-95568467D01*
X150520142Y-95568467D01*
X150521377Y-95727170D01*
X150526406Y-95760579D01*
X150559371Y-95979556D01*
X150706272Y-96092381D01*
X151035878Y-96148670D01*
X151551615Y-96213137D01*
X151680549Y-98405015D01*
X152165087Y-98445093D01*
X152425762Y-98454256D01*
X152577184Y-98405015D01*
X154001361Y-98405015D01*
X155067099Y-98442496D01*
X155080987Y-98442981D01*
X155650247Y-98451466D01*
X156006861Y-98411466D01*
X156017406Y-98405015D01*
X158642985Y-98405015D01*
X159708724Y-98442496D01*
X159722612Y-98442981D01*
X160291872Y-98451466D01*
X160648485Y-98411466D01*
X160835878Y-98296827D01*
X160897478Y-98081391D01*
X160876712Y-97739003D01*
X160834863Y-97373543D01*
X158642985Y-97373543D01*
X158642985Y-98405015D01*
X156017406Y-98405015D01*
X156194254Y-98296827D01*
X156255854Y-98081391D01*
X156235087Y-97739003D01*
X156193239Y-97373543D01*
X154001361Y-97373543D01*
X154001361Y-98405015D01*
X152577184Y-98405015D01*
X152636152Y-98385839D01*
X152744261Y-98173526D01*
X152803178Y-97760345D01*
X152805352Y-97738849D01*
X152863104Y-97494775D01*
X153020533Y-97373001D01*
X153356691Y-97309076D01*
X153475599Y-97293360D01*
X153664822Y-97244609D01*
X156322173Y-97244609D01*
X157387912Y-97282090D01*
X157743518Y-97290990D01*
X158175874Y-97280298D01*
X158420901Y-97232136D01*
X158522140Y-97141089D01*
X158525654Y-97130510D01*
X158552652Y-96899089D01*
X158556730Y-96728873D01*
X160963797Y-96728873D01*
X160964854Y-96879217D01*
X161000078Y-97134880D01*
X161137889Y-97243253D01*
X161448336Y-97284687D01*
X161624996Y-97292091D01*
X161917734Y-97223784D01*
X162043584Y-96999773D01*
X162037118Y-96578597D01*
X162032024Y-96536642D01*
X161971831Y-96322007D01*
X161814299Y-96231627D01*
X161479533Y-96213137D01*
X160963797Y-96213137D01*
X160963797Y-96728873D01*
X158556730Y-96728873D01*
X158562258Y-96498134D01*
X158552340Y-96007669D01*
X158534730Y-95568467D01*
X159803391Y-95568467D01*
X159804448Y-95718811D01*
X159839672Y-95974474D01*
X159977483Y-96082847D01*
X160287930Y-96124281D01*
X160464590Y-96131685D01*
X160757328Y-96063378D01*
X160883178Y-95839366D01*
X160876712Y-95418191D01*
X160871618Y-95376236D01*
X160811425Y-95161601D01*
X160653893Y-95071221D01*
X160319127Y-95052731D01*
X159803391Y-95052731D01*
X159803391Y-95568467D01*
X158534730Y-95568467D01*
X158514051Y-95052731D01*
X157998315Y-95052731D01*
X157839611Y-95053965D01*
X157587226Y-95091959D01*
X157474401Y-95238860D01*
X157418112Y-95568467D01*
X157402396Y-95687375D01*
X157331579Y-95962246D01*
X157171385Y-96088043D01*
X156837909Y-96148670D01*
X156679360Y-96169723D01*
X156431723Y-96238672D01*
X156337261Y-96397380D01*
X156322173Y-96728873D01*
X156322173Y-97244609D01*
X153664822Y-97244609D01*
X153750470Y-97222543D01*
X153876267Y-97062349D01*
X153936894Y-96728873D01*
X153952609Y-96609964D01*
X154023427Y-96335093D01*
X154183621Y-96209297D01*
X154517097Y-96148670D01*
X154675646Y-96127616D01*
X154923282Y-96058668D01*
X155017745Y-95899959D01*
X155032833Y-95568467D01*
X155032833Y-95052731D01*
X150520142Y-95052731D01*
X150520142Y-95568467D01*
X149281765Y-95568467D01*
X149272651Y-95418191D01*
X149230802Y-95052731D01*
X147038924Y-95052731D01*
X147038924Y-96084203D01*
X146458721Y-96084203D01*
X146458721Y-93247655D01*
X149359736Y-93247655D01*
X149360794Y-93397999D01*
X149396017Y-93653662D01*
X149533828Y-93762034D01*
X149844275Y-93803469D01*
X150020935Y-93810872D01*
X150224421Y-93763391D01*
X151680549Y-93763391D01*
X152165087Y-93803469D01*
X152425762Y-93812632D01*
X152577184Y-93763391D01*
X154001361Y-93763391D01*
X156193239Y-93892325D01*
X156257706Y-94408061D01*
X156278759Y-94566610D01*
X156347708Y-94814246D01*
X156506417Y-94908709D01*
X156837909Y-94923797D01*
X157353645Y-94923797D01*
X157353645Y-92731918D01*
X156837909Y-92667451D01*
X156679360Y-92646398D01*
X156431723Y-92577449D01*
X156337261Y-92418741D01*
X156322173Y-92087248D01*
X156322173Y-91571512D01*
X156837909Y-91571512D01*
X156996613Y-91572747D01*
X157248998Y-91610741D01*
X157361823Y-91757642D01*
X157418112Y-92087248D01*
X157433828Y-92206157D01*
X157504645Y-92481028D01*
X157664839Y-92606824D01*
X157998315Y-92667451D01*
X158514051Y-92731918D01*
X158578518Y-93827858D01*
X158642985Y-94923797D01*
X159158721Y-94923797D01*
X159317425Y-94922562D01*
X159569810Y-94884568D01*
X159682636Y-94737667D01*
X159738924Y-94408061D01*
X159803391Y-93892325D01*
X161995269Y-93892325D01*
X162109801Y-95839366D01*
X162124203Y-96084203D01*
X162639939Y-96084203D01*
X162798643Y-96082968D01*
X163051028Y-96044974D01*
X163163854Y-95898073D01*
X163220142Y-95568467D01*
X163241196Y-95409917D01*
X163310144Y-95162281D01*
X163468853Y-95067819D01*
X163800345Y-95052731D01*
X164316082Y-95052731D01*
X164316082Y-95568467D01*
X164314847Y-95727170D01*
X164276853Y-95979556D01*
X164129952Y-96092381D01*
X163800345Y-96148670D01*
X163284609Y-96213137D01*
X163284609Y-101886233D01*
X163769148Y-101926312D01*
X164140125Y-101913479D01*
X164315993Y-101797378D01*
X164331342Y-101700163D01*
X164354711Y-101371465D01*
X164377195Y-100863957D01*
X164396831Y-100224750D01*
X164411657Y-99500954D01*
X164445016Y-97373543D01*
X164960752Y-97309076D01*
X165079660Y-97293360D01*
X165354531Y-97222543D01*
X165480328Y-97062349D01*
X165540955Y-96728873D01*
X165605422Y-96213137D01*
X168957706Y-96213137D01*
X168957706Y-97244609D01*
X166765828Y-97373543D01*
X166765828Y-98405015D01*
X168957706Y-98533949D01*
X168957706Y-99049685D01*
X168956471Y-99208389D01*
X168918477Y-99460774D01*
X168771576Y-99573599D01*
X168441970Y-99629888D01*
X168283421Y-99650941D01*
X168035784Y-99719890D01*
X167941322Y-99878599D01*
X167926234Y-100210091D01*
X167926234Y-100725827D01*
X170118112Y-100725827D01*
X170148449Y-100210091D01*
X171407452Y-100210091D01*
X171408509Y-100360435D01*
X171443732Y-100616098D01*
X171581544Y-100724471D01*
X171891991Y-100765906D01*
X172068650Y-100773309D01*
X172272141Y-100725827D01*
X174888670Y-100725827D01*
X175373209Y-100765906D01*
X175742957Y-100753544D01*
X175923882Y-100633640D01*
X175929549Y-100608135D01*
X175946284Y-100366510D01*
X175957648Y-99919636D01*
X175963199Y-99308462D01*
X175962490Y-98573938D01*
X175955080Y-97757013D01*
X175920142Y-95052731D01*
X174888670Y-95052731D01*
X174888670Y-100725827D01*
X172272141Y-100725827D01*
X172361389Y-100705002D01*
X172487239Y-100480991D01*
X172480773Y-100059815D01*
X172475679Y-100017861D01*
X172415486Y-99803225D01*
X172257954Y-99712845D01*
X171923188Y-99694355D01*
X171407452Y-99694355D01*
X171407452Y-100210091D01*
X170148449Y-100210091D01*
X170247046Y-98533949D01*
X170762782Y-98469482D01*
X170921331Y-98448429D01*
X171077257Y-98405015D01*
X172567858Y-98405015D01*
X173052397Y-98445093D01*
X173119624Y-98450198D01*
X173382591Y-98445390D01*
X173545814Y-98358547D01*
X173629352Y-98145896D01*
X173653268Y-97763664D01*
X173637619Y-97168076D01*
X173599330Y-96213137D01*
X172567858Y-96213137D01*
X172567858Y-98405015D01*
X171077257Y-98405015D01*
X171168968Y-98379480D01*
X171263430Y-98220771D01*
X171278518Y-97889279D01*
X171277283Y-97730575D01*
X171239289Y-97478190D01*
X171092388Y-97365364D01*
X170762782Y-97309076D01*
X170247046Y-97244609D01*
X170118112Y-95052731D01*
X167926234Y-94923797D01*
X167797300Y-93892325D01*
X165605422Y-93763391D01*
X167926234Y-93763391D01*
X171278518Y-93892325D01*
X171407452Y-96084203D01*
X171891991Y-96124281D01*
X172152666Y-96133444D01*
X172363056Y-96065027D01*
X172471165Y-95852714D01*
X172530081Y-95439533D01*
X172532255Y-95418037D01*
X172590008Y-95173963D01*
X172747436Y-95052189D01*
X173083594Y-94988264D01*
X173242143Y-94967210D01*
X173489780Y-94898262D01*
X173584242Y-94739553D01*
X173599330Y-94408061D01*
X173598096Y-94249357D01*
X173560101Y-93996972D01*
X173413201Y-93884146D01*
X173083594Y-93827858D01*
X172964685Y-93812142D01*
X172775465Y-93763391D01*
X173728264Y-93763391D01*
X174794003Y-93800871D01*
X174807891Y-93801357D01*
X175377151Y-93809841D01*
X175733764Y-93769842D01*
X175921157Y-93655203D01*
X175982757Y-93439767D01*
X175961991Y-93097378D01*
X175920142Y-92731918D01*
X173728264Y-92731918D01*
X173728264Y-93763391D01*
X172775465Y-93763391D01*
X172689815Y-93741324D01*
X172564018Y-93581130D01*
X172503391Y-93247655D01*
X172438924Y-92731918D01*
X170247046Y-92602984D01*
X170182579Y-92087248D01*
X170161526Y-91928699D01*
X170092577Y-91681063D01*
X169933868Y-91586600D01*
X169602376Y-91571512D01*
X169443672Y-91572747D01*
X169191287Y-91610741D01*
X169078462Y-91757642D01*
X169022173Y-92087248D01*
X169006457Y-92206157D01*
X168935640Y-92481028D01*
X168775446Y-92606824D01*
X168441970Y-92667451D01*
X168283421Y-92688505D01*
X168035784Y-92757453D01*
X167941322Y-92916162D01*
X167926234Y-93247655D01*
X167926234Y-93763391D01*
X165605422Y-93763391D01*
X165605422Y-91571512D01*
X168957706Y-91442578D01*
X170247046Y-91442578D01*
X172438924Y-91571512D01*
X172503391Y-92087248D01*
X172518673Y-92203186D01*
X172587515Y-92477749D01*
X172739060Y-92597685D01*
X173052397Y-92643063D01*
X173313072Y-92652226D01*
X173523462Y-92583809D01*
X173631571Y-92371495D01*
X173690487Y-91958314D01*
X173728264Y-91571512D01*
X175920142Y-91442578D01*
X175920142Y-90411106D01*
X170247046Y-90411106D01*
X170247046Y-91442578D01*
X168957706Y-91442578D01*
X168957706Y-90411106D01*
X163284609Y-90411106D01*
X163284609Y-90926842D01*
X163285844Y-91085546D01*
X163323838Y-91337931D01*
X163470739Y-91450757D01*
X163800345Y-91507045D01*
X164316082Y-91571512D01*
X164316082Y-93763391D01*
X163800345Y-93763391D01*
X163641642Y-93762156D01*
X163389256Y-93724162D01*
X163276431Y-93577261D01*
X163220142Y-93247655D01*
X163155675Y-92731918D01*
X159803391Y-92602984D01*
X159738924Y-92087248D01*
X159723209Y-91968340D01*
X159652391Y-91693469D01*
X159492197Y-91567672D01*
X159158721Y-91507045D01*
X159039812Y-91491330D01*
X158764942Y-91420512D01*
X158639145Y-91260318D01*
X158578518Y-90926842D01*
X158514051Y-90411106D01*
X155161767Y-90411106D01*
X155032833Y-92602984D01*
X154517097Y-92667451D01*
X154358548Y-92688505D01*
X154110911Y-92757453D01*
X154016449Y-92916162D01*
X154001361Y-93247655D01*
X154001361Y-93763391D01*
X152577184Y-93763391D01*
X152636152Y-93744215D01*
X152744261Y-93531901D01*
X152803178Y-93118720D01*
X152805352Y-93097224D01*
X152863104Y-92853150D01*
X153020533Y-92731376D01*
X153356691Y-92667451D01*
X153872427Y-92602984D01*
X153872427Y-90411106D01*
X153356691Y-90411106D01*
X153197987Y-90412341D01*
X152945602Y-90450335D01*
X152832776Y-90597236D01*
X152776488Y-90926842D01*
X152760772Y-91045751D01*
X152721613Y-91197742D01*
X152689955Y-91320622D01*
X152529760Y-91446418D01*
X152196285Y-91507045D01*
X151680549Y-91571512D01*
X151680549Y-93763391D01*
X150224421Y-93763391D01*
X150313673Y-93742565D01*
X150439523Y-93518554D01*
X150433057Y-93097378D01*
X150427963Y-93055424D01*
X150367770Y-92840788D01*
X150210238Y-92750408D01*
X149875472Y-92731918D01*
X149359736Y-92731918D01*
X149359736Y-93247655D01*
X146458721Y-93247655D01*
X146458721Y-92087248D01*
X147038924Y-92087248D01*
X147039981Y-92237592D01*
X147075204Y-92493256D01*
X147213016Y-92601628D01*
X147523463Y-92643063D01*
X147700123Y-92650466D01*
X147992861Y-92582159D01*
X148118711Y-92358148D01*
X148112245Y-91936972D01*
X148107151Y-91895018D01*
X148046958Y-91680382D01*
X147889426Y-91590002D01*
X147554660Y-91571512D01*
X147038924Y-91571512D01*
X147038924Y-92087248D01*
X146458721Y-92087248D01*
X146458721Y-90926842D01*
X148199330Y-90926842D01*
X148200387Y-91077186D01*
X148235611Y-91332849D01*
X148373422Y-91441222D01*
X148683869Y-91482657D01*
X148860529Y-91490060D01*
X149153267Y-91421753D01*
X149279117Y-91197742D01*
X149274958Y-90926842D01*
X150520142Y-90926842D01*
X150521200Y-91077186D01*
X150537809Y-91197742D01*
X150556423Y-91332849D01*
X150694234Y-91441222D01*
X151004681Y-91482657D01*
X151181341Y-91490060D01*
X151474079Y-91421753D01*
X151599929Y-91197742D01*
X151593463Y-90776566D01*
X151588369Y-90734612D01*
X151528176Y-90519976D01*
X151370644Y-90429596D01*
X151035878Y-90411106D01*
X150520142Y-90411106D01*
X150520142Y-90926842D01*
X149274958Y-90926842D01*
X149272651Y-90776566D01*
X149267557Y-90734612D01*
X149207364Y-90519976D01*
X149049832Y-90429596D01*
X148715066Y-90411106D01*
X148199330Y-90411106D01*
X148199330Y-90926842D01*
X146458721Y-90926842D01*
X146458721Y-89250700D01*
X159803391Y-89250700D01*
X159803391Y-91442578D01*
X160869130Y-91480059D01*
X161180765Y-91488239D01*
X161635392Y-91479457D01*
X161895342Y-91432896D01*
X162001608Y-91343619D01*
X162024157Y-91162258D01*
X162037865Y-90776563D01*
X162040755Y-90246574D01*
X162031809Y-89629996D01*
X162021278Y-89186233D01*
X167861767Y-89186233D01*
X175984609Y-89186233D01*
X175984609Y-81063391D01*
X167861767Y-81063391D01*
X167861767Y-89186233D01*
X162021278Y-89186233D01*
X162019748Y-89121766D01*
X163284609Y-89121766D01*
X163769148Y-89161845D01*
X164136975Y-89150222D01*
X164179026Y-89121766D01*
X165605422Y-89121766D01*
X166089960Y-89161845D01*
X166157187Y-89166949D01*
X166420154Y-89162141D01*
X166583377Y-89075298D01*
X166666916Y-88862648D01*
X166690831Y-88480415D01*
X166675183Y-87884827D01*
X166636894Y-86929888D01*
X165605422Y-86929888D01*
X165605422Y-89121766D01*
X164179026Y-89121766D01*
X164321423Y-89025405D01*
X164344340Y-88843228D01*
X164358377Y-88456704D01*
X164361488Y-87926081D01*
X164352621Y-87309184D01*
X164316082Y-85769482D01*
X163284609Y-85769482D01*
X163284609Y-89121766D01*
X162019748Y-89121766D01*
X161995269Y-88090294D01*
X161479533Y-88090294D01*
X161320830Y-88091529D01*
X161068444Y-88129523D01*
X160955619Y-88276424D01*
X160920782Y-88480415D01*
X160899330Y-88606030D01*
X160883615Y-88724939D01*
X160812797Y-88999810D01*
X160652603Y-89125606D01*
X160319127Y-89186233D01*
X159803391Y-89250700D01*
X146458721Y-89250700D01*
X146458721Y-89186233D01*
X146974457Y-89186233D01*
X155097300Y-89186233D01*
X155097300Y-88606030D01*
X156322173Y-88606030D01*
X156323230Y-88756374D01*
X156358453Y-89012037D01*
X156496264Y-89120410D01*
X156806712Y-89161845D01*
X156983371Y-89169248D01*
X157186862Y-89121766D01*
X158642985Y-89121766D01*
X159127524Y-89161845D01*
X159194751Y-89166949D01*
X159457718Y-89162141D01*
X159620940Y-89075298D01*
X159704479Y-88862648D01*
X159728394Y-88480415D01*
X159712746Y-87884827D01*
X159674457Y-86929888D01*
X158642985Y-86929888D01*
X158642985Y-89121766D01*
X157186862Y-89121766D01*
X157276110Y-89100941D01*
X157401960Y-88876930D01*
X157395494Y-88455754D01*
X157390400Y-88413800D01*
X157330207Y-88199164D01*
X157172674Y-88108784D01*
X156837909Y-88090294D01*
X156322173Y-88090294D01*
X156322173Y-88606030D01*
X155097300Y-88606030D01*
X155097300Y-86800954D01*
X156322173Y-86800954D01*
X156806712Y-86841032D01*
X157067387Y-86850195D01*
X157277777Y-86781778D01*
X157385885Y-86569465D01*
X157426417Y-86285218D01*
X160963797Y-86285218D01*
X160964854Y-86435562D01*
X161000078Y-86691225D01*
X161137889Y-86799598D01*
X161448336Y-86841032D01*
X161624996Y-86848436D01*
X161917734Y-86780129D01*
X162043584Y-86556118D01*
X162037118Y-86134942D01*
X162032024Y-86092988D01*
X161971831Y-85878352D01*
X161814299Y-85787972D01*
X161479533Y-85769482D01*
X160963797Y-85769482D01*
X160963797Y-86285218D01*
X157426417Y-86285218D01*
X157444802Y-86156284D01*
X157482579Y-85769482D01*
X159674457Y-85640548D01*
X159674457Y-84609076D01*
X156322173Y-84609076D01*
X156322173Y-86800954D01*
X155097300Y-86800954D01*
X155097300Y-83964406D01*
X159803391Y-83964406D01*
X159804448Y-84114750D01*
X159839672Y-84370413D01*
X159977483Y-84478786D01*
X160287930Y-84520220D01*
X160464590Y-84527624D01*
X160757328Y-84459317D01*
X160883178Y-84235306D01*
X160876712Y-83814130D01*
X160871618Y-83772175D01*
X160811425Y-83557540D01*
X160653893Y-83467160D01*
X160319127Y-83448670D01*
X159803391Y-83448670D01*
X159803391Y-83964406D01*
X155097300Y-83964406D01*
X155097300Y-83319736D01*
X156322173Y-83319736D01*
X157968643Y-83355840D01*
X158484657Y-83364514D01*
X159038922Y-83361639D01*
X159398639Y-83337773D01*
X159600969Y-83289859D01*
X159683074Y-83214840D01*
X159686577Y-83204274D01*
X159713311Y-82973465D01*
X159717298Y-82804000D01*
X160963797Y-82804000D01*
X160965032Y-82962703D01*
X161003026Y-83215089D01*
X161149927Y-83327914D01*
X161479533Y-83384203D01*
X161995269Y-83448670D01*
X162041542Y-84235306D01*
X162124203Y-85640548D01*
X162639939Y-85640548D01*
X162798643Y-85639313D01*
X163051028Y-85601319D01*
X163163854Y-85454418D01*
X163220142Y-85124812D01*
X163241196Y-84966263D01*
X163310144Y-84718626D01*
X163468853Y-84624164D01*
X163800345Y-84609076D01*
X163959049Y-84610310D01*
X164211435Y-84648305D01*
X164324260Y-84795206D01*
X164380549Y-85124812D01*
X164445016Y-85640548D01*
X165510754Y-85678029D01*
X165524642Y-85678514D01*
X166093902Y-85686999D01*
X166450515Y-85646999D01*
X166637909Y-85532360D01*
X166699509Y-85316924D01*
X166678742Y-84974536D01*
X166619253Y-84734922D01*
X166459584Y-84610408D01*
X166121158Y-84544609D01*
X165962608Y-84523556D01*
X165714972Y-84454607D01*
X165620510Y-84295898D01*
X165605422Y-83964406D01*
X165606656Y-83805702D01*
X165644650Y-83553317D01*
X165791551Y-83440491D01*
X166121158Y-83384203D01*
X166279707Y-83363149D01*
X166527343Y-83294201D01*
X166621806Y-83135492D01*
X166636894Y-82804000D01*
X166635659Y-82645296D01*
X166597665Y-82392911D01*
X166450764Y-82280085D01*
X166121158Y-82223797D01*
X166002249Y-82208081D01*
X165727378Y-82137264D01*
X165601582Y-81977069D01*
X165540955Y-81643594D01*
X165519901Y-81485044D01*
X165450953Y-81237408D01*
X165292244Y-81142945D01*
X164960752Y-81127858D01*
X164445016Y-81127858D01*
X164316082Y-83319736D01*
X163800345Y-83319736D01*
X163641642Y-83318501D01*
X163389256Y-83280507D01*
X163276431Y-83133606D01*
X163220142Y-82804000D01*
X163155675Y-82288264D01*
X160963797Y-82288264D01*
X160963797Y-82804000D01*
X159717298Y-82804000D01*
X159722732Y-82573009D01*
X159712746Y-82082796D01*
X159674457Y-81127858D01*
X159158721Y-81127858D01*
X159000018Y-81129092D01*
X158747632Y-81167086D01*
X158634807Y-81313987D01*
X158578518Y-81643594D01*
X158514051Y-82159330D01*
X156322173Y-82288264D01*
X156322173Y-83319736D01*
X155097300Y-83319736D01*
X155097300Y-81063391D01*
X146974457Y-81063391D01*
X146974457Y-89186233D01*
X146458721Y-89186233D01*
X146458721Y-80547655D01*
X176500345Y-80547655D01*
X176500345Y-110589279D01*
X146458721Y-110589279D01*
G37*
G36*
X169022173Y-88025827D02*
G01*
X169022173Y-86865421D01*
X170182579Y-86865421D01*
X173663797Y-86865421D01*
X173663797Y-83384203D01*
X170182579Y-83384203D01*
X170182579Y-86865421D01*
X169022173Y-86865421D01*
X169022173Y-82223797D01*
X174824203Y-82223797D01*
X174824203Y-88025827D01*
X169022173Y-88025827D01*
G37*
D14*
%TO.C,TP1*%
X99494000Y-91006000D02*
X96594000Y-91006000D01*
X96594000Y-93906000D02*
X99494000Y-93906000D01*
X96594000Y-91006000D02*
X96594000Y-93906000D01*
X99494000Y-93906000D02*
X99494000Y-91006000D01*
D15*
%TO.C,R12*%
X122160000Y-91500000D02*
X122160000Y-92100000D01*
D14*
%TO.C,TP7*%
X96594000Y-87196000D02*
X96594000Y-90096000D01*
X99494000Y-87196000D02*
X96594000Y-87196000D01*
X96594000Y-90096000D02*
X99494000Y-90096000D01*
X99494000Y-90096000D02*
X99494000Y-87196000D01*
D13*
%TO.C,R15*%
X134792000Y-105638000D02*
X135751000Y-105638000D01*
X132981000Y-105638000D02*
X132981000Y-106960000D01*
X133940000Y-105638000D02*
X132981000Y-105638000D01*
X135751000Y-105638000D02*
X135751000Y-106960000D01*
X132981000Y-106960000D02*
X133940000Y-106960000D01*
X135751000Y-106960000D02*
X134792000Y-106960000D01*
D15*
%TO.C,R2*%
X107760000Y-63124200D02*
X107760000Y-62524200D01*
%TD*%
%LPC*%
D17*
%TO.C,J2*%
X185540000Y-78160000D03*
D18*
X183000000Y-78160000D03*
X180460000Y-78160000D03*
X177920000Y-78160000D03*
X175380000Y-78160000D03*
X172840000Y-78160000D03*
X170300000Y-78160000D03*
X167760000Y-78160000D03*
X165220000Y-78160000D03*
X162680000Y-78160000D03*
X160140000Y-78160000D03*
X157600000Y-78160000D03*
X155060000Y-78160000D03*
X152520000Y-78160000D03*
X149980000Y-78160000D03*
X147440000Y-78160000D03*
X144900000Y-78160000D03*
X142360000Y-78160000D03*
X139820000Y-78160000D03*
X137280000Y-78160000D03*
X134740000Y-78160000D03*
X132200000Y-78160000D03*
X129660000Y-78160000D03*
X127120000Y-78160000D03*
X124580000Y-78160000D03*
X122040000Y-78160000D03*
X119500000Y-78160000D03*
X116960000Y-78160000D03*
X114420000Y-78160000D03*
X111880000Y-78160000D03*
X109340000Y-78160000D03*
X106800000Y-78160000D03*
X104260000Y-78160000D03*
%TD*%
D17*
%TO.C,J1*%
X185540000Y-68000000D03*
D18*
X183000000Y-68000000D03*
X180460000Y-68000000D03*
X177920000Y-68000000D03*
X175380000Y-68000000D03*
X172840000Y-68000000D03*
X170300000Y-68000000D03*
X167760000Y-68000000D03*
X165220000Y-68000000D03*
X162680000Y-68000000D03*
X160140000Y-68000000D03*
X157600000Y-68000000D03*
X155060000Y-68000000D03*
X152520000Y-68000000D03*
X149980000Y-68000000D03*
X147440000Y-68000000D03*
X144900000Y-68000000D03*
X142360000Y-68000000D03*
X139820000Y-68000000D03*
X137280000Y-68000000D03*
X134740000Y-68000000D03*
X132200000Y-68000000D03*
X129660000Y-68000000D03*
X127120000Y-68000000D03*
X124580000Y-68000000D03*
X122040000Y-68000000D03*
X119500000Y-68000000D03*
X116960000Y-68000000D03*
X114420000Y-68000000D03*
X111880000Y-68000000D03*
X109340000Y-68000000D03*
X106800000Y-68000000D03*
X104260000Y-68000000D03*
%TD*%
D17*
%TO.C,J4*%
X185540000Y-128960000D03*
D18*
X183000000Y-128960000D03*
X180460000Y-128960000D03*
X177920000Y-128960000D03*
X175380000Y-128960000D03*
X172840000Y-128960000D03*
X170300000Y-128960000D03*
X167760000Y-128960000D03*
X165220000Y-128960000D03*
X162680000Y-128960000D03*
X160140000Y-128960000D03*
X157600000Y-128960000D03*
X155060000Y-128960000D03*
X152520000Y-128960000D03*
X149980000Y-128960000D03*
X147440000Y-128960000D03*
X144900000Y-128960000D03*
X142360000Y-128960000D03*
X139820000Y-128960000D03*
X137280000Y-128960000D03*
X134740000Y-128960000D03*
X132200000Y-128960000D03*
X129660000Y-128960000D03*
X127120000Y-128960000D03*
X124580000Y-128960000D03*
X122040000Y-128960000D03*
X119500000Y-128960000D03*
X116960000Y-128960000D03*
X114420000Y-128960000D03*
X111880000Y-128960000D03*
X109340000Y-128960000D03*
X106800000Y-128960000D03*
X104260000Y-128960000D03*
%TD*%
D19*
%TO.C,BT1*%
X177370000Y-50550000D03*
X105150000Y-50550000D03*
%TD*%
D17*
%TO.C,J3*%
X185540000Y-118800000D03*
D18*
X183000000Y-118800000D03*
X180460000Y-118800000D03*
X177920000Y-118800000D03*
X175380000Y-118800000D03*
X172840000Y-118800000D03*
X170300000Y-118800000D03*
X167760000Y-118800000D03*
X165220000Y-118800000D03*
X162680000Y-118800000D03*
X160140000Y-118800000D03*
X157600000Y-118800000D03*
X155060000Y-118800000D03*
X152520000Y-118800000D03*
X149980000Y-118800000D03*
X147440000Y-118800000D03*
X144900000Y-118800000D03*
X142360000Y-118800000D03*
X139820000Y-118800000D03*
X137280000Y-118800000D03*
X134740000Y-118800000D03*
X132200000Y-118800000D03*
X129660000Y-118800000D03*
X127120000Y-118800000D03*
X124580000Y-118800000D03*
X122040000Y-118800000D03*
X119500000Y-118800000D03*
X116960000Y-118800000D03*
X114420000Y-118800000D03*
X111880000Y-118800000D03*
X109340000Y-118800000D03*
X106800000Y-118800000D03*
X104260000Y-118800000D03*
%TD*%
D20*
%TO.C,TP12*%
X112776000Y-107823000D03*
%TD*%
D21*
%TO.C,C10*%
X139017000Y-93218000D03*
X138097000Y-93218000D03*
%TD*%
D22*
%TO.C,R13*%
X123260000Y-96300000D03*
X123260000Y-94700000D03*
%TD*%
D23*
%TO.C,R11*%
X107060000Y-99050000D03*
X105460000Y-99050000D03*
%TD*%
D24*
%TO.C,IC4*%
X94442400Y-55929400D03*
X94442400Y-53629400D03*
X94442400Y-51329400D03*
D25*
X100742400Y-53629400D03*
%TD*%
D26*
%TO.C,R3*%
X100860000Y-66342000D03*
X100860000Y-69300000D03*
%TD*%
D27*
%TO.C,C4*%
X100474400Y-40040400D03*
X97694400Y-40040400D03*
%TD*%
%TO.C,C8*%
X101650000Y-59496800D03*
X98870000Y-59496800D03*
%TD*%
D28*
%TO.C,D6*%
X105910000Y-106350000D03*
X109310000Y-106350000D03*
%TD*%
D20*
%TO.C,TP3*%
X171958000Y-114173000D03*
%TD*%
D29*
%TO.C,IC3*%
X108198000Y-47305000D03*
X108198000Y-46035000D03*
X108198000Y-44765000D03*
X108198000Y-43495000D03*
X113622000Y-43495000D03*
X113622000Y-44765000D03*
X113622000Y-46035000D03*
X113622000Y-47305000D03*
D30*
X110910000Y-45400000D03*
%TD*%
D31*
%TO.C,U4*%
X97337000Y-101208200D03*
X97337000Y-100558200D03*
X97337000Y-99908200D03*
X97337000Y-99258200D03*
X97337000Y-98608200D03*
D32*
X96965000Y-97483200D03*
D33*
X94295000Y-96308200D03*
X94295000Y-103508200D03*
D32*
X96965000Y-102333200D03*
%TD*%
D23*
%TO.C,D1*%
X117158000Y-62798800D03*
X118658000Y-62798800D03*
%TD*%
D20*
%TO.C,TP4*%
X159766000Y-115062000D03*
%TD*%
D34*
%TO.C,R14*%
X133613000Y-103886000D03*
X135119000Y-103886000D03*
%TD*%
D20*
%TO.C,TP13*%
X139065000Y-87503000D03*
%TD*%
D28*
%TO.C,D4*%
X107010000Y-92100000D03*
X103610000Y-92100000D03*
%TD*%
D35*
%TO.C,C12*%
X116410000Y-101350000D03*
X116410000Y-102270000D03*
%TD*%
D36*
%TO.C,C3*%
X93260000Y-58660000D03*
X93260000Y-61440000D03*
%TD*%
D22*
%TO.C,D8*%
X120660000Y-96100000D03*
X120660000Y-94600000D03*
%TD*%
D37*
%TO.C,Q1*%
X94776000Y-37653000D03*
X94776000Y-39563000D03*
X92676000Y-38608000D03*
%TD*%
D20*
%TO.C,TP9*%
X120142000Y-114427000D03*
%TD*%
D28*
%TO.C,D5*%
X110760000Y-102800000D03*
X107360000Y-102800000D03*
%TD*%
D20*
%TO.C,TP8*%
X132588000Y-114427000D03*
%TD*%
%TO.C,TP11*%
X117983000Y-107696000D03*
%TD*%
D38*
%TO.C,R5*%
X95810000Y-58550000D03*
X95810000Y-61450000D03*
%TD*%
D39*
%TO.C,U2*%
X108716000Y-81550000D03*
X109216000Y-81550000D03*
D40*
X109916000Y-82050000D03*
X109916000Y-82550000D03*
X109916000Y-83050000D03*
D39*
X109216000Y-83550000D03*
X108716000Y-83550000D03*
D40*
X108016000Y-83050000D03*
X108016000Y-82550000D03*
X108016000Y-82050000D03*
%TD*%
D41*
%TO.C,IC5*%
X120618200Y-103618000D03*
X120618200Y-103118000D03*
X120618200Y-102618000D03*
X120618200Y-102118000D03*
X120618200Y-101618000D03*
X120618200Y-101118000D03*
X120618200Y-100618000D03*
D42*
X121518200Y-99718000D03*
X122018200Y-99718000D03*
X122518200Y-99718000D03*
X123018200Y-99718000D03*
X123518200Y-99718000D03*
X124018200Y-99718000D03*
X124518200Y-99718000D03*
D41*
X125418200Y-100618000D03*
X125418200Y-101118000D03*
X125418200Y-101618000D03*
X125418200Y-102118000D03*
X125418200Y-102618000D03*
X125418200Y-103118000D03*
X125418200Y-103618000D03*
D42*
X124518200Y-104518000D03*
X124018200Y-104518000D03*
X123518200Y-104518000D03*
X123018200Y-104518000D03*
X122518200Y-104518000D03*
X122018200Y-104518000D03*
X121518200Y-104518000D03*
D43*
X123018200Y-102118000D03*
%TD*%
D21*
%TO.C,C5*%
X96710000Y-65250000D03*
X95790000Y-65250000D03*
%TD*%
D20*
%TO.C,TP10*%
X184150000Y-61976000D03*
%TD*%
%TO.C,TP5*%
X127508000Y-64008000D03*
%TD*%
D44*
%TO.C,L1*%
X92610000Y-83050000D03*
X96510000Y-83050000D03*
%TD*%
D26*
%TO.C,R4*%
X100860000Y-71900000D03*
X100860000Y-74858000D03*
%TD*%
D45*
%TO.C,IC2*%
X96415000Y-74512000D03*
X95145000Y-74512000D03*
X93875000Y-74512000D03*
X92605000Y-74512000D03*
X92605000Y-69088000D03*
X93875000Y-69088000D03*
X95145000Y-69088000D03*
X96415000Y-69088000D03*
D46*
X94510000Y-71800000D03*
%TD*%
D47*
%TO.C,C6*%
X141859000Y-93166000D03*
X141859000Y-91746000D03*
%TD*%
D48*
%TO.C,R6*%
X92760000Y-64297000D03*
X92760000Y-65803000D03*
%TD*%
D49*
%TO.C,IC1*%
X100502000Y-44069000D03*
X100502000Y-45339000D03*
X100502000Y-46609000D03*
X100502000Y-47879000D03*
X95078000Y-47879000D03*
X95078000Y-46609000D03*
X95078000Y-45339000D03*
X95078000Y-44069000D03*
%TD*%
D20*
%TO.C,TP6*%
X115316000Y-85217000D03*
%TD*%
D50*
%TO.C,U1*%
X120396000Y-85852000D03*
D51*
X121666000Y-85852000D03*
X122936000Y-85852000D03*
%TD*%
D49*
%TO.C,U3*%
X144444000Y-95631000D03*
X144444000Y-96901000D03*
X144444000Y-98171000D03*
X144444000Y-99441000D03*
X139020000Y-99441000D03*
X139020000Y-98171000D03*
X139020000Y-96901000D03*
X139020000Y-95631000D03*
%TD*%
D52*
%TO.C,D3*%
X95800000Y-35500000D03*
X99200000Y-35500000D03*
%TD*%
D22*
%TO.C,R7*%
X104660000Y-46100000D03*
X104660000Y-44500000D03*
%TD*%
D23*
%TO.C,D7*%
X100260000Y-98800000D03*
X101760000Y-98800000D03*
%TD*%
D27*
%TO.C,C7*%
X101650000Y-63611600D03*
X98870000Y-63611600D03*
%TD*%
D20*
%TO.C,TP2*%
X132334000Y-82423000D03*
%TD*%
D27*
%TO.C,C1*%
X92480000Y-78300000D03*
X95260000Y-78300000D03*
%TD*%
D23*
%TO.C,C9*%
X122053000Y-82331400D03*
X120453000Y-82331400D03*
%TD*%
%TO.C,R1*%
X122339400Y-62798800D03*
X120739400Y-62798800D03*
%TD*%
D53*
%TO.C,D2*%
X113805200Y-62773400D03*
X111605200Y-62773400D03*
%TD*%
D27*
%TO.C,C2*%
X108410000Y-40700000D03*
X105630000Y-40700000D03*
%TD*%
D20*
%TO.C,TP1*%
X98044000Y-92456000D03*
%TD*%
D23*
%TO.C,R12*%
X122960000Y-91800000D03*
X121360000Y-91800000D03*
%TD*%
D20*
%TO.C,TP7*%
X98044000Y-88646000D03*
%TD*%
D34*
%TO.C,R15*%
X133613000Y-106299000D03*
X135119000Y-106299000D03*
%TD*%
D23*
%TO.C,R2*%
X106960000Y-62824200D03*
X108560000Y-62824200D03*
%TD*%
D54*
%TO.C,C11*%
X105468000Y-96606200D03*
X106888000Y-96606200D03*
%TD*%
D21*
%TO.C,C13*%
X105947800Y-94726600D03*
X106867800Y-94726600D03*
%TD*%
M02*
