%TF.GenerationSoftware,KiCad,Pcbnew,(6.0.2-0)*%
%TF.CreationDate,2022-03-20T10:30:07+02:00*%
%TF.ProjectId,main,6d61696e-2e6b-4696-9361-645f70636258,rev?*%
%TF.SameCoordinates,Original*%
%TF.FileFunction,Soldermask,Top*%
%TF.FilePolarity,Negative*%
%FSLAX46Y46*%
G04 Gerber Fmt 4.6, Leading zero omitted, Abs format (unit mm)*
G04 Created by KiCad (PCBNEW (6.0.2-0)) date 2022-03-20 10:30:07*
%MOMM*%
%LPD*%
G01*
G04 APERTURE LIST*
%ADD10R,1.700000X1.700000*%
%ADD11O,1.700000X1.700000*%
%ADD12C,1.524000*%
%ADD13R,1.200000X0.950000*%
%ADD14C,1.300000*%
%ADD15O,2.200000X1.300000*%
%ADD16R,0.900000X1.600000*%
%ADD17O,0.900000X1.600000*%
G04 APERTURE END LIST*
D10*
%TO.C,J2*%
X185280000Y-75610000D03*
D11*
X182740000Y-75610000D03*
X180200000Y-75610000D03*
X177660000Y-75610000D03*
X175120000Y-75610000D03*
X172580000Y-75610000D03*
X170040000Y-75610000D03*
X167500000Y-75610000D03*
X164960000Y-75610000D03*
X162420000Y-75610000D03*
X159880000Y-75610000D03*
X157340000Y-75610000D03*
X154800000Y-75610000D03*
X152260000Y-75610000D03*
X149720000Y-75610000D03*
X147180000Y-75610000D03*
X144640000Y-75610000D03*
X142100000Y-75610000D03*
X139560000Y-75610000D03*
X137020000Y-75610000D03*
X134480000Y-75610000D03*
X131940000Y-75610000D03*
X129400000Y-75610000D03*
X126860000Y-75610000D03*
X124320000Y-75610000D03*
X121780000Y-75610000D03*
X119240000Y-75610000D03*
X116700000Y-75610000D03*
X114160000Y-75610000D03*
X111620000Y-75610000D03*
X109080000Y-75610000D03*
X106540000Y-75610000D03*
X104000000Y-75610000D03*
%TD*%
D10*
%TO.C,J1*%
X185280000Y-65450000D03*
D11*
X182740000Y-65450000D03*
X180200000Y-65450000D03*
X177660000Y-65450000D03*
X175120000Y-65450000D03*
X172580000Y-65450000D03*
X170040000Y-65450000D03*
X167500000Y-65450000D03*
X164960000Y-65450000D03*
X162420000Y-65450000D03*
X159880000Y-65450000D03*
X157340000Y-65450000D03*
X154800000Y-65450000D03*
X152260000Y-65450000D03*
X149720000Y-65450000D03*
X147180000Y-65450000D03*
X144640000Y-65450000D03*
X142100000Y-65450000D03*
X139560000Y-65450000D03*
X137020000Y-65450000D03*
X134480000Y-65450000D03*
X131940000Y-65450000D03*
X129400000Y-65450000D03*
X126860000Y-65450000D03*
X124320000Y-65450000D03*
X121780000Y-65450000D03*
X119240000Y-65450000D03*
X116700000Y-65450000D03*
X114160000Y-65450000D03*
X111620000Y-65450000D03*
X109080000Y-65450000D03*
X106540000Y-65450000D03*
X104000000Y-65450000D03*
%TD*%
D10*
%TO.C,J4*%
X185280000Y-126410000D03*
D11*
X182740000Y-126410000D03*
X180200000Y-126410000D03*
X177660000Y-126410000D03*
X175120000Y-126410000D03*
X172580000Y-126410000D03*
X170040000Y-126410000D03*
X167500000Y-126410000D03*
X164960000Y-126410000D03*
X162420000Y-126410000D03*
X159880000Y-126410000D03*
X157340000Y-126410000D03*
X154800000Y-126410000D03*
X152260000Y-126410000D03*
X149720000Y-126410000D03*
X147180000Y-126410000D03*
X144640000Y-126410000D03*
X142100000Y-126410000D03*
X139560000Y-126410000D03*
X137020000Y-126410000D03*
X134480000Y-126410000D03*
X131940000Y-126410000D03*
X129400000Y-126410000D03*
X126860000Y-126410000D03*
X124320000Y-126410000D03*
X121780000Y-126410000D03*
X119240000Y-126410000D03*
X116700000Y-126410000D03*
X114160000Y-126410000D03*
X111620000Y-126410000D03*
X109080000Y-126410000D03*
X106540000Y-126410000D03*
X104000000Y-126410000D03*
%TD*%
D12*
%TO.C,BT1*%
X177110000Y-48000000D03*
X104890000Y-48000000D03*
%TD*%
D13*
%TO.C,D3*%
X95100000Y-37490400D03*
X98500000Y-37490400D03*
%TD*%
D10*
%TO.C,J3*%
X185280000Y-116250000D03*
D11*
X182740000Y-116250000D03*
X180200000Y-116250000D03*
X177660000Y-116250000D03*
X175120000Y-116250000D03*
X172580000Y-116250000D03*
X170040000Y-116250000D03*
X167500000Y-116250000D03*
X164960000Y-116250000D03*
X162420000Y-116250000D03*
X159880000Y-116250000D03*
X157340000Y-116250000D03*
X154800000Y-116250000D03*
X152260000Y-116250000D03*
X149720000Y-116250000D03*
X147180000Y-116250000D03*
X144640000Y-116250000D03*
X142100000Y-116250000D03*
X139560000Y-116250000D03*
X137020000Y-116250000D03*
X134480000Y-116250000D03*
X131940000Y-116250000D03*
X129400000Y-116250000D03*
X126860000Y-116250000D03*
X124320000Y-116250000D03*
X121780000Y-116250000D03*
X119240000Y-116250000D03*
X116700000Y-116250000D03*
X114160000Y-116250000D03*
X111620000Y-116250000D03*
X109080000Y-116250000D03*
X106540000Y-116250000D03*
X104000000Y-116250000D03*
%TD*%
D14*
%TO.C,U4*%
X96705000Y-94933200D03*
D15*
X94035000Y-93758200D03*
X94035000Y-100958200D03*
D14*
X96705000Y-99783200D03*
%TD*%
D16*
%TO.C,U1*%
X120142000Y-83341690D03*
D17*
X121412000Y-83341690D03*
X122682000Y-83341690D03*
%TD*%
M02*
